<mxfile host="app.diagrams.net" modified="2024-05-24T19:05:01.314Z" agent="Mozilla/5.0 (X11; Linux x86_64) AppleWebKit/537.36 (KHTML, like Gecko) Chrome/114.0.0.0 Safari/537.36" etag="c52KYCDmLLdVA-9SYmGy" version="24.4.4" type="github">
  <diagram name="Page-1" id="eNZkA2NTbnl7GuclhR5Z">
    <mxGraphModel dx="2738" dy="2272" grid="0" gridSize="10" guides="1" tooltips="1" connect="1" arrows="1" fold="1" page="0" pageScale="1" pageWidth="850" pageHeight="1100" math="0" shadow="0">
      <root>
        <mxCell id="0" />
        <mxCell id="1" parent="0" />
        <mxCell id="p42XSGhQ1gn5jIiI9MLK-1" value="" style="edgeStyle=orthogonalEdgeStyle;rounded=0;orthogonalLoop=1;jettySize=auto;html=1;fontFamily=Helvetica;fontSize=18;fontColor=default;" parent="1" source="p42XSGhQ1gn5jIiI9MLK-3" target="p42XSGhQ1gn5jIiI9MLK-7" edge="1">
          <mxGeometry relative="1" as="geometry" />
        </mxCell>
        <mxCell id="p42XSGhQ1gn5jIiI9MLK-2" value="" style="edgeStyle=orthogonalEdgeStyle;rounded=0;orthogonalLoop=1;jettySize=auto;html=1;fontFamily=Helvetica;fontSize=18;fontColor=default;" parent="1" source="p42XSGhQ1gn5jIiI9MLK-3" target="p42XSGhQ1gn5jIiI9MLK-9" edge="1">
          <mxGeometry relative="1" as="geometry" />
        </mxCell>
        <mxCell id="p42XSGhQ1gn5jIiI9MLK-3" value="Q1" style="ellipse;whiteSpace=wrap;html=1;aspect=fixed;hachureGap=4;fillColor=#dae8fc;strokeColor=#6c8ebf;rounded=0;fontSize=18;" parent="1" vertex="1">
          <mxGeometry x="1877" y="-511" width="80" height="80" as="geometry" />
        </mxCell>
        <mxCell id="p42XSGhQ1gn5jIiI9MLK-4" style="edgeStyle=orthogonalEdgeStyle;rounded=0;orthogonalLoop=1;jettySize=auto;html=1;fontSize=18;entryX=0;entryY=0.5;entryDx=0;entryDy=0;" parent="1" target="p42XSGhQ1gn5jIiI9MLK-3" edge="1">
          <mxGeometry relative="1" as="geometry">
            <mxPoint x="1800" y="-471" as="sourcePoint" />
            <mxPoint x="1841" y="-840" as="targetPoint" />
          </mxGeometry>
        </mxCell>
        <mxCell id="p42XSGhQ1gn5jIiI9MLK-5" value="" style="edgeStyle=orthogonalEdgeStyle;rounded=0;orthogonalLoop=1;jettySize=auto;html=1;fontFamily=Helvetica;fontSize=18;fontColor=default;" parent="1" source="p42XSGhQ1gn5jIiI9MLK-7" target="p42XSGhQ1gn5jIiI9MLK-12" edge="1">
          <mxGeometry relative="1" as="geometry" />
        </mxCell>
        <mxCell id="p42XSGhQ1gn5jIiI9MLK-6" value="" style="edgeStyle=orthogonalEdgeStyle;rounded=0;orthogonalLoop=1;jettySize=auto;html=1;fontFamily=Helvetica;fontSize=18;fontColor=default;" parent="1" source="p42XSGhQ1gn5jIiI9MLK-7" target="p42XSGhQ1gn5jIiI9MLK-15" edge="1">
          <mxGeometry relative="1" as="geometry" />
        </mxCell>
        <mxCell id="p42XSGhQ1gn5jIiI9MLK-7" value="Q4" style="ellipse;whiteSpace=wrap;html=1;fontSize=18;fillColor=#dae8fc;strokeColor=#6c8ebf;hachureGap=4;rounded=0;" parent="1" vertex="1">
          <mxGeometry x="1877" y="-671" width="80" height="80" as="geometry" />
        </mxCell>
        <mxCell id="p42XSGhQ1gn5jIiI9MLK-8" value="1" style="text;html=1;align=center;verticalAlign=middle;resizable=0;points=[];autosize=1;strokeColor=none;fillColor=none;fontFamily=Helvetica;fontSize=18;fontColor=default;" parent="1" vertex="1">
          <mxGeometry x="1879.5" y="-551" width="28" height="34" as="geometry" />
        </mxCell>
        <mxCell id="p42XSGhQ1gn5jIiI9MLK-9" value="Q2" style="ellipse;whiteSpace=wrap;html=1;fontSize=18;fillColor=#dae8fc;strokeColor=#6c8ebf;hachureGap=4;rounded=0;" parent="1" vertex="1">
          <mxGeometry x="2037" y="-511" width="80" height="80" as="geometry" />
        </mxCell>
        <mxCell id="p42XSGhQ1gn5jIiI9MLK-10" value="0" style="text;html=1;align=center;verticalAlign=middle;resizable=0;points=[];autosize=1;strokeColor=none;fillColor=none;fontFamily=Helvetica;fontSize=18;fontColor=default;" parent="1" vertex="1">
          <mxGeometry x="1953.5" y="-503" width="28" height="34" as="geometry" />
        </mxCell>
        <mxCell id="p42XSGhQ1gn5jIiI9MLK-11" value="" style="edgeStyle=orthogonalEdgeStyle;rounded=0;orthogonalLoop=1;jettySize=auto;html=1;fontFamily=Helvetica;fontSize=18;fontColor=default;" parent="1" source="p42XSGhQ1gn5jIiI9MLK-12" target="p42XSGhQ1gn5jIiI9MLK-19" edge="1">
          <mxGeometry relative="1" as="geometry" />
        </mxCell>
        <mxCell id="p42XSGhQ1gn5jIiI9MLK-12" value="Q3" style="ellipse;whiteSpace=wrap;html=1;fontSize=18;fillColor=#dae8fc;strokeColor=#6c8ebf;hachureGap=4;rounded=0;" parent="1" vertex="1">
          <mxGeometry x="2037" y="-671" width="80" height="80" as="geometry" />
        </mxCell>
        <mxCell id="p42XSGhQ1gn5jIiI9MLK-13" value="1" style="text;html=1;align=center;verticalAlign=middle;resizable=0;points=[];autosize=1;strokeColor=none;fillColor=none;fontFamily=Helvetica;fontSize=18;fontColor=default;" parent="1" vertex="1">
          <mxGeometry x="1960.5" y="-666" width="28" height="34" as="geometry" />
        </mxCell>
        <mxCell id="p42XSGhQ1gn5jIiI9MLK-14" style="edgeStyle=orthogonalEdgeStyle;rounded=0;orthogonalLoop=1;jettySize=auto;html=1;entryX=0;entryY=0.5;entryDx=0;entryDy=0;fontFamily=Helvetica;fontSize=18;fontColor=default;" parent="1" source="p42XSGhQ1gn5jIiI9MLK-15" target="p42XSGhQ1gn5jIiI9MLK-7" edge="1">
          <mxGeometry relative="1" as="geometry">
            <Array as="points">
              <mxPoint x="1836.5" y="-785" />
              <mxPoint x="1836.5" y="-631" />
            </Array>
          </mxGeometry>
        </mxCell>
        <mxCell id="p42XSGhQ1gn5jIiI9MLK-15" value="Q5" style="ellipse;whiteSpace=wrap;html=1;fontSize=18;fillColor=#dae8fc;strokeColor=#6c8ebf;hachureGap=4;rounded=0;" parent="1" vertex="1">
          <mxGeometry x="1877" y="-831" width="80" height="80" as="geometry" />
        </mxCell>
        <mxCell id="p42XSGhQ1gn5jIiI9MLK-16" value="0" style="text;html=1;align=center;verticalAlign=middle;resizable=0;points=[];autosize=1;strokeColor=none;fillColor=none;fontFamily=Helvetica;fontSize=18;fontColor=default;" parent="1" vertex="1">
          <mxGeometry x="1886.5" y="-707" width="28" height="34" as="geometry" />
        </mxCell>
        <mxCell id="p42XSGhQ1gn5jIiI9MLK-17" style="edgeStyle=orthogonalEdgeStyle;rounded=0;orthogonalLoop=1;jettySize=auto;html=1;exitX=0;exitY=1;exitDx=0;exitDy=0;entryX=1;entryY=1;entryDx=0;entryDy=0;fontFamily=Helvetica;fontSize=18;fontColor=default;" parent="1" source="p42XSGhQ1gn5jIiI9MLK-12" target="p42XSGhQ1gn5jIiI9MLK-7" edge="1">
          <mxGeometry relative="1" as="geometry" />
        </mxCell>
        <mxCell id="p42XSGhQ1gn5jIiI9MLK-18" value="1" style="text;html=1;align=center;verticalAlign=middle;resizable=0;points=[];autosize=1;strokeColor=none;fillColor=none;fontFamily=Helvetica;fontSize=18;fontColor=default;" parent="1" vertex="1">
          <mxGeometry x="2009" y="-602" width="28" height="34" as="geometry" />
        </mxCell>
        <mxCell id="p42XSGhQ1gn5jIiI9MLK-19" value="Q23" style="ellipse;whiteSpace=wrap;html=1;fontSize=18;fillColor=#dae8fc;strokeColor=#6c8ebf;hachureGap=4;rounded=0;" parent="1" vertex="1">
          <mxGeometry x="2197" y="-671" width="80" height="80" as="geometry" />
        </mxCell>
        <mxCell id="p42XSGhQ1gn5jIiI9MLK-20" value="0" style="text;html=1;align=center;verticalAlign=middle;resizable=0;points=[];autosize=1;strokeColor=none;fillColor=none;fontFamily=Helvetica;fontSize=18;fontColor=default;" parent="1" vertex="1">
          <mxGeometry x="2125.5" y="-661" width="28" height="34" as="geometry" />
        </mxCell>
        <mxCell id="p42XSGhQ1gn5jIiI9MLK-21" style="edgeStyle=orthogonalEdgeStyle;rounded=0;orthogonalLoop=1;jettySize=auto;html=1;exitX=0;exitY=0;exitDx=0;exitDy=0;entryX=0.5;entryY=0;entryDx=0;entryDy=0;fontFamily=Helvetica;fontSize=18;fontColor=default;curved=1;" parent="1" source="p42XSGhQ1gn5jIiI9MLK-15" target="p42XSGhQ1gn5jIiI9MLK-15" edge="1">
          <mxGeometry relative="1" as="geometry">
            <Array as="points">
              <mxPoint x="1888.5" y="-874" />
              <mxPoint x="1917.5" y="-874" />
            </Array>
          </mxGeometry>
        </mxCell>
        <mxCell id="p42XSGhQ1gn5jIiI9MLK-22" value="1" style="text;html=1;align=center;verticalAlign=middle;resizable=0;points=[];autosize=1;strokeColor=none;fillColor=none;fontFamily=Helvetica;fontSize=18;fontColor=default;" parent="1" vertex="1">
          <mxGeometry x="1874.5" y="-900" width="28" height="34" as="geometry" />
        </mxCell>
        <mxCell id="p42XSGhQ1gn5jIiI9MLK-23" value="0" style="text;html=1;align=center;verticalAlign=middle;resizable=0;points=[];autosize=1;strokeColor=none;fillColor=none;fontFamily=Helvetica;fontSize=18;fontColor=default;" parent="1" vertex="1">
          <mxGeometry x="1831.5" y="-820" width="28" height="34" as="geometry" />
        </mxCell>
        <mxCell id="p42XSGhQ1gn5jIiI9MLK-24" style="edgeStyle=orthogonalEdgeStyle;rounded=0;orthogonalLoop=1;jettySize=auto;html=1;entryX=0.866;entryY=0.06;entryDx=0;entryDy=0;entryPerimeter=0;fontFamily=Helvetica;fontSize=18;fontColor=default;" parent="1" source="p42XSGhQ1gn5jIiI9MLK-19" target="p42XSGhQ1gn5jIiI9MLK-7" edge="1">
          <mxGeometry relative="1" as="geometry">
            <Array as="points">
              <mxPoint x="2237.5" y="-736" />
              <mxPoint x="1946.5" y="-736" />
            </Array>
          </mxGeometry>
        </mxCell>
        <mxCell id="p42XSGhQ1gn5jIiI9MLK-25" value="1" style="text;html=1;align=center;verticalAlign=middle;resizable=0;points=[];autosize=1;strokeColor=none;fillColor=none;fontFamily=Helvetica;fontSize=18;fontColor=default;" parent="1" vertex="1">
          <mxGeometry x="2234.5" y="-711" width="28" height="34" as="geometry" />
        </mxCell>
        <mxCell id="p42XSGhQ1gn5jIiI9MLK-26" style="edgeStyle=orthogonalEdgeStyle;rounded=0;orthogonalLoop=1;jettySize=auto;html=1;exitX=1;exitY=1;exitDx=0;exitDy=0;entryX=0.5;entryY=1;entryDx=0;entryDy=0;fontFamily=Helvetica;fontSize=18;fontColor=default;curved=1;" parent="1" source="p42XSGhQ1gn5jIiI9MLK-19" target="p42XSGhQ1gn5jIiI9MLK-19" edge="1">
          <mxGeometry relative="1" as="geometry">
            <Array as="points">
              <mxPoint x="2265.5" y="-557" />
              <mxPoint x="2237.5" y="-557" />
            </Array>
          </mxGeometry>
        </mxCell>
        <mxCell id="p42XSGhQ1gn5jIiI9MLK-27" value="0" style="text;html=1;align=center;verticalAlign=middle;resizable=0;points=[];autosize=1;strokeColor=none;fillColor=none;fontFamily=Helvetica;fontSize=18;fontColor=default;" parent="1" vertex="1">
          <mxGeometry x="2234.5" y="-553" width="28" height="34" as="geometry" />
        </mxCell>
        <mxCell id="p42XSGhQ1gn5jIiI9MLK-28" value="" style="ellipse;whiteSpace=wrap;html=1;aspect=fixed;align=center;verticalAlign=middle;fontFamily=Helvetica;fontSize=18;fontColor=default;fillColor=none;gradientColor=none;strokeColor=#000000;" parent="1" vertex="1">
          <mxGeometry x="2045" y="-504.5" width="67" height="67" as="geometry" />
        </mxCell>
        <mxCell id="p42XSGhQ1gn5jIiI9MLK-29" value="" style="ellipse;whiteSpace=wrap;html=1;aspect=fixed;align=center;verticalAlign=middle;fontFamily=Helvetica;fontSize=18;fontColor=default;fillColor=none;gradientColor=none;strokeColor=#000000;" parent="1" vertex="1">
          <mxGeometry x="2045" y="-664.5" width="67" height="67" as="geometry" />
        </mxCell>
        <mxCell id="p42XSGhQ1gn5jIiI9MLK-30" value="" style="ellipse;whiteSpace=wrap;html=1;aspect=fixed;align=center;verticalAlign=middle;fontFamily=Helvetica;fontSize=18;fontColor=default;fillColor=none;gradientColor=none;strokeColor=#000000;" parent="1" vertex="1">
          <mxGeometry x="2204.5" y="-664.5" width="67" height="67" as="geometry" />
        </mxCell>
        <mxCell id="p42XSGhQ1gn5jIiI9MLK-36" value="" style="edgeStyle=orthogonalEdgeStyle;rounded=0;orthogonalLoop=1;jettySize=auto;html=1;" parent="1" source="p42XSGhQ1gn5jIiI9MLK-31" target="p42XSGhQ1gn5jIiI9MLK-35" edge="1">
          <mxGeometry relative="1" as="geometry" />
        </mxCell>
        <mxCell id="p42XSGhQ1gn5jIiI9MLK-45" value="" style="edgeStyle=orthogonalEdgeStyle;rounded=0;orthogonalLoop=1;jettySize=auto;html=1;fontFamily=Helvetica;fontSize=18;fontColor=default;autosize=1;resizable=0;" parent="1" source="p42XSGhQ1gn5jIiI9MLK-31" target="p42XSGhQ1gn5jIiI9MLK-44" edge="1">
          <mxGeometry relative="1" as="geometry" />
        </mxCell>
        <mxCell id="p42XSGhQ1gn5jIiI9MLK-31" value="S" style="ellipse;whiteSpace=wrap;html=1;aspect=fixed;hachureGap=4;fillColor=#dae8fc;strokeColor=#6c8ebf;rounded=0;fontSize=18;" parent="1" vertex="1">
          <mxGeometry x="1856" y="-286" width="80" height="80" as="geometry" />
        </mxCell>
        <mxCell id="p42XSGhQ1gn5jIiI9MLK-32" style="edgeStyle=orthogonalEdgeStyle;rounded=0;orthogonalLoop=1;jettySize=auto;html=1;fontSize=18;entryX=0;entryY=0.5;entryDx=0;entryDy=0;" parent="1" target="p42XSGhQ1gn5jIiI9MLK-31" edge="1">
          <mxGeometry relative="1" as="geometry">
            <mxPoint x="1779" y="-246" as="sourcePoint" />
            <mxPoint x="1820" y="-615" as="targetPoint" />
          </mxGeometry>
        </mxCell>
        <mxCell id="p42XSGhQ1gn5jIiI9MLK-38" value="" style="edgeStyle=orthogonalEdgeStyle;rounded=0;orthogonalLoop=1;jettySize=auto;html=1;" parent="1" source="p42XSGhQ1gn5jIiI9MLK-35" target="p42XSGhQ1gn5jIiI9MLK-37" edge="1">
          <mxGeometry relative="1" as="geometry" />
        </mxCell>
        <mxCell id="p42XSGhQ1gn5jIiI9MLK-35" value="" style="ellipse;whiteSpace=wrap;html=1;aspect=fixed;hachureGap=4;fillColor=#dae8fc;strokeColor=#6c8ebf;rounded=0;fontSize=18;" parent="1" vertex="1">
          <mxGeometry x="2016" y="-286" width="80" height="80" as="geometry" />
        </mxCell>
        <mxCell id="p42XSGhQ1gn5jIiI9MLK-48" style="edgeStyle=orthogonalEdgeStyle;rounded=0;orthogonalLoop=1;jettySize=auto;html=1;entryX=0.5;entryY=0;entryDx=0;entryDy=0;fontFamily=Helvetica;fontSize=18;fontColor=default;autosize=1;resizable=0;" parent="1" source="p42XSGhQ1gn5jIiI9MLK-37" target="p42XSGhQ1gn5jIiI9MLK-31" edge="1">
          <mxGeometry relative="1" as="geometry">
            <Array as="points">
              <mxPoint x="2273" y="-246" />
              <mxPoint x="2273" y="-370" />
              <mxPoint x="1896" y="-370" />
            </Array>
          </mxGeometry>
        </mxCell>
        <mxCell id="p42XSGhQ1gn5jIiI9MLK-37" value="" style="ellipse;whiteSpace=wrap;html=1;aspect=fixed;hachureGap=4;fillColor=#dae8fc;strokeColor=#6c8ebf;rounded=0;fontSize=18;" parent="1" vertex="1">
          <mxGeometry x="2176" y="-286" width="80" height="80" as="geometry" />
        </mxCell>
        <mxCell id="p42XSGhQ1gn5jIiI9MLK-40" value="a" style="text;html=1;align=center;verticalAlign=middle;resizable=0;points=[];autosize=1;strokeColor=none;fillColor=none;fontFamily=Helvetica;fontSize=18;fontColor=default;" parent="1" vertex="1">
          <mxGeometry x="1960" y="-280" width="28" height="34" as="geometry" />
        </mxCell>
        <mxCell id="p42XSGhQ1gn5jIiI9MLK-41" value="a" style="text;html=1;align=center;verticalAlign=middle;resizable=0;points=[];autosize=1;strokeColor=none;fillColor=none;fontFamily=Helvetica;fontSize=18;fontColor=default;" parent="1" vertex="1">
          <mxGeometry x="2118" y="-281" width="28" height="34" as="geometry" />
        </mxCell>
        <mxCell id="p42XSGhQ1gn5jIiI9MLK-42" style="edgeStyle=orthogonalEdgeStyle;rounded=0;orthogonalLoop=1;jettySize=auto;html=1;exitX=0;exitY=0;exitDx=0;exitDy=0;entryX=0.5;entryY=0;entryDx=0;entryDy=0;fontFamily=Helvetica;fontSize=18;fontColor=default;autosize=1;resizable=0;curved=1;" parent="1" source="p42XSGhQ1gn5jIiI9MLK-37" target="p42XSGhQ1gn5jIiI9MLK-37" edge="1">
          <mxGeometry relative="1" as="geometry">
            <Array as="points">
              <mxPoint x="2188" y="-311" />
              <mxPoint x="2216" y="-311" />
            </Array>
          </mxGeometry>
        </mxCell>
        <mxCell id="p42XSGhQ1gn5jIiI9MLK-43" value="b" style="text;html=1;align=center;verticalAlign=middle;resizable=0;points=[];autosize=1;strokeColor=none;fillColor=none;fontFamily=Helvetica;fontSize=18;fontColor=default;" parent="1" vertex="1">
          <mxGeometry x="2178" y="-351" width="28" height="34" as="geometry" />
        </mxCell>
        <mxCell id="p42XSGhQ1gn5jIiI9MLK-52" value="" style="edgeStyle=orthogonalEdgeStyle;rounded=0;orthogonalLoop=1;jettySize=auto;html=1;fontFamily=Helvetica;fontSize=18;fontColor=default;autosize=1;resizable=0;" parent="1" source="p42XSGhQ1gn5jIiI9MLK-44" target="p42XSGhQ1gn5jIiI9MLK-51" edge="1">
          <mxGeometry relative="1" as="geometry" />
        </mxCell>
        <mxCell id="p42XSGhQ1gn5jIiI9MLK-44" value="" style="ellipse;whiteSpace=wrap;html=1;aspect=fixed;hachureGap=4;fillColor=#dae8fc;strokeColor=#6c8ebf;rounded=0;fontSize=18;" parent="1" vertex="1">
          <mxGeometry x="1856" y="-126" width="80" height="80" as="geometry" />
        </mxCell>
        <mxCell id="p42XSGhQ1gn5jIiI9MLK-49" value="ε" style="text;html=1;align=center;verticalAlign=middle;resizable=0;points=[];autosize=1;strokeColor=none;fillColor=none;fontFamily=Helvetica;fontSize=18;fontColor=default;" parent="1" vertex="1">
          <mxGeometry x="2277" y="-287" width="26" height="34" as="geometry" />
        </mxCell>
        <mxCell id="p42XSGhQ1gn5jIiI9MLK-50" value="a" style="text;html=1;align=center;verticalAlign=middle;resizable=0;points=[];autosize=1;strokeColor=none;fillColor=none;fontFamily=Helvetica;fontSize=18;fontColor=default;" parent="1" vertex="1">
          <mxGeometry x="1856" y="-178" width="28" height="34" as="geometry" />
        </mxCell>
        <mxCell id="p42XSGhQ1gn5jIiI9MLK-55" style="edgeStyle=orthogonalEdgeStyle;rounded=0;orthogonalLoop=1;jettySize=auto;html=1;entryX=0;entryY=1;entryDx=0;entryDy=0;fontFamily=Helvetica;fontSize=18;fontColor=default;autosize=1;resizable=0;" parent="1" source="p42XSGhQ1gn5jIiI9MLK-51" target="p42XSGhQ1gn5jIiI9MLK-31" edge="1">
          <mxGeometry relative="1" as="geometry">
            <Array as="points">
              <mxPoint x="2056" y="-1" />
              <mxPoint x="1810" y="-1" />
              <mxPoint x="1810" y="-218" />
            </Array>
          </mxGeometry>
        </mxCell>
        <mxCell id="p42XSGhQ1gn5jIiI9MLK-51" value="" style="ellipse;whiteSpace=wrap;html=1;aspect=fixed;hachureGap=4;fillColor=#dae8fc;strokeColor=#6c8ebf;rounded=0;fontSize=18;" parent="1" vertex="1">
          <mxGeometry x="2016" y="-126" width="80" height="80" as="geometry" />
        </mxCell>
        <mxCell id="p42XSGhQ1gn5jIiI9MLK-53" value="b" style="text;html=1;align=center;verticalAlign=middle;resizable=0;points=[];autosize=1;strokeColor=none;fillColor=none;fontFamily=Helvetica;fontSize=18;fontColor=default;" parent="1" vertex="1">
          <mxGeometry x="1946" y="-117" width="28" height="34" as="geometry" />
        </mxCell>
        <mxCell id="p42XSGhQ1gn5jIiI9MLK-56" value="ε" style="text;html=1;align=center;verticalAlign=middle;resizable=0;points=[];autosize=1;strokeColor=none;fillColor=none;fontFamily=Helvetica;fontSize=18;fontColor=default;" parent="1" vertex="1">
          <mxGeometry x="2060" y="-39" width="26" height="34" as="geometry" />
        </mxCell>
        <mxCell id="p42XSGhQ1gn5jIiI9MLK-57" value="" style="ellipse;whiteSpace=wrap;html=1;aspect=fixed;align=center;verticalAlign=middle;fontFamily=Helvetica;fontSize=18;fontColor=default;fillColor=none;gradientColor=none;strokeColor=#000000;" parent="1" vertex="1">
          <mxGeometry x="1862.5" y="-279.5" width="67" height="67" as="geometry" />
        </mxCell>
        <mxCell id="p42XSGhQ1gn5jIiI9MLK-58" value="" style="ellipse;whiteSpace=wrap;html=1;aspect=fixed;align=center;verticalAlign=middle;fontFamily=Helvetica;fontSize=18;fontColor=default;fillColor=none;gradientColor=none;strokeColor=#000000;" parent="1" vertex="1">
          <mxGeometry x="2182.5" y="-279.5" width="67" height="67" as="geometry" />
        </mxCell>
        <mxCell id="p42XSGhQ1gn5jIiI9MLK-59" value="" style="ellipse;whiteSpace=wrap;html=1;aspect=fixed;align=center;verticalAlign=middle;fontFamily=Helvetica;fontSize=18;fontColor=default;fillColor=none;gradientColor=none;strokeColor=#000000;" parent="1" vertex="1">
          <mxGeometry x="2022" y="-119.5" width="67" height="67" as="geometry" />
        </mxCell>
        <mxCell id="3wRG5uY9hwC1dV_-qFoT-1" value="" style="edgeStyle=orthogonalEdgeStyle;rounded=0;orthogonalLoop=1;jettySize=auto;html=1;" parent="1" source="3wRG5uY9hwC1dV_-qFoT-3" target="3wRG5uY9hwC1dV_-qFoT-6" edge="1">
          <mxGeometry relative="1" as="geometry" />
        </mxCell>
        <mxCell id="3wRG5uY9hwC1dV_-qFoT-3" value="S" style="ellipse;whiteSpace=wrap;html=1;aspect=fixed;hachureGap=4;fillColor=#dae8fc;strokeColor=#6c8ebf;rounded=0;fontSize=18;" parent="1" vertex="1">
          <mxGeometry x="1864" y="127" width="80" height="80" as="geometry" />
        </mxCell>
        <mxCell id="3wRG5uY9hwC1dV_-qFoT-4" style="edgeStyle=orthogonalEdgeStyle;rounded=0;orthogonalLoop=1;jettySize=auto;html=1;fontSize=18;entryX=0;entryY=0.5;entryDx=0;entryDy=0;" parent="1" target="3wRG5uY9hwC1dV_-qFoT-3" edge="1">
          <mxGeometry relative="1" as="geometry">
            <mxPoint x="1787" y="167" as="sourcePoint" />
            <mxPoint x="1828" y="-202" as="targetPoint" />
          </mxGeometry>
        </mxCell>
        <mxCell id="3wRG5uY9hwC1dV_-qFoT-24" value="" style="edgeStyle=orthogonalEdgeStyle;rounded=0;orthogonalLoop=1;jettySize=auto;html=1;" parent="1" source="3wRG5uY9hwC1dV_-qFoT-6" target="3wRG5uY9hwC1dV_-qFoT-23" edge="1">
          <mxGeometry relative="1" as="geometry" />
        </mxCell>
        <mxCell id="3wRG5uY9hwC1dV_-qFoT-30" value="" style="edgeStyle=orthogonalEdgeStyle;rounded=0;orthogonalLoop=1;jettySize=auto;html=1;fontFamily=Helvetica;fontSize=18;fontColor=default;autosize=1;resizable=0;" parent="1" source="3wRG5uY9hwC1dV_-qFoT-6" target="3wRG5uY9hwC1dV_-qFoT-29" edge="1">
          <mxGeometry relative="1" as="geometry" />
        </mxCell>
        <mxCell id="3wRG5uY9hwC1dV_-qFoT-6" value="a-fard" style="ellipse;whiteSpace=wrap;html=1;aspect=fixed;hachureGap=4;fillColor=#dae8fc;strokeColor=#6c8ebf;rounded=0;fontSize=18;" parent="1" vertex="1">
          <mxGeometry x="2024" y="127" width="80" height="80" as="geometry" />
        </mxCell>
        <mxCell id="3wRG5uY9hwC1dV_-qFoT-9" value="a" style="text;html=1;align=center;verticalAlign=middle;resizable=0;points=[];autosize=1;strokeColor=none;fillColor=none;fontFamily=Helvetica;fontSize=18;fontColor=default;" parent="1" vertex="1">
          <mxGeometry x="1968" y="133" width="28" height="34" as="geometry" />
        </mxCell>
        <mxCell id="3wRG5uY9hwC1dV_-qFoT-27" style="edgeStyle=orthogonalEdgeStyle;rounded=0;orthogonalLoop=1;jettySize=auto;html=1;entryX=0.5;entryY=0;entryDx=0;entryDy=0;fontFamily=Helvetica;fontSize=18;fontColor=default;autosize=1;resizable=0;" parent="1" source="3wRG5uY9hwC1dV_-qFoT-23" target="3wRG5uY9hwC1dV_-qFoT-6" edge="1">
          <mxGeometry relative="1" as="geometry">
            <Array as="points">
              <mxPoint x="2218" y="63" />
              <mxPoint x="2064" y="63" />
            </Array>
          </mxGeometry>
        </mxCell>
        <mxCell id="3wRG5uY9hwC1dV_-qFoT-33" value="" style="edgeStyle=orthogonalEdgeStyle;rounded=0;orthogonalLoop=1;jettySize=auto;html=1;fontFamily=Helvetica;fontSize=18;fontColor=default;autosize=1;resizable=0;" parent="1" source="3wRG5uY9hwC1dV_-qFoT-23" target="3wRG5uY9hwC1dV_-qFoT-32" edge="1">
          <mxGeometry relative="1" as="geometry" />
        </mxCell>
        <mxCell id="3wRG5uY9hwC1dV_-qFoT-23" value="a-zoj" style="ellipse;whiteSpace=wrap;html=1;aspect=fixed;hachureGap=4;fillColor=#dae8fc;strokeColor=#6c8ebf;rounded=0;fontSize=18;" parent="1" vertex="1">
          <mxGeometry x="2184" y="127" width="80" height="80" as="geometry" />
        </mxCell>
        <mxCell id="3wRG5uY9hwC1dV_-qFoT-26" value="a" style="text;html=1;align=center;verticalAlign=middle;resizable=0;points=[];autosize=1;strokeColor=none;fillColor=none;fontFamily=Helvetica;fontSize=18;fontColor=default;" parent="1" vertex="1">
          <mxGeometry x="2121" y="129" width="28" height="34" as="geometry" />
        </mxCell>
        <mxCell id="3wRG5uY9hwC1dV_-qFoT-28" value="a" style="text;html=1;align=center;verticalAlign=middle;resizable=0;points=[];autosize=1;strokeColor=none;fillColor=none;fontFamily=Helvetica;fontSize=18;fontColor=default;" parent="1" vertex="1">
          <mxGeometry x="2128" y="25" width="28" height="34" as="geometry" />
        </mxCell>
        <mxCell id="3wRG5uY9hwC1dV_-qFoT-37" style="edgeStyle=orthogonalEdgeStyle;rounded=0;orthogonalLoop=1;jettySize=auto;html=1;entryX=0.5;entryY=1;entryDx=0;entryDy=0;fontFamily=Helvetica;fontSize=18;fontColor=default;autosize=1;resizable=0;" parent="1" source="3wRG5uY9hwC1dV_-qFoT-29" target="3wRG5uY9hwC1dV_-qFoT-32" edge="1">
          <mxGeometry relative="1" as="geometry">
            <Array as="points">
              <mxPoint x="2064" y="387" />
              <mxPoint x="2224" y="387" />
            </Array>
          </mxGeometry>
        </mxCell>
        <mxCell id="3wRG5uY9hwC1dV_-qFoT-29" value="b-zoj" style="ellipse;whiteSpace=wrap;html=1;aspect=fixed;hachureGap=4;fillColor=#dae8fc;strokeColor=#6c8ebf;rounded=0;fontSize=18;" parent="1" vertex="1">
          <mxGeometry x="2024" y="287" width="80" height="80" as="geometry" />
        </mxCell>
        <mxCell id="3wRG5uY9hwC1dV_-qFoT-31" value="b" style="text;html=1;align=center;verticalAlign=middle;resizable=0;points=[];autosize=1;strokeColor=none;fillColor=none;fontFamily=Helvetica;fontSize=18;fontColor=default;" parent="1" vertex="1">
          <mxGeometry x="2030" y="227" width="28" height="34" as="geometry" />
        </mxCell>
        <mxCell id="3wRG5uY9hwC1dV_-qFoT-35" style="edgeStyle=orthogonalEdgeStyle;rounded=0;orthogonalLoop=1;jettySize=auto;html=1;entryX=1;entryY=0.5;entryDx=0;entryDy=0;fontFamily=Helvetica;fontSize=18;fontColor=default;autosize=1;resizable=0;" parent="1" source="3wRG5uY9hwC1dV_-qFoT-32" target="3wRG5uY9hwC1dV_-qFoT-29" edge="1">
          <mxGeometry relative="1" as="geometry" />
        </mxCell>
        <mxCell id="3wRG5uY9hwC1dV_-qFoT-32" value="b-fard" style="ellipse;whiteSpace=wrap;html=1;aspect=fixed;hachureGap=4;fillColor=#dae8fc;strokeColor=#6c8ebf;rounded=0;fontSize=18;" parent="1" vertex="1">
          <mxGeometry x="2184" y="287" width="80" height="80" as="geometry" />
        </mxCell>
        <mxCell id="3wRG5uY9hwC1dV_-qFoT-34" value="b" style="text;html=1;align=center;verticalAlign=middle;resizable=0;points=[];autosize=1;strokeColor=none;fillColor=none;fontFamily=Helvetica;fontSize=18;fontColor=default;" parent="1" vertex="1">
          <mxGeometry x="2225" y="230" width="28" height="34" as="geometry" />
        </mxCell>
        <mxCell id="3wRG5uY9hwC1dV_-qFoT-36" value="b" style="text;html=1;align=center;verticalAlign=middle;resizable=0;points=[];autosize=1;strokeColor=none;fillColor=none;fontFamily=Helvetica;fontSize=18;fontColor=default;" parent="1" vertex="1">
          <mxGeometry x="2126" y="287" width="28" height="34" as="geometry" />
        </mxCell>
        <mxCell id="3wRG5uY9hwC1dV_-qFoT-38" value="b" style="text;html=1;align=center;verticalAlign=middle;resizable=0;points=[];autosize=1;strokeColor=none;fillColor=none;fontFamily=Helvetica;fontSize=18;fontColor=default;" parent="1" vertex="1">
          <mxGeometry x="2121" y="386" width="28" height="34" as="geometry" />
        </mxCell>
        <mxCell id="3wRG5uY9hwC1dV_-qFoT-39" value="" style="ellipse;whiteSpace=wrap;html=1;aspect=fixed;align=center;verticalAlign=middle;fontFamily=Helvetica;fontSize=18;fontColor=default;fillColor=none;gradientColor=none;strokeColor=#000000;" parent="1" vertex="1">
          <mxGeometry x="2031" y="293.5" width="67" height="67" as="geometry" />
        </mxCell>
        <mxCell id="3wRG5uY9hwC1dV_-qFoT-46" value="" style="edgeStyle=orthogonalEdgeStyle;rounded=0;orthogonalLoop=1;jettySize=auto;html=1;fontFamily=Helvetica;fontSize=18;fontColor=default;autosize=1;resizable=0;" parent="1" source="3wRG5uY9hwC1dV_-qFoT-41" target="3wRG5uY9hwC1dV_-qFoT-45" edge="1">
          <mxGeometry relative="1" as="geometry" />
        </mxCell>
        <mxCell id="3wRG5uY9hwC1dV_-qFoT-41" value="S0" style="ellipse;whiteSpace=wrap;html=1;aspect=fixed;hachureGap=4;fillColor=#dae8fc;strokeColor=#6c8ebf;rounded=0;fontSize=18;" parent="1" vertex="1">
          <mxGeometry x="1862.5" y="528" width="80" height="80" as="geometry" />
        </mxCell>
        <mxCell id="3wRG5uY9hwC1dV_-qFoT-42" style="edgeStyle=orthogonalEdgeStyle;rounded=0;orthogonalLoop=1;jettySize=auto;html=1;fontSize=18;entryX=0;entryY=0.5;entryDx=0;entryDy=0;" parent="1" target="3wRG5uY9hwC1dV_-qFoT-41" edge="1">
          <mxGeometry relative="1" as="geometry">
            <mxPoint x="1785.5" y="568" as="sourcePoint" />
            <mxPoint x="1826.5" y="199" as="targetPoint" />
          </mxGeometry>
        </mxCell>
        <mxCell id="3wRG5uY9hwC1dV_-qFoT-43" value="a" style="text;html=1;align=center;verticalAlign=middle;resizable=0;points=[];autosize=1;strokeColor=none;fillColor=none;fontFamily=Helvetica;fontSize=18;fontColor=default;" parent="1" vertex="1">
          <mxGeometry x="1968" y="521" width="28" height="34" as="geometry" />
        </mxCell>
        <mxCell id="3wRG5uY9hwC1dV_-qFoT-50" value="" style="edgeStyle=orthogonalEdgeStyle;rounded=0;orthogonalLoop=1;jettySize=auto;html=1;fontFamily=Helvetica;fontSize=18;fontColor=default;autosize=1;resizable=0;" parent="1" source="3wRG5uY9hwC1dV_-qFoT-45" target="3wRG5uY9hwC1dV_-qFoT-49" edge="1">
          <mxGeometry relative="1" as="geometry" />
        </mxCell>
        <mxCell id="3wRG5uY9hwC1dV_-qFoT-61" value="" style="edgeStyle=orthogonalEdgeStyle;rounded=0;orthogonalLoop=1;jettySize=auto;html=1;fontFamily=Helvetica;fontSize=18;fontColor=default;autosize=1;resizable=0;" parent="1" source="3wRG5uY9hwC1dV_-qFoT-45" target="3wRG5uY9hwC1dV_-qFoT-60" edge="1">
          <mxGeometry relative="1" as="geometry" />
        </mxCell>
        <mxCell id="3wRG5uY9hwC1dV_-qFoT-45" value="S1" style="ellipse;whiteSpace=wrap;html=1;aspect=fixed;hachureGap=4;fillColor=#dae8fc;strokeColor=#6c8ebf;rounded=0;fontSize=18;" parent="1" vertex="1">
          <mxGeometry x="2022.5" y="528" width="80" height="80" as="geometry" />
        </mxCell>
        <mxCell id="3wRG5uY9hwC1dV_-qFoT-47" style="edgeStyle=orthogonalEdgeStyle;rounded=0;orthogonalLoop=1;jettySize=auto;html=1;exitX=0;exitY=0;exitDx=0;exitDy=0;entryX=0.425;entryY=0.013;entryDx=0;entryDy=0;entryPerimeter=0;fontFamily=Helvetica;fontSize=18;fontColor=default;autosize=1;resizable=0;curved=1;" parent="1" source="3wRG5uY9hwC1dV_-qFoT-45" target="3wRG5uY9hwC1dV_-qFoT-45" edge="1">
          <mxGeometry relative="1" as="geometry">
            <Array as="points">
              <mxPoint x="2034" y="494" />
              <mxPoint x="2057" y="494" />
            </Array>
          </mxGeometry>
        </mxCell>
        <mxCell id="3wRG5uY9hwC1dV_-qFoT-48" value="b" style="text;html=1;align=center;verticalAlign=middle;resizable=0;points=[];autosize=1;strokeColor=none;fillColor=none;fontFamily=Helvetica;fontSize=18;fontColor=default;" parent="1" vertex="1">
          <mxGeometry x="2030" y="461" width="28" height="34" as="geometry" />
        </mxCell>
        <mxCell id="3wRG5uY9hwC1dV_-qFoT-53" value="" style="edgeStyle=orthogonalEdgeStyle;rounded=0;orthogonalLoop=1;jettySize=auto;html=1;fontFamily=Helvetica;fontSize=18;fontColor=default;autosize=1;resizable=0;" parent="1" source="3wRG5uY9hwC1dV_-qFoT-49" target="3wRG5uY9hwC1dV_-qFoT-52" edge="1">
          <mxGeometry relative="1" as="geometry" />
        </mxCell>
        <mxCell id="3wRG5uY9hwC1dV_-qFoT-49" value="S2" style="ellipse;whiteSpace=wrap;html=1;aspect=fixed;hachureGap=4;fillColor=#dae8fc;strokeColor=#6c8ebf;rounded=0;fontSize=18;" parent="1" vertex="1">
          <mxGeometry x="2182.5" y="528" width="80" height="80" as="geometry" />
        </mxCell>
        <mxCell id="3wRG5uY9hwC1dV_-qFoT-51" value="a" style="text;html=1;align=center;verticalAlign=middle;resizable=0;points=[];autosize=1;strokeColor=none;fillColor=none;fontFamily=Helvetica;fontSize=18;fontColor=default;" parent="1" vertex="1">
          <mxGeometry x="2123" y="525" width="28" height="34" as="geometry" />
        </mxCell>
        <mxCell id="3wRG5uY9hwC1dV_-qFoT-56" value="" style="edgeStyle=orthogonalEdgeStyle;rounded=0;orthogonalLoop=1;jettySize=auto;html=1;fontFamily=Helvetica;fontSize=18;fontColor=default;autosize=1;resizable=0;" parent="1" source="3wRG5uY9hwC1dV_-qFoT-52" target="3wRG5uY9hwC1dV_-qFoT-55" edge="1">
          <mxGeometry relative="1" as="geometry" />
        </mxCell>
        <mxCell id="3wRG5uY9hwC1dV_-qFoT-52" value="S3" style="ellipse;whiteSpace=wrap;html=1;aspect=fixed;hachureGap=4;fillColor=#dae8fc;strokeColor=#6c8ebf;rounded=0;fontSize=18;" parent="1" vertex="1">
          <mxGeometry x="2342.5" y="528" width="80" height="80" as="geometry" />
        </mxCell>
        <mxCell id="3wRG5uY9hwC1dV_-qFoT-54" value="b" style="text;html=1;align=center;verticalAlign=middle;resizable=0;points=[];autosize=1;strokeColor=none;fillColor=none;fontFamily=Helvetica;fontSize=18;fontColor=default;" parent="1" vertex="1">
          <mxGeometry x="2284" y="526" width="28" height="34" as="geometry" />
        </mxCell>
        <mxCell id="3wRG5uY9hwC1dV_-qFoT-55" value="S4" style="ellipse;whiteSpace=wrap;html=1;aspect=fixed;hachureGap=4;fillColor=#dae8fc;strokeColor=#6c8ebf;rounded=0;fontSize=18;" parent="1" vertex="1">
          <mxGeometry x="2502.5" y="528" width="80" height="80" as="geometry" />
        </mxCell>
        <mxCell id="3wRG5uY9hwC1dV_-qFoT-57" value="a" style="text;html=1;align=center;verticalAlign=middle;resizable=0;points=[];autosize=1;strokeColor=none;fillColor=none;fontFamily=Helvetica;fontSize=18;fontColor=default;" parent="1" vertex="1">
          <mxGeometry x="2447" y="533" width="28" height="34" as="geometry" />
        </mxCell>
        <mxCell id="3wRG5uY9hwC1dV_-qFoT-58" style="edgeStyle=orthogonalEdgeStyle;rounded=0;orthogonalLoop=1;jettySize=auto;html=1;exitX=0;exitY=0;exitDx=0;exitDy=0;entryX=0.409;entryY=0.028;entryDx=0;entryDy=0;entryPerimeter=0;fontFamily=Helvetica;fontSize=18;fontColor=default;autosize=1;resizable=0;curved=1;" parent="1" source="3wRG5uY9hwC1dV_-qFoT-55" target="3wRG5uY9hwC1dV_-qFoT-55" edge="1">
          <mxGeometry relative="1" as="geometry">
            <Array as="points">
              <mxPoint x="2514" y="504" />
              <mxPoint x="2535" y="504" />
            </Array>
          </mxGeometry>
        </mxCell>
        <mxCell id="3wRG5uY9hwC1dV_-qFoT-59" value="b" style="text;html=1;align=center;verticalAlign=middle;resizable=0;points=[];autosize=1;strokeColor=none;fillColor=none;fontFamily=Helvetica;fontSize=18;fontColor=default;" parent="1" vertex="1">
          <mxGeometry x="2500" y="464" width="28" height="34" as="geometry" />
        </mxCell>
        <mxCell id="3wRG5uY9hwC1dV_-qFoT-64" value="" style="edgeStyle=orthogonalEdgeStyle;rounded=0;orthogonalLoop=1;jettySize=auto;html=1;fontFamily=Helvetica;fontSize=18;fontColor=default;autosize=1;resizable=0;" parent="1" source="3wRG5uY9hwC1dV_-qFoT-60" target="3wRG5uY9hwC1dV_-qFoT-63" edge="1">
          <mxGeometry relative="1" as="geometry" />
        </mxCell>
        <mxCell id="3wRG5uY9hwC1dV_-qFoT-60" value="S5" style="ellipse;whiteSpace=wrap;html=1;aspect=fixed;hachureGap=4;fillColor=#dae8fc;strokeColor=#6c8ebf;rounded=0;fontSize=18;" parent="1" vertex="1">
          <mxGeometry x="2022.5" y="688" width="80" height="80" as="geometry" />
        </mxCell>
        <mxCell id="3wRG5uY9hwC1dV_-qFoT-62" value="b" style="text;html=1;align=center;verticalAlign=middle;resizable=0;points=[];autosize=1;strokeColor=none;fillColor=none;fontFamily=Helvetica;fontSize=18;fontColor=default;" parent="1" vertex="1">
          <mxGeometry x="2032" y="631" width="28" height="34" as="geometry" />
        </mxCell>
        <mxCell id="3wRG5uY9hwC1dV_-qFoT-63" value="S6" style="ellipse;whiteSpace=wrap;html=1;aspect=fixed;hachureGap=4;fillColor=#dae8fc;strokeColor=#6c8ebf;rounded=0;fontSize=18;" parent="1" vertex="1">
          <mxGeometry x="2182.5" y="688" width="80" height="80" as="geometry" />
        </mxCell>
        <mxCell id="3wRG5uY9hwC1dV_-qFoT-65" value="a" style="text;html=1;align=center;verticalAlign=middle;resizable=0;points=[];autosize=1;strokeColor=none;fillColor=none;fontFamily=Helvetica;fontSize=18;fontColor=default;" parent="1" vertex="1">
          <mxGeometry x="2123" y="685" width="28" height="34" as="geometry" />
        </mxCell>
        <mxCell id="3wRG5uY9hwC1dV_-qFoT-69" style="edgeStyle=orthogonalEdgeStyle;rounded=0;orthogonalLoop=1;jettySize=auto;html=1;exitX=0;exitY=0;exitDx=0;exitDy=0;entryX=0.5;entryY=0;entryDx=0;entryDy=0;fontFamily=Helvetica;fontSize=18;fontColor=default;autosize=1;resizable=0;curved=1;" parent="1" source="3wRG5uY9hwC1dV_-qFoT-63" target="3wRG5uY9hwC1dV_-qFoT-63" edge="1">
          <mxGeometry relative="1" as="geometry">
            <Array as="points">
              <mxPoint x="2194" y="667" />
              <mxPoint x="2223" y="667" />
            </Array>
          </mxGeometry>
        </mxCell>
        <mxCell id="3wRG5uY9hwC1dV_-qFoT-70" value="b" style="text;html=1;align=center;verticalAlign=middle;resizable=0;points=[];autosize=1;strokeColor=none;fillColor=none;fontFamily=Helvetica;fontSize=18;fontColor=default;" parent="1" vertex="1">
          <mxGeometry x="2203" y="633" width="28" height="34" as="geometry" />
        </mxCell>
        <mxCell id="3wRG5uY9hwC1dV_-qFoT-71" value="" style="ellipse;whiteSpace=wrap;html=1;aspect=fixed;align=center;verticalAlign=middle;fontFamily=Helvetica;fontSize=18;fontColor=default;fillColor=none;gradientColor=none;strokeColor=#000000;" parent="1" vertex="1">
          <mxGeometry x="2188.5" y="694.5" width="67" height="67" as="geometry" />
        </mxCell>
        <mxCell id="3wRG5uY9hwC1dV_-qFoT-72" value="" style="ellipse;whiteSpace=wrap;html=1;aspect=fixed;align=center;verticalAlign=middle;fontFamily=Helvetica;fontSize=18;fontColor=default;fillColor=none;gradientColor=none;strokeColor=#000000;" parent="1" vertex="1">
          <mxGeometry x="2509" y="534.5" width="67" height="67" as="geometry" />
        </mxCell>
        <mxCell id="3wRG5uY9hwC1dV_-qFoT-73" value="" style="edgeStyle=orthogonalEdgeStyle;rounded=0;orthogonalLoop=1;jettySize=auto;html=1;fontFamily=Helvetica;fontSize=18;fontColor=default;" parent="1" source="3wRG5uY9hwC1dV_-qFoT-75" target="3wRG5uY9hwC1dV_-qFoT-85" edge="1">
          <mxGeometry relative="1" as="geometry" />
        </mxCell>
        <mxCell id="3wRG5uY9hwC1dV_-qFoT-173" value="" style="edgeStyle=orthogonalEdgeStyle;rounded=0;orthogonalLoop=1;jettySize=auto;html=1;fontFamily=Helvetica;fontSize=18;fontColor=default;autosize=1;resizable=0;" parent="1" source="3wRG5uY9hwC1dV_-qFoT-75" target="3wRG5uY9hwC1dV_-qFoT-172" edge="1">
          <mxGeometry relative="1" as="geometry" />
        </mxCell>
        <mxCell id="3wRG5uY9hwC1dV_-qFoT-75" value="&lt;div&gt;a0&lt;/div&gt;&lt;div&gt;b0&lt;/div&gt;" style="ellipse;whiteSpace=wrap;html=1;aspect=fixed;hachureGap=4;fillColor=#dae8fc;strokeColor=#6c8ebf;rounded=0;fontSize=18;" parent="1" vertex="1">
          <mxGeometry x="796" y="39" width="80" height="80" as="geometry" />
        </mxCell>
        <mxCell id="3wRG5uY9hwC1dV_-qFoT-76" style="edgeStyle=orthogonalEdgeStyle;rounded=0;orthogonalLoop=1;jettySize=auto;html=1;fontSize=18;entryX=0;entryY=0.5;entryDx=0;entryDy=0;" parent="1" target="3wRG5uY9hwC1dV_-qFoT-75" edge="1">
          <mxGeometry relative="1" as="geometry">
            <mxPoint x="719" y="79" as="sourcePoint" />
            <mxPoint x="760" y="-290" as="targetPoint" />
          </mxGeometry>
        </mxCell>
        <mxCell id="3wRG5uY9hwC1dV_-qFoT-83" value="" style="edgeStyle=orthogonalEdgeStyle;rounded=0;orthogonalLoop=1;jettySize=auto;html=1;fontFamily=Helvetica;fontSize=18;fontColor=default;" parent="1" source="3wRG5uY9hwC1dV_-qFoT-85" target="3wRG5uY9hwC1dV_-qFoT-91" edge="1">
          <mxGeometry relative="1" as="geometry" />
        </mxCell>
        <mxCell id="3wRG5uY9hwC1dV_-qFoT-84" style="edgeStyle=orthogonalEdgeStyle;rounded=0;orthogonalLoop=1;jettySize=auto;html=1;exitX=0.5;exitY=1;exitDx=0;exitDy=0;fontFamily=Helvetica;fontSize=18;fontColor=default;" parent="1" source="3wRG5uY9hwC1dV_-qFoT-85" target="3wRG5uY9hwC1dV_-qFoT-108" edge="1">
          <mxGeometry relative="1" as="geometry" />
        </mxCell>
        <mxCell id="3wRG5uY9hwC1dV_-qFoT-85" value="a0&lt;div&gt;b1&lt;/div&gt;" style="ellipse;whiteSpace=wrap;html=1;fontSize=18;fillColor=#dae8fc;strokeColor=#6c8ebf;hachureGap=4;rounded=0;" parent="1" vertex="1">
          <mxGeometry x="952.97" y="39" width="80" height="80" as="geometry" />
        </mxCell>
        <mxCell id="3wRG5uY9hwC1dV_-qFoT-89" value="" style="edgeStyle=orthogonalEdgeStyle;rounded=0;orthogonalLoop=1;jettySize=auto;html=1;fontFamily=Helvetica;fontSize=18;fontColor=default;entryX=0;entryY=0;entryDx=0;entryDy=0;" parent="1" source="3wRG5uY9hwC1dV_-qFoT-91" target="3wRG5uY9hwC1dV_-qFoT-75" edge="1">
          <mxGeometry relative="1" as="geometry">
            <mxPoint x="1354" y="79" as="targetPoint" />
            <Array as="points">
              <mxPoint x="1324" y="79" />
              <mxPoint x="1324" y="-67" />
              <mxPoint x="808" y="-67" />
            </Array>
          </mxGeometry>
        </mxCell>
        <mxCell id="3wRG5uY9hwC1dV_-qFoT-90" style="edgeStyle=orthogonalEdgeStyle;rounded=0;orthogonalLoop=1;jettySize=auto;html=1;exitX=0.5;exitY=1;exitDx=0;exitDy=0;fontFamily=Helvetica;fontSize=18;fontColor=default;" parent="1" source="3wRG5uY9hwC1dV_-qFoT-91" target="3wRG5uY9hwC1dV_-qFoT-111" edge="1">
          <mxGeometry relative="1" as="geometry" />
        </mxCell>
        <mxCell id="3wRG5uY9hwC1dV_-qFoT-91" value="a0&lt;div&gt;b2&lt;/div&gt;" style="ellipse;whiteSpace=wrap;html=1;fontSize=18;fillColor=#dae8fc;strokeColor=#6c8ebf;hachureGap=4;rounded=0;" parent="1" vertex="1">
          <mxGeometry x="1152" y="39" width="80" height="80" as="geometry" />
        </mxCell>
        <mxCell id="3wRG5uY9hwC1dV_-qFoT-95" value="b" style="text;html=1;align=center;verticalAlign=middle;resizable=0;points=[];autosize=1;strokeColor=none;fillColor=none;fontFamily=Helvetica;fontSize=18;fontColor=default;" parent="1" vertex="1">
          <mxGeometry x="897" y="43" width="28" height="34" as="geometry" />
        </mxCell>
        <mxCell id="3wRG5uY9hwC1dV_-qFoT-96" value="b" style="text;html=1;align=center;verticalAlign=middle;resizable=0;points=[];autosize=1;strokeColor=none;fillColor=none;fontFamily=Helvetica;fontSize=18;fontColor=default;" parent="1" vertex="1">
          <mxGeometry x="1053.97" y="43" width="28" height="34" as="geometry" />
        </mxCell>
        <mxCell id="3wRG5uY9hwC1dV_-qFoT-97" value="b" style="text;html=1;align=center;verticalAlign=middle;resizable=0;points=[];autosize=1;strokeColor=none;fillColor=none;fontFamily=Helvetica;fontSize=18;fontColor=default;" parent="1" vertex="1">
          <mxGeometry x="1235" y="45.5" width="28" height="34" as="geometry" />
        </mxCell>
        <mxCell id="3wRG5uY9hwC1dV_-qFoT-106" value="" style="edgeStyle=orthogonalEdgeStyle;rounded=0;orthogonalLoop=1;jettySize=auto;html=1;fontFamily=Helvetica;fontSize=18;fontColor=default;" parent="1" source="3wRG5uY9hwC1dV_-qFoT-108" target="3wRG5uY9hwC1dV_-qFoT-111" edge="1">
          <mxGeometry relative="1" as="geometry" />
        </mxCell>
        <mxCell id="3wRG5uY9hwC1dV_-qFoT-107" style="edgeStyle=orthogonalEdgeStyle;rounded=0;orthogonalLoop=1;jettySize=auto;html=1;entryX=0.5;entryY=0;entryDx=0;entryDy=0;fontFamily=Helvetica;fontSize=18;fontColor=default;" parent="1" source="3wRG5uY9hwC1dV_-qFoT-108" target="3wRG5uY9hwC1dV_-qFoT-119" edge="1">
          <mxGeometry relative="1" as="geometry" />
        </mxCell>
        <mxCell id="3wRG5uY9hwC1dV_-qFoT-108" value="a1&lt;div&gt;b1&lt;/div&gt;" style="ellipse;whiteSpace=wrap;html=1;fontSize=18;fillColor=#dae8fc;strokeColor=#6c8ebf;hachureGap=4;rounded=0;" parent="1" vertex="1">
          <mxGeometry x="952.97" y="183" width="80" height="80" as="geometry" />
        </mxCell>
        <mxCell id="3wRG5uY9hwC1dV_-qFoT-109" value="" style="edgeStyle=orthogonalEdgeStyle;rounded=0;orthogonalLoop=1;jettySize=auto;html=1;fontFamily=Helvetica;fontSize=18;fontColor=default;entryX=0;entryY=0.5;entryDx=0;entryDy=0;" parent="1" source="3wRG5uY9hwC1dV_-qFoT-111" target="3wRG5uY9hwC1dV_-qFoT-172" edge="1">
          <mxGeometry relative="1" as="geometry">
            <mxPoint x="1354" y="223" as="targetPoint" />
            <Array as="points">
              <mxPoint x="1353" y="223" />
              <mxPoint x="1353" y="-128" />
              <mxPoint x="776" y="-128" />
              <mxPoint x="776" y="223" />
            </Array>
          </mxGeometry>
        </mxCell>
        <mxCell id="3wRG5uY9hwC1dV_-qFoT-110" style="edgeStyle=orthogonalEdgeStyle;rounded=0;orthogonalLoop=1;jettySize=auto;html=1;fontFamily=Helvetica;fontSize=18;fontColor=default;" parent="1" source="3wRG5uY9hwC1dV_-qFoT-111" target="3wRG5uY9hwC1dV_-qFoT-122" edge="1">
          <mxGeometry relative="1" as="geometry" />
        </mxCell>
        <mxCell id="3wRG5uY9hwC1dV_-qFoT-111" value="a1&lt;div&gt;b2&lt;/div&gt;" style="ellipse;whiteSpace=wrap;html=1;fontSize=18;fillColor=#dae8fc;strokeColor=#6c8ebf;hachureGap=4;rounded=0;" parent="1" vertex="1">
          <mxGeometry x="1152" y="183" width="80" height="80" as="geometry" />
        </mxCell>
        <mxCell id="3wRG5uY9hwC1dV_-qFoT-115" value="b" style="text;html=1;align=center;verticalAlign=middle;resizable=0;points=[];autosize=1;strokeColor=none;fillColor=none;fontFamily=Helvetica;fontSize=18;fontColor=default;" parent="1" vertex="1">
          <mxGeometry x="1053.97" y="187" width="28" height="34" as="geometry" />
        </mxCell>
        <mxCell id="3wRG5uY9hwC1dV_-qFoT-116" value="b" style="text;html=1;align=center;verticalAlign=middle;resizable=0;points=[];autosize=1;strokeColor=none;fillColor=none;fontFamily=Helvetica;fontSize=18;fontColor=default;" parent="1" vertex="1">
          <mxGeometry x="1256" y="191" width="28" height="34" as="geometry" />
        </mxCell>
        <mxCell id="3wRG5uY9hwC1dV_-qFoT-117" value="" style="edgeStyle=orthogonalEdgeStyle;rounded=0;orthogonalLoop=1;jettySize=auto;html=1;fontFamily=Helvetica;fontSize=18;fontColor=default;" parent="1" source="3wRG5uY9hwC1dV_-qFoT-119" target="3wRG5uY9hwC1dV_-qFoT-122" edge="1">
          <mxGeometry relative="1" as="geometry" />
        </mxCell>
        <mxCell id="3wRG5uY9hwC1dV_-qFoT-118" style="edgeStyle=orthogonalEdgeStyle;rounded=0;orthogonalLoop=1;jettySize=auto;html=1;entryX=1;entryY=0;entryDx=0;entryDy=0;fontFamily=Helvetica;fontSize=18;fontColor=default;" parent="1" source="3wRG5uY9hwC1dV_-qFoT-119" target="3wRG5uY9hwC1dV_-qFoT-85" edge="1">
          <mxGeometry relative="1" as="geometry">
            <Array as="points">
              <mxPoint x="992" y="443" />
              <mxPoint x="1100" y="443" />
              <mxPoint x="1100" y="21" />
              <mxPoint x="1021" y="21" />
            </Array>
          </mxGeometry>
        </mxCell>
        <mxCell id="3wRG5uY9hwC1dV_-qFoT-119" value="a2&lt;div&gt;b1&lt;/div&gt;" style="ellipse;whiteSpace=wrap;html=1;fontSize=18;fillColor=#dae8fc;strokeColor=#6c8ebf;hachureGap=4;rounded=0;" parent="1" vertex="1">
          <mxGeometry x="951.97" y="339" width="80" height="80" as="geometry" />
        </mxCell>
        <mxCell id="3wRG5uY9hwC1dV_-qFoT-120" value="" style="edgeStyle=orthogonalEdgeStyle;rounded=0;orthogonalLoop=1;jettySize=auto;html=1;fontFamily=Helvetica;fontSize=18;fontColor=default;entryX=0;entryY=0.5;entryDx=0;entryDy=0;" parent="1" source="3wRG5uY9hwC1dV_-qFoT-122" target="3wRG5uY9hwC1dV_-qFoT-174" edge="1">
          <mxGeometry relative="1" as="geometry">
            <mxPoint x="1353" y="379" as="targetPoint" />
            <Array as="points">
              <mxPoint x="1352" y="379" />
              <mxPoint x="1352" y="538" />
              <mxPoint x="776" y="538" />
              <mxPoint x="776" y="379" />
            </Array>
          </mxGeometry>
        </mxCell>
        <mxCell id="3wRG5uY9hwC1dV_-qFoT-121" style="edgeStyle=orthogonalEdgeStyle;rounded=0;orthogonalLoop=1;jettySize=auto;html=1;exitX=0.5;exitY=1;exitDx=0;exitDy=0;entryX=0.5;entryY=0;entryDx=0;entryDy=0;fontFamily=Helvetica;fontSize=18;fontColor=default;" parent="1" source="3wRG5uY9hwC1dV_-qFoT-122" target="3wRG5uY9hwC1dV_-qFoT-91" edge="1">
          <mxGeometry relative="1" as="geometry">
            <Array as="points">
              <mxPoint x="1191" y="439" />
              <mxPoint x="1297" y="439" />
              <mxPoint x="1297" y="19" />
              <mxPoint x="1192" y="19" />
            </Array>
          </mxGeometry>
        </mxCell>
        <mxCell id="3wRG5uY9hwC1dV_-qFoT-122" value="a2&lt;div&gt;b2&lt;/div&gt;" style="ellipse;whiteSpace=wrap;html=1;fontSize=18;fillColor=#dae8fc;strokeColor=#6c8ebf;hachureGap=4;rounded=0;" parent="1" vertex="1">
          <mxGeometry x="1151" y="339" width="80" height="80" as="geometry" />
        </mxCell>
        <mxCell id="3wRG5uY9hwC1dV_-qFoT-126" value="b" style="text;html=1;align=center;verticalAlign=middle;resizable=0;points=[];autosize=1;strokeColor=none;fillColor=none;fontFamily=Helvetica;fontSize=18;fontColor=default;" parent="1" vertex="1">
          <mxGeometry x="1052.97" y="343" width="28" height="34" as="geometry" />
        </mxCell>
        <mxCell id="3wRG5uY9hwC1dV_-qFoT-127" value="b" style="text;html=1;align=center;verticalAlign=middle;resizable=0;points=[];autosize=1;strokeColor=none;fillColor=none;fontFamily=Helvetica;fontSize=18;fontColor=default;" parent="1" vertex="1">
          <mxGeometry x="1255" y="347" width="28" height="34" as="geometry" />
        </mxCell>
        <mxCell id="3wRG5uY9hwC1dV_-qFoT-144" style="edgeStyle=orthogonalEdgeStyle;rounded=0;orthogonalLoop=1;jettySize=auto;html=1;exitX=1;exitY=1;exitDx=0;exitDy=0;entryX=1;entryY=0.5;entryDx=0;entryDy=0;fontFamily=Helvetica;fontSize=18;fontColor=default;" parent="1" edge="1">
          <mxGeometry relative="1" as="geometry">
            <Array as="points">
              <mxPoint x="1426" y="-42" />
              <mxPoint x="1426" y="-11" />
              <mxPoint x="1624" y="-11" />
              <mxPoint x="1624" y="-460" />
            </Array>
            <mxPoint x="1434.99999999999" y="-460" as="targetPoint" />
          </mxGeometry>
        </mxCell>
        <mxCell id="3wRG5uY9hwC1dV_-qFoT-152" value="a" style="text;html=1;align=center;verticalAlign=middle;resizable=0;points=[];autosize=1;strokeColor=none;fillColor=none;fontFamily=Helvetica;fontSize=18;fontColor=default;" parent="1" vertex="1">
          <mxGeometry x="992.97" y="130" width="28" height="34" as="geometry" />
        </mxCell>
        <mxCell id="3wRG5uY9hwC1dV_-qFoT-153" value="a" style="text;html=1;align=center;verticalAlign=middle;resizable=0;points=[];autosize=1;strokeColor=none;fillColor=none;fontFamily=Helvetica;fontSize=18;fontColor=default;" parent="1" vertex="1">
          <mxGeometry x="997.97" y="284" width="28" height="34" as="geometry" />
        </mxCell>
        <mxCell id="3wRG5uY9hwC1dV_-qFoT-154" value="a" style="text;html=1;align=center;verticalAlign=middle;resizable=0;points=[];autosize=1;strokeColor=none;fillColor=none;fontFamily=Helvetica;fontSize=18;fontColor=default;" parent="1" vertex="1">
          <mxGeometry x="1196" y="130" width="28" height="34" as="geometry" />
        </mxCell>
        <mxCell id="3wRG5uY9hwC1dV_-qFoT-155" value="a" style="text;html=1;align=center;verticalAlign=middle;resizable=0;points=[];autosize=1;strokeColor=none;fillColor=none;fontFamily=Helvetica;fontSize=18;fontColor=default;" parent="1" vertex="1">
          <mxGeometry x="1196" y="284" width="28" height="34" as="geometry" />
        </mxCell>
        <mxCell id="3wRG5uY9hwC1dV_-qFoT-158" value="a" style="text;html=1;align=center;verticalAlign=middle;resizable=0;points=[];autosize=1;strokeColor=none;fillColor=none;fontFamily=Helvetica;fontSize=18;fontColor=default;" parent="1" vertex="1">
          <mxGeometry x="1191" y="451" width="28" height="34" as="geometry" />
        </mxCell>
        <mxCell id="3wRG5uY9hwC1dV_-qFoT-159" value="a" style="text;html=1;align=center;verticalAlign=middle;resizable=0;points=[];autosize=1;strokeColor=none;fillColor=none;fontFamily=Helvetica;fontSize=18;fontColor=default;" parent="1" vertex="1">
          <mxGeometry x="1002" y="453" width="28" height="34" as="geometry" />
        </mxCell>
        <mxCell id="3wRG5uY9hwC1dV_-qFoT-175" value="" style="edgeStyle=orthogonalEdgeStyle;rounded=0;orthogonalLoop=1;jettySize=auto;html=1;fontFamily=Helvetica;fontSize=18;fontColor=default;autosize=1;resizable=0;" parent="1" source="3wRG5uY9hwC1dV_-qFoT-172" target="3wRG5uY9hwC1dV_-qFoT-174" edge="1">
          <mxGeometry relative="1" as="geometry" />
        </mxCell>
        <mxCell id="3wRG5uY9hwC1dV_-qFoT-178" style="edgeStyle=orthogonalEdgeStyle;rounded=0;orthogonalLoop=1;jettySize=auto;html=1;entryX=0;entryY=0.5;entryDx=0;entryDy=0;fontFamily=Helvetica;fontSize=18;fontColor=default;autosize=1;resizable=0;" parent="1" source="3wRG5uY9hwC1dV_-qFoT-172" target="3wRG5uY9hwC1dV_-qFoT-108" edge="1">
          <mxGeometry relative="1" as="geometry" />
        </mxCell>
        <mxCell id="3wRG5uY9hwC1dV_-qFoT-172" value="&lt;div&gt;a1&lt;/div&gt;&lt;div&gt;b0&lt;/div&gt;" style="ellipse;whiteSpace=wrap;html=1;aspect=fixed;hachureGap=4;fillColor=#dae8fc;strokeColor=#6c8ebf;rounded=0;fontSize=18;" parent="1" vertex="1">
          <mxGeometry x="796" y="183" width="80" height="80" as="geometry" />
        </mxCell>
        <mxCell id="3wRG5uY9hwC1dV_-qFoT-179" style="edgeStyle=orthogonalEdgeStyle;rounded=0;orthogonalLoop=1;jettySize=auto;html=1;entryX=0;entryY=0.5;entryDx=0;entryDy=0;fontFamily=Helvetica;fontSize=18;fontColor=default;autosize=1;resizable=0;" parent="1" source="3wRG5uY9hwC1dV_-qFoT-174" target="3wRG5uY9hwC1dV_-qFoT-119" edge="1">
          <mxGeometry relative="1" as="geometry" />
        </mxCell>
        <mxCell id="3wRG5uY9hwC1dV_-qFoT-184" style="edgeStyle=orthogonalEdgeStyle;rounded=0;orthogonalLoop=1;jettySize=auto;html=1;entryX=0.5;entryY=0;entryDx=0;entryDy=0;fontFamily=Helvetica;fontSize=18;fontColor=default;autosize=1;resizable=0;" parent="1" source="3wRG5uY9hwC1dV_-qFoT-174" target="3wRG5uY9hwC1dV_-qFoT-75" edge="1">
          <mxGeometry relative="1" as="geometry">
            <Array as="points">
              <mxPoint x="836" y="453" />
              <mxPoint x="928" y="453" />
              <mxPoint x="928" y="19" />
              <mxPoint x="836" y="19" />
            </Array>
          </mxGeometry>
        </mxCell>
        <mxCell id="3wRG5uY9hwC1dV_-qFoT-174" value="&lt;div&gt;a2&lt;/div&gt;&lt;div&gt;b0&lt;/div&gt;" style="ellipse;whiteSpace=wrap;html=1;aspect=fixed;hachureGap=4;fillColor=#dae8fc;strokeColor=#6c8ebf;rounded=0;fontSize=18;" parent="1" vertex="1">
          <mxGeometry x="796" y="339" width="80" height="80" as="geometry" />
        </mxCell>
        <mxCell id="3wRG5uY9hwC1dV_-qFoT-180" value="b" style="text;html=1;align=center;verticalAlign=middle;resizable=0;points=[];autosize=1;strokeColor=none;fillColor=none;fontFamily=Helvetica;fontSize=18;fontColor=default;" parent="1" vertex="1">
          <mxGeometry x="899" y="182" width="28" height="34" as="geometry" />
        </mxCell>
        <mxCell id="3wRG5uY9hwC1dV_-qFoT-181" value="b" style="text;html=1;align=center;verticalAlign=middle;resizable=0;points=[];autosize=1;strokeColor=none;fillColor=none;fontFamily=Helvetica;fontSize=18;fontColor=default;" parent="1" vertex="1">
          <mxGeometry x="896" y="346" width="28" height="34" as="geometry" />
        </mxCell>
        <mxCell id="3wRG5uY9hwC1dV_-qFoT-182" value="a" style="text;html=1;align=center;verticalAlign=middle;resizable=0;points=[];autosize=1;strokeColor=none;fillColor=none;fontFamily=Helvetica;fontSize=18;fontColor=default;" parent="1" vertex="1">
          <mxGeometry x="808" y="128" width="28" height="34" as="geometry" />
        </mxCell>
        <mxCell id="3wRG5uY9hwC1dV_-qFoT-183" value="a" style="text;html=1;align=center;verticalAlign=middle;resizable=0;points=[];autosize=1;strokeColor=none;fillColor=none;fontFamily=Helvetica;fontSize=18;fontColor=default;" parent="1" vertex="1">
          <mxGeometry x="806" y="286" width="28" height="34" as="geometry" />
        </mxCell>
        <mxCell id="3wRG5uY9hwC1dV_-qFoT-185" value="a" style="text;html=1;align=center;verticalAlign=middle;resizable=0;points=[];autosize=1;strokeColor=none;fillColor=none;fontFamily=Helvetica;fontSize=18;fontColor=default;" parent="1" vertex="1">
          <mxGeometry x="837" y="457" width="28" height="34" as="geometry" />
        </mxCell>
        <mxCell id="3wRG5uY9hwC1dV_-qFoT-189" value="" style="ellipse;whiteSpace=wrap;html=1;aspect=fixed;align=center;verticalAlign=middle;fontFamily=Helvetica;fontSize=18;fontColor=default;fillColor=none;gradientColor=none;strokeColor=#000000;" parent="1" vertex="1">
          <mxGeometry x="802.5" y="191" width="67" height="67" as="geometry" />
        </mxCell>
        <mxCell id="3wRG5uY9hwC1dV_-qFoT-190" value="" style="ellipse;whiteSpace=wrap;html=1;aspect=fixed;align=center;verticalAlign=middle;fontFamily=Helvetica;fontSize=18;fontColor=default;fillColor=none;gradientColor=none;strokeColor=#000000;" parent="1" vertex="1">
          <mxGeometry x="802.5" y="346" width="67" height="67" as="geometry" />
        </mxCell>
        <mxCell id="3wRG5uY9hwC1dV_-qFoT-191" value="" style="ellipse;whiteSpace=wrap;html=1;aspect=fixed;align=center;verticalAlign=middle;fontFamily=Helvetica;fontSize=18;fontColor=default;fillColor=none;gradientColor=none;strokeColor=#000000;" parent="1" vertex="1">
          <mxGeometry x="959.47" y="346" width="67" height="67" as="geometry" />
        </mxCell>
        <mxCell id="3wRG5uY9hwC1dV_-qFoT-195" value="" style="edgeStyle=orthogonalEdgeStyle;rounded=0;orthogonalLoop=1;jettySize=auto;html=1;fontFamily=Helvetica;fontSize=18;fontColor=default;autosize=1;resizable=0;" parent="1" source="3wRG5uY9hwC1dV_-qFoT-193" target="3wRG5uY9hwC1dV_-qFoT-194" edge="1">
          <mxGeometry relative="1" as="geometry" />
        </mxCell>
        <mxCell id="3wRG5uY9hwC1dV_-qFoT-197" value="" style="edgeStyle=orthogonalEdgeStyle;rounded=0;orthogonalLoop=1;jettySize=auto;html=1;fontFamily=Helvetica;fontSize=18;fontColor=default;autosize=1;resizable=0;" parent="1" source="3wRG5uY9hwC1dV_-qFoT-193" target="3wRG5uY9hwC1dV_-qFoT-196" edge="1">
          <mxGeometry relative="1" as="geometry" />
        </mxCell>
        <mxCell id="3wRG5uY9hwC1dV_-qFoT-199" value="" style="edgeStyle=orthogonalEdgeStyle;rounded=0;orthogonalLoop=1;jettySize=auto;html=1;fontFamily=Helvetica;fontSize=18;fontColor=default;autosize=1;resizable=0;" parent="1" source="3wRG5uY9hwC1dV_-qFoT-193" target="3wRG5uY9hwC1dV_-qFoT-198" edge="1">
          <mxGeometry relative="1" as="geometry" />
        </mxCell>
        <mxCell id="3wRG5uY9hwC1dV_-qFoT-193" value="S" style="ellipse;whiteSpace=wrap;html=1;fontSize=18;fillColor=#dae8fc;strokeColor=#6c8ebf;hachureGap=4;rounded=0;" parent="1" vertex="1">
          <mxGeometry x="997.97" y="587" width="80" height="80" as="geometry" />
        </mxCell>
        <mxCell id="3wRG5uY9hwC1dV_-qFoT-205" value="" style="edgeStyle=orthogonalEdgeStyle;rounded=0;orthogonalLoop=1;jettySize=auto;html=1;fontFamily=Helvetica;fontSize=18;fontColor=default;autosize=1;resizable=0;" parent="1" source="3wRG5uY9hwC1dV_-qFoT-194" target="3wRG5uY9hwC1dV_-qFoT-204" edge="1">
          <mxGeometry relative="1" as="geometry" />
        </mxCell>
        <mxCell id="3wRG5uY9hwC1dV_-qFoT-194" value="S" style="ellipse;whiteSpace=wrap;html=1;fontSize=18;fillColor=#dae8fc;strokeColor=#6c8ebf;hachureGap=4;rounded=0;" parent="1" vertex="1">
          <mxGeometry x="1116" y="737" width="80" height="80" as="geometry" />
        </mxCell>
        <mxCell id="3wRG5uY9hwC1dV_-qFoT-196" value="a" style="whiteSpace=wrap;html=1;fontSize=18;fillColor=#dae8fc;strokeColor=#6c8ebf;hachureGap=4;rounded=0;" parent="1" vertex="1">
          <mxGeometry x="881.02" y="745" width="57.97" height="60" as="geometry" />
        </mxCell>
        <mxCell id="3wRG5uY9hwC1dV_-qFoT-198" value="b" style="whiteSpace=wrap;html=1;fontSize=18;fillColor=#dae8fc;strokeColor=#6c8ebf;hachureGap=4;rounded=0;" parent="1" vertex="1">
          <mxGeometry x="1006.46" y="745" width="63.01" height="60" as="geometry" />
        </mxCell>
        <mxCell id="3wRG5uY9hwC1dV_-qFoT-207" value="" style="edgeStyle=orthogonalEdgeStyle;rounded=0;orthogonalLoop=1;jettySize=auto;html=1;fontFamily=Helvetica;fontSize=18;fontColor=default;autosize=1;resizable=0;" parent="1" source="3wRG5uY9hwC1dV_-qFoT-204" target="3wRG5uY9hwC1dV_-qFoT-206" edge="1">
          <mxGeometry relative="1" as="geometry" />
        </mxCell>
        <mxCell id="3wRG5uY9hwC1dV_-qFoT-209" value="" style="edgeStyle=orthogonalEdgeStyle;rounded=0;orthogonalLoop=1;jettySize=auto;html=1;fontFamily=Helvetica;fontSize=18;fontColor=default;autosize=1;resizable=0;" parent="1" source="3wRG5uY9hwC1dV_-qFoT-204" target="3wRG5uY9hwC1dV_-qFoT-208" edge="1">
          <mxGeometry relative="1" as="geometry" />
        </mxCell>
        <mxCell id="3wRG5uY9hwC1dV_-qFoT-211" value="" style="edgeStyle=orthogonalEdgeStyle;rounded=0;orthogonalLoop=1;jettySize=auto;html=1;fontFamily=Helvetica;fontSize=18;fontColor=default;autosize=1;resizable=0;" parent="1" source="3wRG5uY9hwC1dV_-qFoT-204" target="3wRG5uY9hwC1dV_-qFoT-210" edge="1">
          <mxGeometry relative="1" as="geometry" />
        </mxCell>
        <mxCell id="3wRG5uY9hwC1dV_-qFoT-204" value="A" style="ellipse;whiteSpace=wrap;html=1;fontSize=18;fillColor=#dae8fc;strokeColor=#6c8ebf;hachureGap=4;rounded=0;" parent="1" vertex="1">
          <mxGeometry x="1116" y="897" width="80" height="80" as="geometry" />
        </mxCell>
        <mxCell id="3wRG5uY9hwC1dV_-qFoT-206" value="b" style="whiteSpace=wrap;html=1;fontSize=18;fillColor=#dae8fc;strokeColor=#6c8ebf;hachureGap=4;rounded=0;" parent="1" vertex="1">
          <mxGeometry x="1012.7" y="1043" width="50.54" height="60" as="geometry" />
        </mxCell>
        <mxCell id="3wRG5uY9hwC1dV_-qFoT-208" value="a" style="whiteSpace=wrap;html=1;fontSize=18;fillColor=#dae8fc;strokeColor=#6c8ebf;hachureGap=4;rounded=0;" parent="1" vertex="1">
          <mxGeometry x="1126.5" y="1043" width="59" height="60" as="geometry" />
        </mxCell>
        <mxCell id="3wRG5uY9hwC1dV_-qFoT-213" style="edgeStyle=orthogonalEdgeStyle;rounded=0;orthogonalLoop=1;jettySize=auto;html=1;entryX=0.5;entryY=0;entryDx=0;entryDy=0;fontFamily=Helvetica;fontSize=18;fontColor=default;autosize=1;resizable=0;" parent="1" source="3wRG5uY9hwC1dV_-qFoT-210" target="3wRG5uY9hwC1dV_-qFoT-212" edge="1">
          <mxGeometry relative="1" as="geometry" />
        </mxCell>
        <mxCell id="3wRG5uY9hwC1dV_-qFoT-215" value="" style="edgeStyle=orthogonalEdgeStyle;rounded=0;orthogonalLoop=1;jettySize=auto;html=1;fontFamily=Helvetica;fontSize=18;fontColor=default;autosize=1;resizable=0;" parent="1" source="3wRG5uY9hwC1dV_-qFoT-210" target="3wRG5uY9hwC1dV_-qFoT-214" edge="1">
          <mxGeometry relative="1" as="geometry" />
        </mxCell>
        <mxCell id="3wRG5uY9hwC1dV_-qFoT-210" value="B" style="ellipse;whiteSpace=wrap;html=1;fontSize=18;fillColor=#dae8fc;strokeColor=#6c8ebf;hachureGap=4;rounded=0;" parent="1" vertex="1">
          <mxGeometry x="1249" y="1033" width="80" height="80" as="geometry" />
        </mxCell>
        <mxCell id="3wRG5uY9hwC1dV_-qFoT-212" value="a" style="whiteSpace=wrap;html=1;fontSize=18;fillColor=#dae8fc;strokeColor=#6c8ebf;hachureGap=4;rounded=0;" parent="1" vertex="1">
          <mxGeometry x="1176" y="1138" width="59" height="60" as="geometry" />
        </mxCell>
        <mxCell id="3wRG5uY9hwC1dV_-qFoT-214" value="A" style="ellipse;whiteSpace=wrap;html=1;fontSize=18;fillColor=#dae8fc;strokeColor=#6c8ebf;hachureGap=4;rounded=0;" parent="1" vertex="1">
          <mxGeometry x="1249" y="1169" width="80" height="80" as="geometry" />
        </mxCell>
        <mxCell id="3wRG5uY9hwC1dV_-qFoT-221" value="" style="edgeStyle=orthogonalEdgeStyle;rounded=0;orthogonalLoop=1;jettySize=auto;html=1;fontFamily=Helvetica;fontSize=18;fontColor=default;autosize=1;resizable=0;" parent="1" source="3wRG5uY9hwC1dV_-qFoT-224" target="3wRG5uY9hwC1dV_-qFoT-225" edge="1">
          <mxGeometry relative="1" as="geometry" />
        </mxCell>
        <mxCell id="3wRG5uY9hwC1dV_-qFoT-222" value="" style="edgeStyle=orthogonalEdgeStyle;rounded=0;orthogonalLoop=1;jettySize=auto;html=1;fontFamily=Helvetica;fontSize=18;fontColor=default;autosize=1;resizable=0;" parent="1" source="3wRG5uY9hwC1dV_-qFoT-224" target="3wRG5uY9hwC1dV_-qFoT-226" edge="1">
          <mxGeometry relative="1" as="geometry" />
        </mxCell>
        <mxCell id="3wRG5uY9hwC1dV_-qFoT-223" value="" style="edgeStyle=orthogonalEdgeStyle;rounded=0;orthogonalLoop=1;jettySize=auto;html=1;fontFamily=Helvetica;fontSize=18;fontColor=default;autosize=1;resizable=0;" parent="1" source="3wRG5uY9hwC1dV_-qFoT-224" target="3wRG5uY9hwC1dV_-qFoT-227" edge="1">
          <mxGeometry relative="1" as="geometry" />
        </mxCell>
        <mxCell id="3wRG5uY9hwC1dV_-qFoT-224" value="A" style="ellipse;whiteSpace=wrap;html=1;fontSize=18;fillColor=#dae8fc;strokeColor=#6c8ebf;hachureGap=4;rounded=0;" parent="1" vertex="1">
          <mxGeometry x="1249.3" y="1169" width="80" height="80" as="geometry" />
        </mxCell>
        <mxCell id="3wRG5uY9hwC1dV_-qFoT-225" value="b" style="whiteSpace=wrap;html=1;fontSize=18;fillColor=#dae8fc;strokeColor=#6c8ebf;hachureGap=4;rounded=0;" parent="1" vertex="1">
          <mxGeometry x="1146" y="1315" width="50.54" height="60" as="geometry" />
        </mxCell>
        <mxCell id="3wRG5uY9hwC1dV_-qFoT-226" value="a" style="whiteSpace=wrap;html=1;fontSize=18;fillColor=#dae8fc;strokeColor=#6c8ebf;hachureGap=4;rounded=0;" parent="1" vertex="1">
          <mxGeometry x="1259.8" y="1315" width="59" height="60" as="geometry" />
        </mxCell>
        <mxCell id="3wRG5uY9hwC1dV_-qFoT-227" value="B" style="ellipse;whiteSpace=wrap;html=1;fontSize=18;fillColor=#dae8fc;strokeColor=#6c8ebf;hachureGap=4;rounded=0;" parent="1" vertex="1">
          <mxGeometry x="1382.3" y="1305" width="80" height="80" as="geometry" />
        </mxCell>
        <mxCell id="3wRG5uY9hwC1dV_-qFoT-228" value="" style="edgeStyle=orthogonalEdgeStyle;rounded=0;orthogonalLoop=1;jettySize=auto;html=1;fontFamily=Helvetica;fontSize=18;fontColor=default;autosize=1;resizable=0;entryX=0.5;entryY=0;entryDx=0;entryDy=0;" parent="1" target="3wRG5uY9hwC1dV_-qFoT-230" edge="1">
          <mxGeometry relative="1" as="geometry">
            <mxPoint x="1382" y="1346" as="sourcePoint" />
            <Array as="points">
              <mxPoint x="1382" y="1347" />
              <mxPoint x="1353" y="1347" />
              <mxPoint x="1353" y="1430" />
              <mxPoint x="1304" y="1430" />
            </Array>
          </mxGeometry>
        </mxCell>
        <mxCell id="3wRG5uY9hwC1dV_-qFoT-229" value="" style="edgeStyle=orthogonalEdgeStyle;rounded=0;orthogonalLoop=1;jettySize=auto;html=1;fontFamily=Helvetica;fontSize=18;fontColor=default;autosize=1;resizable=0;" parent="1" target="3wRG5uY9hwC1dV_-qFoT-231" edge="1">
          <mxGeometry relative="1" as="geometry">
            <mxPoint x="1422" y="1386" as="sourcePoint" />
          </mxGeometry>
        </mxCell>
        <mxCell id="3wRG5uY9hwC1dV_-qFoT-230" value="b" style="whiteSpace=wrap;html=1;fontSize=18;fillColor=#dae8fc;strokeColor=#6c8ebf;hachureGap=4;rounded=0;" parent="1" vertex="1">
          <mxGeometry x="1279" y="1452" width="50.54" height="60" as="geometry" />
        </mxCell>
        <mxCell id="3wRG5uY9hwC1dV_-qFoT-231" value="b" style="whiteSpace=wrap;html=1;fontSize=18;fillColor=#dae8fc;strokeColor=#6c8ebf;hachureGap=4;rounded=0;" parent="1" vertex="1">
          <mxGeometry x="1392.8" y="1452" width="59" height="60" as="geometry" />
        </mxCell>
        <mxCell id="3wRG5uY9hwC1dV_-qFoT-235" value="" style="edgeStyle=orthogonalEdgeStyle;rounded=0;orthogonalLoop=1;jettySize=auto;html=1;fontFamily=Helvetica;fontSize=18;fontColor=default;autosize=1;resizable=0;" parent="1" source="3wRG5uY9hwC1dV_-qFoT-232" target="3wRG5uY9hwC1dV_-qFoT-234" edge="1">
          <mxGeometry relative="1" as="geometry" />
        </mxCell>
        <mxCell id="3wRG5uY9hwC1dV_-qFoT-243" value="" style="edgeStyle=orthogonalEdgeStyle;rounded=0;orthogonalLoop=1;jettySize=auto;html=1;fontFamily=Helvetica;fontSize=18;fontColor=default;autosize=1;resizable=0;" parent="1" source="3wRG5uY9hwC1dV_-qFoT-232" target="3wRG5uY9hwC1dV_-qFoT-242" edge="1">
          <mxGeometry relative="1" as="geometry" />
        </mxCell>
        <mxCell id="3wRG5uY9hwC1dV_-qFoT-248" style="rounded=0;orthogonalLoop=1;jettySize=auto;html=1;exitX=1;exitY=1;exitDx=0;exitDy=0;entryX=0;entryY=0;entryDx=0;entryDy=0;fontFamily=Helvetica;fontSize=18;fontColor=default;autosize=1;resizable=0;" parent="1" source="3wRG5uY9hwC1dV_-qFoT-232" target="3wRG5uY9hwC1dV_-qFoT-245" edge="1">
          <mxGeometry relative="1" as="geometry" />
        </mxCell>
        <mxCell id="3wRG5uY9hwC1dV_-qFoT-232" value="S" style="ellipse;whiteSpace=wrap;html=1;aspect=fixed;hachureGap=4;fillColor=#dae8fc;strokeColor=#6c8ebf;rounded=0;fontSize=18;" parent="1" vertex="1">
          <mxGeometry x="2429" y="22.5" width="80" height="80" as="geometry" />
        </mxCell>
        <mxCell id="3wRG5uY9hwC1dV_-qFoT-233" style="edgeStyle=orthogonalEdgeStyle;rounded=0;orthogonalLoop=1;jettySize=auto;html=1;fontSize=18;entryX=0;entryY=0.5;entryDx=0;entryDy=0;" parent="1" target="3wRG5uY9hwC1dV_-qFoT-232" edge="1">
          <mxGeometry relative="1" as="geometry">
            <mxPoint x="2352" y="62.5" as="sourcePoint" />
            <mxPoint x="2393" y="-306.5" as="targetPoint" />
          </mxGeometry>
        </mxCell>
        <mxCell id="3wRG5uY9hwC1dV_-qFoT-238" value="" style="edgeStyle=orthogonalEdgeStyle;rounded=0;orthogonalLoop=1;jettySize=auto;html=1;fontFamily=Helvetica;fontSize=18;fontColor=default;autosize=1;resizable=0;" parent="1" source="3wRG5uY9hwC1dV_-qFoT-234" target="3wRG5uY9hwC1dV_-qFoT-237" edge="1">
          <mxGeometry relative="1" as="geometry" />
        </mxCell>
        <mxCell id="3wRG5uY9hwC1dV_-qFoT-234" value="" style="ellipse;whiteSpace=wrap;html=1;aspect=fixed;hachureGap=4;fillColor=#dae8fc;strokeColor=#6c8ebf;rounded=0;fontSize=18;" parent="1" vertex="1">
          <mxGeometry x="2589" y="22.5" width="80" height="80" as="geometry" />
        </mxCell>
        <mxCell id="3wRG5uY9hwC1dV_-qFoT-236" value="a" style="text;html=1;align=center;verticalAlign=middle;resizable=0;points=[];autosize=1;strokeColor=none;fillColor=none;fontFamily=Helvetica;fontSize=18;fontColor=default;" parent="1" vertex="1">
          <mxGeometry x="2541" y="24" width="28" height="34" as="geometry" />
        </mxCell>
        <mxCell id="3wRG5uY9hwC1dV_-qFoT-240" style="edgeStyle=orthogonalEdgeStyle;rounded=0;orthogonalLoop=1;jettySize=auto;html=1;entryX=0.5;entryY=0;entryDx=0;entryDy=0;fontFamily=Helvetica;fontSize=18;fontColor=default;autosize=1;resizable=0;" parent="1" source="3wRG5uY9hwC1dV_-qFoT-237" target="3wRG5uY9hwC1dV_-qFoT-232" edge="1">
          <mxGeometry relative="1" as="geometry">
            <Array as="points">
              <mxPoint x="2789" y="-77" />
              <mxPoint x="2469" y="-77" />
            </Array>
          </mxGeometry>
        </mxCell>
        <mxCell id="3wRG5uY9hwC1dV_-qFoT-237" value="" style="ellipse;whiteSpace=wrap;html=1;aspect=fixed;hachureGap=4;fillColor=#dae8fc;strokeColor=#6c8ebf;rounded=0;fontSize=18;" parent="1" vertex="1">
          <mxGeometry x="2749" y="22.5" width="80" height="80" as="geometry" />
        </mxCell>
        <mxCell id="3wRG5uY9hwC1dV_-qFoT-239" value="a" style="text;html=1;align=center;verticalAlign=middle;resizable=0;points=[];autosize=1;strokeColor=none;fillColor=none;fontFamily=Helvetica;fontSize=18;fontColor=default;" parent="1" vertex="1">
          <mxGeometry x="2697" y="26" width="28" height="34" as="geometry" />
        </mxCell>
        <mxCell id="3wRG5uY9hwC1dV_-qFoT-241" value="ε" style="text;html=1;align=center;verticalAlign=middle;resizable=0;points=[];autosize=1;strokeColor=none;fillColor=none;fontFamily=Helvetica;fontSize=18;fontColor=default;" parent="1" vertex="1">
          <mxGeometry x="2556.5" y="-117" width="26" height="34" as="geometry" />
        </mxCell>
        <mxCell id="3wRG5uY9hwC1dV_-qFoT-246" value="" style="edgeStyle=orthogonalEdgeStyle;rounded=0;orthogonalLoop=1;jettySize=auto;html=1;fontFamily=Helvetica;fontSize=18;fontColor=default;autosize=1;resizable=0;" parent="1" source="3wRG5uY9hwC1dV_-qFoT-242" target="3wRG5uY9hwC1dV_-qFoT-245" edge="1">
          <mxGeometry relative="1" as="geometry" />
        </mxCell>
        <mxCell id="3wRG5uY9hwC1dV_-qFoT-242" value="A" style="ellipse;whiteSpace=wrap;html=1;aspect=fixed;hachureGap=4;fillColor=#dae8fc;strokeColor=#6c8ebf;rounded=0;fontSize=18;" parent="1" vertex="1">
          <mxGeometry x="2429" y="202" width="80" height="80" as="geometry" />
        </mxCell>
        <mxCell id="3wRG5uY9hwC1dV_-qFoT-244" value="ε" style="text;html=1;align=center;verticalAlign=middle;resizable=0;points=[];autosize=1;strokeColor=none;fillColor=none;fontFamily=Helvetica;fontSize=18;fontColor=default;" parent="1" vertex="1">
          <mxGeometry x="2438" y="127" width="26" height="34" as="geometry" />
        </mxCell>
        <mxCell id="3wRG5uY9hwC1dV_-qFoT-251" style="edgeStyle=orthogonalEdgeStyle;rounded=0;orthogonalLoop=1;jettySize=auto;html=1;entryX=0;entryY=1;entryDx=0;entryDy=0;fontFamily=Helvetica;fontSize=18;fontColor=default;autosize=1;resizable=0;" parent="1" source="3wRG5uY9hwC1dV_-qFoT-245" target="3wRG5uY9hwC1dV_-qFoT-232" edge="1">
          <mxGeometry relative="1" as="geometry">
            <Array as="points">
              <mxPoint x="2629" y="310" />
              <mxPoint x="2409" y="310" />
              <mxPoint x="2409" y="91" />
            </Array>
          </mxGeometry>
        </mxCell>
        <mxCell id="3wRG5uY9hwC1dV_-qFoT-253" style="edgeStyle=orthogonalEdgeStyle;rounded=0;orthogonalLoop=1;jettySize=auto;html=1;exitX=0;exitY=1;exitDx=0;exitDy=0;entryX=1;entryY=1;entryDx=0;entryDy=0;fontFamily=Helvetica;fontSize=18;fontColor=default;autosize=1;resizable=0;" parent="1" source="3wRG5uY9hwC1dV_-qFoT-245" target="3wRG5uY9hwC1dV_-qFoT-242" edge="1">
          <mxGeometry relative="1" as="geometry" />
        </mxCell>
        <mxCell id="3wRG5uY9hwC1dV_-qFoT-245" value="B" style="ellipse;whiteSpace=wrap;html=1;aspect=fixed;hachureGap=4;fillColor=#dae8fc;strokeColor=#6c8ebf;rounded=0;fontSize=18;" parent="1" vertex="1">
          <mxGeometry x="2589" y="202" width="80" height="80" as="geometry" />
        </mxCell>
        <mxCell id="3wRG5uY9hwC1dV_-qFoT-247" value="b" style="text;html=1;align=center;verticalAlign=middle;resizable=0;points=[];autosize=1;strokeColor=none;fillColor=none;fontFamily=Helvetica;fontSize=18;fontColor=default;" parent="1" vertex="1">
          <mxGeometry x="2531" y="202" width="28" height="34" as="geometry" />
        </mxCell>
        <mxCell id="3wRG5uY9hwC1dV_-qFoT-249" value="a" style="text;html=1;align=center;verticalAlign=middle;resizable=0;points=[];autosize=1;strokeColor=none;fillColor=none;fontFamily=Helvetica;fontSize=18;fontColor=default;" parent="1" vertex="1">
          <mxGeometry x="2545" y="116" width="28" height="34" as="geometry" />
        </mxCell>
        <mxCell id="3wRG5uY9hwC1dV_-qFoT-250" value="" style="ellipse;whiteSpace=wrap;html=1;aspect=fixed;align=center;verticalAlign=middle;fontFamily=Helvetica;fontSize=18;fontColor=default;fillColor=none;gradientColor=none;strokeColor=#000000;" parent="1" vertex="1">
          <mxGeometry x="2435.5" y="208.5" width="67" height="67" as="geometry" />
        </mxCell>
        <mxCell id="3wRG5uY9hwC1dV_-qFoT-252" value="b" style="text;html=1;align=center;verticalAlign=middle;resizable=0;points=[];autosize=1;strokeColor=none;fillColor=none;fontFamily=Helvetica;fontSize=18;fontColor=default;" parent="1" vertex="1">
          <mxGeometry x="2627" y="296" width="28" height="34" as="geometry" />
        </mxCell>
        <mxCell id="3wRG5uY9hwC1dV_-qFoT-254" value="a" style="text;html=1;align=center;verticalAlign=middle;resizable=0;points=[];autosize=1;strokeColor=none;fillColor=none;fontFamily=Helvetica;fontSize=18;fontColor=default;" parent="1" vertex="1">
          <mxGeometry x="2520" y="263" width="28" height="34" as="geometry" />
        </mxCell>
        <mxCell id="xx7hqxhj-xAlLwmsFqic-31" value="" style="rounded=0;orthogonalLoop=1;jettySize=auto;html=1;fontFamily=Helvetica;fontSize=18;fontColor=default;autosize=1;resizable=0;" parent="1" source="xx7hqxhj-xAlLwmsFqic-34" target="xx7hqxhj-xAlLwmsFqic-35" edge="1">
          <mxGeometry relative="1" as="geometry" />
        </mxCell>
        <mxCell id="xx7hqxhj-xAlLwmsFqic-32" value="" style="rounded=0;orthogonalLoop=1;jettySize=auto;html=1;fontFamily=Helvetica;fontSize=18;fontColor=default;autosize=1;resizable=0;" parent="1" source="xx7hqxhj-xAlLwmsFqic-34" edge="1">
          <mxGeometry relative="1" as="geometry">
            <mxPoint x="831" y="1858" as="targetPoint" />
          </mxGeometry>
        </mxCell>
        <mxCell id="xx7hqxhj-xAlLwmsFqic-33" value="" style="edgeStyle=orthogonalEdgeStyle;rounded=0;orthogonalLoop=1;jettySize=auto;html=1;fontFamily=Helvetica;fontSize=18;fontColor=default;autosize=1;resizable=0;" parent="1" source="xx7hqxhj-xAlLwmsFqic-34" edge="1">
          <mxGeometry relative="1" as="geometry">
            <mxPoint x="933.9000000000001" y="1865" as="targetPoint" />
          </mxGeometry>
        </mxCell>
        <mxCell id="xx7hqxhj-xAlLwmsFqic-34" value="S" style="ellipse;whiteSpace=wrap;html=1;fontSize=18;fillColor=#dae8fc;strokeColor=#6c8ebf;hachureGap=4;rounded=0;" parent="1" vertex="1">
          <mxGeometry x="893.95" y="1707" width="80" height="80" as="geometry" />
        </mxCell>
        <mxCell id="xx7hqxhj-xAlLwmsFqic-35" value="C" style="ellipse;whiteSpace=wrap;html=1;fontSize=18;fillColor=#dae8fc;strokeColor=#6c8ebf;hachureGap=4;rounded=0;" parent="1" vertex="1">
          <mxGeometry x="1012.7" y="1866" width="80" height="80" as="geometry" />
        </mxCell>
        <mxCell id="xx7hqxhj-xAlLwmsFqic-38" value="B" style="ellipse;whiteSpace=wrap;html=1;fontSize=18;fillColor=#dae8fc;strokeColor=#6c8ebf;hachureGap=4;rounded=0;" parent="1" vertex="1">
          <mxGeometry x="893.95" y="1863" width="80" height="80" as="geometry" />
        </mxCell>
        <mxCell id="xx7hqxhj-xAlLwmsFqic-39" value="A" style="ellipse;whiteSpace=wrap;html=1;fontSize=18;fillColor=#dae8fc;strokeColor=#6c8ebf;hachureGap=4;rounded=0;" parent="1" vertex="1">
          <mxGeometry x="780" y="1859" width="80" height="80" as="geometry" />
        </mxCell>
        <mxCell id="xx7hqxhj-xAlLwmsFqic-42" value="" style="rounded=0;orthogonalLoop=1;jettySize=auto;html=1;fontFamily=Helvetica;fontSize=18;fontColor=default;autosize=1;resizable=0;" parent="1" source="xx7hqxhj-xAlLwmsFqic-44" target="xx7hqxhj-xAlLwmsFqic-45" edge="1">
          <mxGeometry relative="1" as="geometry" />
        </mxCell>
        <mxCell id="xx7hqxhj-xAlLwmsFqic-43" value="" style="edgeStyle=orthogonalEdgeStyle;rounded=0;orthogonalLoop=1;jettySize=auto;html=1;fontFamily=Helvetica;fontSize=18;fontColor=default;autosize=1;resizable=0;" parent="1" source="xx7hqxhj-xAlLwmsFqic-44" target="xx7hqxhj-xAlLwmsFqic-46" edge="1">
          <mxGeometry relative="1" as="geometry" />
        </mxCell>
        <mxCell id="xx7hqxhj-xAlLwmsFqic-44" value="A" style="ellipse;whiteSpace=wrap;html=1;fontSize=18;fillColor=#dae8fc;strokeColor=#6c8ebf;hachureGap=4;rounded=0;" parent="1" vertex="1">
          <mxGeometry x="780" y="1859" width="80" height="80" as="geometry" />
        </mxCell>
        <mxCell id="xx7hqxhj-xAlLwmsFqic-45" value="a" style="whiteSpace=wrap;html=1;fontSize=18;fillColor=#dae8fc;strokeColor=#6c8ebf;hachureGap=4;rounded=0;" parent="1" vertex="1">
          <mxGeometry x="676.7" y="2005" width="50.54" height="60" as="geometry" />
        </mxCell>
        <mxCell id="xx7hqxhj-xAlLwmsFqic-46" value="b" style="whiteSpace=wrap;html=1;fontSize=18;fillColor=#dae8fc;strokeColor=#6c8ebf;hachureGap=4;rounded=0;" parent="1" vertex="1">
          <mxGeometry x="790.5" y="2005" width="59" height="60" as="geometry" />
        </mxCell>
        <mxCell id="xx7hqxhj-xAlLwmsFqic-47" value="" style="edgeStyle=orthogonalEdgeStyle;rounded=0;orthogonalLoop=1;jettySize=auto;html=1;fontFamily=Helvetica;fontSize=18;fontColor=default;autosize=1;resizable=0;" parent="1" target="xx7hqxhj-xAlLwmsFqic-48" edge="1">
          <mxGeometry relative="1" as="geometry">
            <mxPoint x="933.95" y="1939" as="sourcePoint" />
          </mxGeometry>
        </mxCell>
        <mxCell id="xx7hqxhj-xAlLwmsFqic-48" value="b" style="whiteSpace=wrap;html=1;fontSize=18;fillColor=#dae8fc;strokeColor=#6c8ebf;hachureGap=4;rounded=0;" parent="1" vertex="1">
          <mxGeometry x="904.45" y="2005" width="59" height="60" as="geometry" />
        </mxCell>
        <mxCell id="xx7hqxhj-xAlLwmsFqic-49" value="" style="edgeStyle=orthogonalEdgeStyle;rounded=0;orthogonalLoop=1;jettySize=auto;html=1;fontFamily=Helvetica;fontSize=18;fontColor=default;autosize=1;resizable=0;" parent="1" target="xx7hqxhj-xAlLwmsFqic-51" edge="1">
          <mxGeometry relative="1" as="geometry">
            <mxPoint x="1055.47" y="1947" as="sourcePoint" />
          </mxGeometry>
        </mxCell>
        <mxCell id="xx7hqxhj-xAlLwmsFqic-50" value="" style="rounded=0;orthogonalLoop=1;jettySize=auto;html=1;fontFamily=Helvetica;fontSize=18;fontColor=default;autosize=1;resizable=0;exitX=1;exitY=0.5;exitDx=0;exitDy=0;" parent="1" source="xx7hqxhj-xAlLwmsFqic-35" target="xx7hqxhj-xAlLwmsFqic-52" edge="1">
          <mxGeometry relative="1" as="geometry">
            <mxPoint x="1095.47" y="1907" as="sourcePoint" />
          </mxGeometry>
        </mxCell>
        <mxCell id="xx7hqxhj-xAlLwmsFqic-51" value="C" style="whiteSpace=wrap;html=1;fontSize=18;fillColor=#dae8fc;strokeColor=#6c8ebf;hachureGap=4;rounded=0;" parent="1" vertex="1">
          <mxGeometry x="1025.97" y="2013" width="59" height="60" as="geometry" />
        </mxCell>
        <mxCell id="xx7hqxhj-xAlLwmsFqic-52" value="C" style="ellipse;whiteSpace=wrap;html=1;fontSize=18;fillColor=#dae8fc;strokeColor=#6c8ebf;hachureGap=4;rounded=0;" parent="1" vertex="1">
          <mxGeometry x="1148.47" y="2003" width="80" height="80" as="geometry" />
        </mxCell>
        <mxCell id="xx7hqxhj-xAlLwmsFqic-53" value="" style="edgeStyle=orthogonalEdgeStyle;rounded=0;orthogonalLoop=1;jettySize=auto;html=1;fontFamily=Helvetica;fontSize=18;fontColor=default;autosize=1;resizable=0;" parent="1" target="xx7hqxhj-xAlLwmsFqic-54" edge="1">
          <mxGeometry relative="1" as="geometry">
            <mxPoint x="1188.47" y="2083" as="sourcePoint" />
          </mxGeometry>
        </mxCell>
        <mxCell id="xx7hqxhj-xAlLwmsFqic-54" value="C" style="whiteSpace=wrap;html=1;fontSize=18;fillColor=#dae8fc;strokeColor=#6c8ebf;hachureGap=4;rounded=0;" parent="1" vertex="1">
          <mxGeometry x="1158.97" y="2149" width="59" height="60" as="geometry" />
        </mxCell>
        <mxCell id="xx7hqxhj-xAlLwmsFqic-55" value="" style="rounded=0;orthogonalLoop=1;jettySize=auto;html=1;fontFamily=Helvetica;fontSize=18;fontColor=default;autosize=1;resizable=0;" parent="1" source="xx7hqxhj-xAlLwmsFqic-58" target="xx7hqxhj-xAlLwmsFqic-59" edge="1">
          <mxGeometry relative="1" as="geometry" />
        </mxCell>
        <mxCell id="xx7hqxhj-xAlLwmsFqic-56" value="" style="rounded=0;orthogonalLoop=1;jettySize=auto;html=1;fontFamily=Helvetica;fontSize=18;fontColor=default;autosize=1;resizable=0;" parent="1" source="xx7hqxhj-xAlLwmsFqic-58" edge="1">
          <mxGeometry relative="1" as="geometry">
            <mxPoint x="824.3" y="2464" as="targetPoint" />
          </mxGeometry>
        </mxCell>
        <mxCell id="xx7hqxhj-xAlLwmsFqic-57" value="" style="edgeStyle=orthogonalEdgeStyle;rounded=0;orthogonalLoop=1;jettySize=auto;html=1;fontFamily=Helvetica;fontSize=18;fontColor=default;autosize=1;resizable=0;" parent="1" source="xx7hqxhj-xAlLwmsFqic-58" edge="1">
          <mxGeometry relative="1" as="geometry">
            <mxPoint x="927.2" y="2471" as="targetPoint" />
          </mxGeometry>
        </mxCell>
        <mxCell id="xx7hqxhj-xAlLwmsFqic-58" value="S" style="ellipse;whiteSpace=wrap;html=1;fontSize=18;fillColor=#dae8fc;strokeColor=#6c8ebf;hachureGap=4;rounded=0;" parent="1" vertex="1">
          <mxGeometry x="887.25" y="2313" width="80" height="80" as="geometry" />
        </mxCell>
        <mxCell id="xx7hqxhj-xAlLwmsFqic-59" value="C" style="ellipse;whiteSpace=wrap;html=1;fontSize=18;fillColor=#dae8fc;strokeColor=#6c8ebf;hachureGap=4;rounded=0;" parent="1" vertex="1">
          <mxGeometry x="1006" y="2472" width="80" height="80" as="geometry" />
        </mxCell>
        <mxCell id="xx7hqxhj-xAlLwmsFqic-60" value="B" style="ellipse;whiteSpace=wrap;html=1;fontSize=18;fillColor=#dae8fc;strokeColor=#6c8ebf;hachureGap=4;rounded=0;" parent="1" vertex="1">
          <mxGeometry x="887.25" y="2469" width="80" height="80" as="geometry" />
        </mxCell>
        <mxCell id="xx7hqxhj-xAlLwmsFqic-61" value="A" style="ellipse;whiteSpace=wrap;html=1;fontSize=18;fillColor=#dae8fc;strokeColor=#6c8ebf;hachureGap=4;rounded=0;" parent="1" vertex="1">
          <mxGeometry x="773.3" y="2465" width="80" height="80" as="geometry" />
        </mxCell>
        <mxCell id="xx7hqxhj-xAlLwmsFqic-62" value="" style="rounded=0;orthogonalLoop=1;jettySize=auto;html=1;fontFamily=Helvetica;fontSize=18;fontColor=default;autosize=1;resizable=0;" parent="1" source="xx7hqxhj-xAlLwmsFqic-64" target="xx7hqxhj-xAlLwmsFqic-65" edge="1">
          <mxGeometry relative="1" as="geometry" />
        </mxCell>
        <mxCell id="xx7hqxhj-xAlLwmsFqic-63" value="" style="edgeStyle=orthogonalEdgeStyle;rounded=0;orthogonalLoop=1;jettySize=auto;html=1;fontFamily=Helvetica;fontSize=18;fontColor=default;autosize=1;resizable=0;" parent="1" source="xx7hqxhj-xAlLwmsFqic-64" target="xx7hqxhj-xAlLwmsFqic-66" edge="1">
          <mxGeometry relative="1" as="geometry" />
        </mxCell>
        <mxCell id="xx7hqxhj-xAlLwmsFqic-64" value="A" style="ellipse;whiteSpace=wrap;html=1;fontSize=18;fillColor=#dae8fc;strokeColor=#6c8ebf;hachureGap=4;rounded=0;" parent="1" vertex="1">
          <mxGeometry x="773.3" y="2465" width="80" height="80" as="geometry" />
        </mxCell>
        <mxCell id="xx7hqxhj-xAlLwmsFqic-65" value="a" style="whiteSpace=wrap;html=1;fontSize=18;fillColor=#dae8fc;strokeColor=#6c8ebf;hachureGap=4;rounded=0;" parent="1" vertex="1">
          <mxGeometry x="670" y="2611" width="50.54" height="60" as="geometry" />
        </mxCell>
        <mxCell id="xx7hqxhj-xAlLwmsFqic-66" value="b" style="whiteSpace=wrap;html=1;fontSize=18;fillColor=#dae8fc;strokeColor=#6c8ebf;hachureGap=4;rounded=0;" parent="1" vertex="1">
          <mxGeometry x="783.8" y="2611" width="59" height="60" as="geometry" />
        </mxCell>
        <mxCell id="xx7hqxhj-xAlLwmsFqic-70" value="" style="rounded=0;orthogonalLoop=1;jettySize=auto;html=1;fontFamily=Helvetica;fontSize=18;fontColor=default;autosize=1;resizable=0;exitX=1;exitY=0.5;exitDx=0;exitDy=0;" parent="1" source="xx7hqxhj-xAlLwmsFqic-59" edge="1">
          <mxGeometry relative="1" as="geometry">
            <mxPoint x="1088.77" y="2513" as="sourcePoint" />
            <mxPoint x="1158.9766546853857" y="2616.1295967568194" as="targetPoint" />
          </mxGeometry>
        </mxCell>
        <mxCell id="xx7hqxhj-xAlLwmsFqic-74" value="C" style="whiteSpace=wrap;html=1;fontSize=18;fillColor=#dae8fc;strokeColor=#6c8ebf;hachureGap=4;rounded=0;" parent="1" vertex="1">
          <mxGeometry x="1132" y="2617" width="59" height="60" as="geometry" />
        </mxCell>
        <mxCell id="xx7hqxhj-xAlLwmsFqic-75" value="" style="rounded=0;orthogonalLoop=1;jettySize=auto;html=1;fontFamily=Helvetica;fontSize=18;fontColor=default;autosize=1;resizable=0;" parent="1" target="xx7hqxhj-xAlLwmsFqic-77" edge="1">
          <mxGeometry relative="1" as="geometry">
            <mxPoint x="951" y="2541" as="sourcePoint" />
          </mxGeometry>
        </mxCell>
        <mxCell id="xx7hqxhj-xAlLwmsFqic-76" value="" style="edgeStyle=orthogonalEdgeStyle;rounded=0;orthogonalLoop=1;jettySize=auto;html=1;fontFamily=Helvetica;fontSize=18;fontColor=default;autosize=1;resizable=0;" parent="1" edge="1">
          <mxGeometry relative="1" as="geometry">
            <mxPoint x="927.2" y="2627" as="targetPoint" />
            <mxPoint x="927" y="2549" as="sourcePoint" />
          </mxGeometry>
        </mxCell>
        <mxCell id="xx7hqxhj-xAlLwmsFqic-77" value="C" style="ellipse;whiteSpace=wrap;html=1;fontSize=18;fillColor=#dae8fc;strokeColor=#6c8ebf;hachureGap=4;rounded=0;" parent="1" vertex="1">
          <mxGeometry x="1006" y="2628" width="80" height="80" as="geometry" />
        </mxCell>
        <mxCell id="xx7hqxhj-xAlLwmsFqic-78" value="B" style="ellipse;whiteSpace=wrap;html=1;fontSize=18;fillColor=#dae8fc;strokeColor=#6c8ebf;hachureGap=4;rounded=0;" parent="1" vertex="1">
          <mxGeometry x="887.25" y="2625" width="80" height="80" as="geometry" />
        </mxCell>
        <mxCell id="xx7hqxhj-xAlLwmsFqic-79" value="" style="edgeStyle=orthogonalEdgeStyle;rounded=0;orthogonalLoop=1;jettySize=auto;html=1;fontFamily=Helvetica;fontSize=18;fontColor=default;autosize=1;resizable=0;" parent="1" target="xx7hqxhj-xAlLwmsFqic-80" edge="1">
          <mxGeometry relative="1" as="geometry">
            <mxPoint x="927.25" y="2701" as="sourcePoint" />
          </mxGeometry>
        </mxCell>
        <mxCell id="xx7hqxhj-xAlLwmsFqic-80" value="b" style="whiteSpace=wrap;html=1;fontSize=18;fillColor=#dae8fc;strokeColor=#6c8ebf;hachureGap=4;rounded=0;" parent="1" vertex="1">
          <mxGeometry x="897.75" y="2767" width="59" height="60" as="geometry" />
        </mxCell>
        <mxCell id="xx7hqxhj-xAlLwmsFqic-81" value="" style="edgeStyle=orthogonalEdgeStyle;rounded=0;orthogonalLoop=1;jettySize=auto;html=1;fontFamily=Helvetica;fontSize=18;fontColor=default;autosize=1;resizable=0;" parent="1" target="xx7hqxhj-xAlLwmsFqic-82" edge="1">
          <mxGeometry relative="1" as="geometry">
            <mxPoint x="1048.77" y="2709" as="sourcePoint" />
          </mxGeometry>
        </mxCell>
        <mxCell id="xx7hqxhj-xAlLwmsFqic-82" value="C" style="whiteSpace=wrap;html=1;fontSize=18;fillColor=#dae8fc;strokeColor=#6c8ebf;hachureGap=4;rounded=0;" parent="1" vertex="1">
          <mxGeometry x="1019.27" y="2775" width="59" height="60" as="geometry" />
        </mxCell>
        <mxCell id="xx7hqxhj-xAlLwmsFqic-84" value="" style="rounded=0;orthogonalLoop=1;jettySize=auto;html=1;fontFamily=Helvetica;fontSize=18;fontColor=default;autosize=1;resizable=0;" parent="1" source="xx7hqxhj-xAlLwmsFqic-86" edge="1">
          <mxGeometry relative="1" as="geometry">
            <mxPoint x="764.77" y="3099" as="targetPoint" />
          </mxGeometry>
        </mxCell>
        <mxCell id="xx7hqxhj-xAlLwmsFqic-85" value="" style="edgeStyle=orthogonalEdgeStyle;rounded=0;orthogonalLoop=1;jettySize=auto;html=1;fontFamily=Helvetica;fontSize=18;fontColor=default;autosize=1;resizable=0;" parent="1" source="xx7hqxhj-xAlLwmsFqic-86" edge="1">
          <mxGeometry relative="1" as="geometry">
            <mxPoint x="867.6700000000001" y="3106" as="targetPoint" />
          </mxGeometry>
        </mxCell>
        <mxCell id="xx7hqxhj-xAlLwmsFqic-86" value="S" style="ellipse;whiteSpace=wrap;html=1;fontSize=18;fillColor=#dae8fc;strokeColor=#6c8ebf;hachureGap=4;rounded=0;" parent="1" vertex="1">
          <mxGeometry x="827.72" y="2948" width="80" height="80" as="geometry" />
        </mxCell>
        <mxCell id="xx7hqxhj-xAlLwmsFqic-88" value="S" style="ellipse;whiteSpace=wrap;html=1;fontSize=18;fillColor=#dae8fc;strokeColor=#6c8ebf;hachureGap=4;rounded=0;" parent="1" vertex="1">
          <mxGeometry x="827.72" y="3104" width="80" height="80" as="geometry" />
        </mxCell>
        <mxCell id="xx7hqxhj-xAlLwmsFqic-89" value="A" style="ellipse;whiteSpace=wrap;html=1;fontSize=18;fillColor=#dae8fc;strokeColor=#6c8ebf;hachureGap=4;rounded=0;" parent="1" vertex="1">
          <mxGeometry x="713.77" y="3100" width="80" height="80" as="geometry" />
        </mxCell>
        <mxCell id="xx7hqxhj-xAlLwmsFqic-90" value="S" style="ellipse;whiteSpace=wrap;html=1;fontSize=18;fillColor=#dae8fc;strokeColor=#6c8ebf;hachureGap=4;rounded=0;" parent="1" vertex="1">
          <mxGeometry x="713.77" y="3100" width="80" height="80" as="geometry" />
        </mxCell>
        <mxCell id="xx7hqxhj-xAlLwmsFqic-94" value="" style="rounded=0;orthogonalLoop=1;jettySize=auto;html=1;fontFamily=Helvetica;fontSize=18;fontColor=default;autosize=1;resizable=0;exitX=0.5;exitY=1;exitDx=0;exitDy=0;entryX=0.5;entryY=0;entryDx=0;entryDy=0;" parent="1" source="xx7hqxhj-xAlLwmsFqic-96" target="xx7hqxhj-xAlLwmsFqic-99" edge="1">
          <mxGeometry relative="1" as="geometry">
            <mxPoint x="881.28" y="3251.55" as="targetPoint" />
            <mxPoint x="957.1649884262922" y="3170.003100830212" as="sourcePoint" />
          </mxGeometry>
        </mxCell>
        <mxCell id="xx7hqxhj-xAlLwmsFqic-95" value="" style="rounded=0;orthogonalLoop=1;jettySize=auto;html=1;fontFamily=Helvetica;fontSize=18;fontColor=default;autosize=1;resizable=0;exitX=1;exitY=1;exitDx=0;exitDy=0;" parent="1" source="xx7hqxhj-xAlLwmsFqic-96" edge="1">
          <mxGeometry relative="1" as="geometry">
            <mxPoint x="984.1800000000001" y="3258.55" as="targetPoint" />
            <mxPoint x="984.23" y="3180.55" as="sourcePoint" />
          </mxGeometry>
        </mxCell>
        <mxCell id="xx7hqxhj-xAlLwmsFqic-96" value="S" style="ellipse;whiteSpace=wrap;html=1;fontSize=18;fillColor=#dae8fc;strokeColor=#6c8ebf;hachureGap=4;rounded=0;" parent="1" vertex="1">
          <mxGeometry x="827.72" y="3104" width="80" height="80" as="geometry" />
        </mxCell>
        <mxCell id="xx7hqxhj-xAlLwmsFqic-97" value="A" style="ellipse;whiteSpace=wrap;html=1;fontSize=18;fillColor=#dae8fc;strokeColor=#6c8ebf;hachureGap=4;rounded=0;" parent="1" vertex="1">
          <mxGeometry x="944.23" y="3256.55" width="80" height="80" as="geometry" />
        </mxCell>
        <mxCell id="xx7hqxhj-xAlLwmsFqic-98" value="A" style="ellipse;whiteSpace=wrap;html=1;fontSize=18;fillColor=#dae8fc;strokeColor=#6c8ebf;hachureGap=4;rounded=0;" parent="1" vertex="1">
          <mxGeometry x="824.4499999999999" y="3252.55" width="80" height="80" as="geometry" />
        </mxCell>
        <mxCell id="xx7hqxhj-xAlLwmsFqic-99" value="S" style="ellipse;whiteSpace=wrap;html=1;fontSize=18;fillColor=#dae8fc;strokeColor=#6c8ebf;hachureGap=4;rounded=0;" parent="1" vertex="1">
          <mxGeometry x="824.4499999999999" y="3252.55" width="80" height="80" as="geometry" />
        </mxCell>
        <mxCell id="xx7hqxhj-xAlLwmsFqic-101" value="" style="rounded=0;orthogonalLoop=1;jettySize=auto;html=1;fontFamily=Helvetica;fontSize=18;fontColor=default;autosize=1;resizable=0;" parent="1" target="xx7hqxhj-xAlLwmsFqic-102" edge="1">
          <mxGeometry relative="1" as="geometry">
            <mxPoint x="742" y="3177" as="sourcePoint" />
          </mxGeometry>
        </mxCell>
        <mxCell id="xx7hqxhj-xAlLwmsFqic-102" value="a" style="whiteSpace=wrap;html=1;fontSize=18;fillColor=#dae8fc;strokeColor=#6c8ebf;hachureGap=4;rounded=0;" parent="1" vertex="1">
          <mxGeometry x="713.77" y="3252.55" width="50.54" height="60" as="geometry" />
        </mxCell>
        <mxCell id="xx7hqxhj-xAlLwmsFqic-103" value="" style="rounded=0;orthogonalLoop=1;jettySize=auto;html=1;fontFamily=Helvetica;fontSize=18;fontColor=default;autosize=1;resizable=0;" parent="1" target="xx7hqxhj-xAlLwmsFqic-104" edge="1">
          <mxGeometry relative="1" as="geometry">
            <mxPoint x="858.71" y="3332.55" as="sourcePoint" />
          </mxGeometry>
        </mxCell>
        <mxCell id="xx7hqxhj-xAlLwmsFqic-104" value="a" style="whiteSpace=wrap;html=1;fontSize=18;fillColor=#dae8fc;strokeColor=#6c8ebf;hachureGap=4;rounded=0;" parent="1" vertex="1">
          <mxGeometry x="830.48" y="3408.1000000000004" width="50.54" height="60" as="geometry" />
        </mxCell>
        <mxCell id="xx7hqxhj-xAlLwmsFqic-105" value="" style="rounded=0;orthogonalLoop=1;jettySize=auto;html=1;fontFamily=Helvetica;fontSize=18;fontColor=default;autosize=1;resizable=0;" parent="1" target="xx7hqxhj-xAlLwmsFqic-106" edge="1">
          <mxGeometry relative="1" as="geometry">
            <mxPoint x="984.98" y="3332.55" as="sourcePoint" />
          </mxGeometry>
        </mxCell>
        <mxCell id="xx7hqxhj-xAlLwmsFqic-106" value="a" style="whiteSpace=wrap;html=1;fontSize=18;fillColor=#dae8fc;strokeColor=#6c8ebf;hachureGap=4;rounded=0;" parent="1" vertex="1">
          <mxGeometry x="956.75" y="3408.1000000000004" width="50.54" height="60" as="geometry" />
        </mxCell>
        <mxCell id="xx7hqxhj-xAlLwmsFqic-107" value="" style="rounded=0;orthogonalLoop=1;jettySize=auto;html=1;fontFamily=Helvetica;fontSize=18;fontColor=default;autosize=1;resizable=0;" parent="1" source="xx7hqxhj-xAlLwmsFqic-109" edge="1">
          <mxGeometry relative="1" as="geometry">
            <mxPoint x="1150" y="3093" as="targetPoint" />
          </mxGeometry>
        </mxCell>
        <mxCell id="xx7hqxhj-xAlLwmsFqic-108" value="" style="edgeStyle=orthogonalEdgeStyle;rounded=0;orthogonalLoop=1;jettySize=auto;html=1;fontFamily=Helvetica;fontSize=18;fontColor=default;autosize=1;resizable=0;" parent="1" source="xx7hqxhj-xAlLwmsFqic-109" edge="1">
          <mxGeometry relative="1" as="geometry">
            <mxPoint x="1252.9" y="3100" as="targetPoint" />
          </mxGeometry>
        </mxCell>
        <mxCell id="xx7hqxhj-xAlLwmsFqic-109" value="S" style="ellipse;whiteSpace=wrap;html=1;fontSize=18;fillColor=#dae8fc;strokeColor=#6c8ebf;hachureGap=4;rounded=0;" parent="1" vertex="1">
          <mxGeometry x="1212.95" y="2942" width="80" height="80" as="geometry" />
        </mxCell>
        <mxCell id="xx7hqxhj-xAlLwmsFqic-110" value="S" style="ellipse;whiteSpace=wrap;html=1;fontSize=18;fillColor=#dae8fc;strokeColor=#6c8ebf;hachureGap=4;rounded=0;" parent="1" vertex="1">
          <mxGeometry x="1212.95" y="3098" width="80" height="80" as="geometry" />
        </mxCell>
        <mxCell id="xx7hqxhj-xAlLwmsFqic-111" value="A" style="ellipse;whiteSpace=wrap;html=1;fontSize=18;fillColor=#dae8fc;strokeColor=#6c8ebf;hachureGap=4;rounded=0;" parent="1" vertex="1">
          <mxGeometry x="1099" y="3094" width="80" height="80" as="geometry" />
        </mxCell>
        <mxCell id="xx7hqxhj-xAlLwmsFqic-112" value="S" style="ellipse;whiteSpace=wrap;html=1;fontSize=18;fillColor=#dae8fc;strokeColor=#6c8ebf;hachureGap=4;rounded=0;" parent="1" vertex="1">
          <mxGeometry x="1099" y="3094" width="80" height="80" as="geometry" />
        </mxCell>
        <mxCell id="xx7hqxhj-xAlLwmsFqic-114" value="" style="rounded=0;orthogonalLoop=1;jettySize=auto;html=1;fontFamily=Helvetica;fontSize=18;fontColor=default;autosize=1;resizable=0;exitX=1;exitY=1;exitDx=0;exitDy=0;" parent="1" source="xx7hqxhj-xAlLwmsFqic-115" edge="1">
          <mxGeometry relative="1" as="geometry">
            <mxPoint x="1369.41" y="3252.55" as="targetPoint" />
            <mxPoint x="1369.46" y="3174.55" as="sourcePoint" />
          </mxGeometry>
        </mxCell>
        <mxCell id="xx7hqxhj-xAlLwmsFqic-115" value="A" style="ellipse;whiteSpace=wrap;html=1;fontSize=18;fillColor=#dae8fc;strokeColor=#6c8ebf;hachureGap=4;rounded=0;" parent="1" vertex="1">
          <mxGeometry x="1212.95" y="3098" width="80" height="80" as="geometry" />
        </mxCell>
        <mxCell id="xx7hqxhj-xAlLwmsFqic-116" value="A" style="ellipse;whiteSpace=wrap;html=1;fontSize=18;fillColor=#dae8fc;strokeColor=#6c8ebf;hachureGap=4;rounded=0;" parent="1" vertex="1">
          <mxGeometry x="1329.46" y="3250.55" width="80" height="80" as="geometry" />
        </mxCell>
        <mxCell id="xx7hqxhj-xAlLwmsFqic-119" value="" style="rounded=0;orthogonalLoop=1;jettySize=auto;html=1;fontFamily=Helvetica;fontSize=18;fontColor=default;autosize=1;resizable=0;" parent="1" target="xx7hqxhj-xAlLwmsFqic-120" edge="1">
          <mxGeometry relative="1" as="geometry">
            <mxPoint x="1127.23" y="3171" as="sourcePoint" />
          </mxGeometry>
        </mxCell>
        <mxCell id="xx7hqxhj-xAlLwmsFqic-120" value="Ɛ" style="whiteSpace=wrap;html=1;fontSize=18;fillColor=#dae8fc;strokeColor=#6c8ebf;hachureGap=4;rounded=0;" parent="1" vertex="1">
          <mxGeometry x="1099" y="3246.55" width="50.54" height="60" as="geometry" />
        </mxCell>
        <mxCell id="xx7hqxhj-xAlLwmsFqic-121" value="" style="rounded=0;orthogonalLoop=1;jettySize=auto;html=1;fontFamily=Helvetica;fontSize=18;fontColor=default;autosize=1;resizable=0;exitX=0;exitY=1;exitDx=0;exitDy=0;" parent="1" source="xx7hqxhj-xAlLwmsFqic-115" target="xx7hqxhj-xAlLwmsFqic-122" edge="1">
          <mxGeometry relative="1" as="geometry">
            <mxPoint x="1213.73" y="3152" as="sourcePoint" />
          </mxGeometry>
        </mxCell>
        <mxCell id="xx7hqxhj-xAlLwmsFqic-122" value="a" style="whiteSpace=wrap;html=1;fontSize=18;fillColor=#dae8fc;strokeColor=#6c8ebf;hachureGap=4;rounded=0;" parent="1" vertex="1">
          <mxGeometry x="1173.46" y="3281" width="50.54" height="60" as="geometry" />
        </mxCell>
        <mxCell id="xx7hqxhj-xAlLwmsFqic-123" value="" style="rounded=0;orthogonalLoop=1;jettySize=auto;html=1;fontFamily=Helvetica;fontSize=18;fontColor=default;autosize=1;resizable=0;" parent="1" target="xx7hqxhj-xAlLwmsFqic-124" edge="1">
          <mxGeometry relative="1" as="geometry">
            <mxPoint x="1370.21" y="3326.55" as="sourcePoint" />
          </mxGeometry>
        </mxCell>
        <mxCell id="xx7hqxhj-xAlLwmsFqic-124" value="b" style="whiteSpace=wrap;html=1;fontSize=18;fillColor=#dae8fc;strokeColor=#6c8ebf;hachureGap=4;rounded=0;" parent="1" vertex="1">
          <mxGeometry x="1341.98" y="3402.1000000000004" width="50.54" height="60" as="geometry" />
        </mxCell>
        <mxCell id="xx7hqxhj-xAlLwmsFqic-125" value="" style="rounded=0;orthogonalLoop=1;jettySize=auto;html=1;fontFamily=Helvetica;fontSize=18;fontColor=default;autosize=1;resizable=0;" parent="1" target="xx7hqxhj-xAlLwmsFqic-126" edge="1">
          <mxGeometry relative="1" as="geometry">
            <mxPoint x="1259" y="3182" as="sourcePoint" />
          </mxGeometry>
        </mxCell>
        <mxCell id="xx7hqxhj-xAlLwmsFqic-126" value="a" style="whiteSpace=wrap;html=1;fontSize=18;fillColor=#dae8fc;strokeColor=#6c8ebf;hachureGap=4;rounded=0;" parent="1" vertex="1">
          <mxGeometry x="1243.73" y="3284.3300000000004" width="50.54" height="60" as="geometry" />
        </mxCell>
        <mxCell id="xx7hqxhj-xAlLwmsFqic-128" value="" style="rounded=0;orthogonalLoop=1;jettySize=auto;html=1;fontFamily=Helvetica;fontSize=18;fontColor=default;autosize=1;resizable=0;" parent="1" source="xx7hqxhj-xAlLwmsFqic-131" target="xx7hqxhj-xAlLwmsFqic-132" edge="1">
          <mxGeometry relative="1" as="geometry" />
        </mxCell>
        <mxCell id="xx7hqxhj-xAlLwmsFqic-129" value="" style="rounded=0;orthogonalLoop=1;jettySize=auto;html=1;fontFamily=Helvetica;fontSize=18;fontColor=default;autosize=1;resizable=0;" parent="1" source="xx7hqxhj-xAlLwmsFqic-131" target="xx7hqxhj-xAlLwmsFqic-133" edge="1">
          <mxGeometry relative="1" as="geometry" />
        </mxCell>
        <mxCell id="xx7hqxhj-xAlLwmsFqic-130" value="" style="rounded=0;orthogonalLoop=1;jettySize=auto;html=1;fontFamily=Helvetica;fontSize=18;fontColor=default;autosize=1;resizable=0;" parent="1" source="xx7hqxhj-xAlLwmsFqic-131" target="xx7hqxhj-xAlLwmsFqic-134" edge="1">
          <mxGeometry relative="1" as="geometry" />
        </mxCell>
        <mxCell id="xx7hqxhj-xAlLwmsFqic-131" value="S" style="ellipse;whiteSpace=wrap;html=1;fontSize=18;fillColor=#dae8fc;strokeColor=#6c8ebf;hachureGap=4;rounded=0;" parent="1" vertex="1">
          <mxGeometry x="-114" y="1028.23" width="80" height="80" as="geometry" />
        </mxCell>
        <mxCell id="xx7hqxhj-xAlLwmsFqic-132" value="S" style="ellipse;whiteSpace=wrap;html=1;fontSize=18;fillColor=#dae8fc;strokeColor=#6c8ebf;hachureGap=4;rounded=0;" parent="1" vertex="1">
          <mxGeometry x="-165.04999999999995" y="1178.23" width="80" height="80" as="geometry" />
        </mxCell>
        <mxCell id="xx7hqxhj-xAlLwmsFqic-133" value="a" style="whiteSpace=wrap;html=1;fontSize=18;fillColor=#dae8fc;strokeColor=#6c8ebf;hachureGap=4;rounded=0;" parent="1" vertex="1">
          <mxGeometry x="-282" y="1189.23" width="57.97" height="60" as="geometry" />
        </mxCell>
        <mxCell id="xx7hqxhj-xAlLwmsFqic-134" value="b" style="whiteSpace=wrap;html=1;fontSize=18;fillColor=#dae8fc;strokeColor=#6c8ebf;hachureGap=4;rounded=0;" parent="1" vertex="1">
          <mxGeometry x="-58" y="1188.23" width="63.01" height="60" as="geometry" />
        </mxCell>
        <mxCell id="xx7hqxhj-xAlLwmsFqic-135" value="" style="rounded=0;orthogonalLoop=1;jettySize=auto;html=1;fontFamily=Helvetica;fontSize=18;fontColor=default;autosize=1;resizable=0;" parent="1" source="xx7hqxhj-xAlLwmsFqic-131" target="xx7hqxhj-xAlLwmsFqic-136" edge="1">
          <mxGeometry relative="1" as="geometry">
            <mxPoint x="108.04999999999995" y="1114.23" as="sourcePoint" />
          </mxGeometry>
        </mxCell>
        <mxCell id="xx7hqxhj-xAlLwmsFqic-136" value="S" style="ellipse;whiteSpace=wrap;html=1;fontSize=18;fillColor=#dae8fc;strokeColor=#6c8ebf;hachureGap=4;rounded=0;" parent="1" vertex="1">
          <mxGeometry x="68" y="1181.23" width="80" height="80" as="geometry" />
        </mxCell>
        <mxCell id="xx7hqxhj-xAlLwmsFqic-137" value="" style="rounded=0;orthogonalLoop=1;jettySize=auto;html=1;fontFamily=Helvetica;fontSize=18;fontColor=default;autosize=1;resizable=0;" parent="1" target="xx7hqxhj-xAlLwmsFqic-138" edge="1">
          <mxGeometry relative="1" as="geometry">
            <mxPoint x="-122.09000000000003" y="1253.23" as="sourcePoint" />
          </mxGeometry>
        </mxCell>
        <mxCell id="xx7hqxhj-xAlLwmsFqic-138" value="Ɛ" style="whiteSpace=wrap;html=1;fontSize=18;fillColor=#dae8fc;strokeColor=#6c8ebf;hachureGap=4;rounded=0;" parent="1" vertex="1">
          <mxGeometry x="-150.32000000000005" y="1340.2300000000002" width="50.54" height="60" as="geometry" />
        </mxCell>
        <mxCell id="xx7hqxhj-xAlLwmsFqic-139" value="" style="rounded=0;orthogonalLoop=1;jettySize=auto;html=1;fontFamily=Helvetica;fontSize=18;fontColor=default;autosize=1;resizable=0;" parent="1" target="xx7hqxhj-xAlLwmsFqic-142" edge="1">
          <mxGeometry relative="1" as="geometry">
            <mxPoint x="93.76999999999998" y="1256.78" as="sourcePoint" />
          </mxGeometry>
        </mxCell>
        <mxCell id="xx7hqxhj-xAlLwmsFqic-140" value="" style="rounded=0;orthogonalLoop=1;jettySize=auto;html=1;fontFamily=Helvetica;fontSize=18;fontColor=default;autosize=1;resizable=0;" parent="1" target="xx7hqxhj-xAlLwmsFqic-143" edge="1">
          <mxGeometry relative="1" as="geometry">
            <mxPoint x="75.76999999999998" y="1244.78" as="sourcePoint" />
          </mxGeometry>
        </mxCell>
        <mxCell id="xx7hqxhj-xAlLwmsFqic-141" value="" style="rounded=0;orthogonalLoop=1;jettySize=auto;html=1;fontFamily=Helvetica;fontSize=18;fontColor=default;autosize=1;resizable=0;" parent="1" target="xx7hqxhj-xAlLwmsFqic-144" edge="1">
          <mxGeometry relative="1" as="geometry">
            <mxPoint x="123.76999999999998" y="1255.78" as="sourcePoint" />
          </mxGeometry>
        </mxCell>
        <mxCell id="xx7hqxhj-xAlLwmsFqic-142" value="S" style="ellipse;whiteSpace=wrap;html=1;fontSize=18;fillColor=#dae8fc;strokeColor=#6c8ebf;hachureGap=4;rounded=0;" parent="1" vertex="1">
          <mxGeometry x="57.950000000000045" y="1323.78" width="80" height="80" as="geometry" />
        </mxCell>
        <mxCell id="xx7hqxhj-xAlLwmsFqic-143" value="a" style="whiteSpace=wrap;html=1;fontSize=18;fillColor=#dae8fc;strokeColor=#6c8ebf;hachureGap=4;rounded=0;" parent="1" vertex="1">
          <mxGeometry x="-26.769999999999982" y="1336.78" width="57.97" height="60" as="geometry" />
        </mxCell>
        <mxCell id="xx7hqxhj-xAlLwmsFqic-144" value="b" style="whiteSpace=wrap;html=1;fontSize=18;fillColor=#dae8fc;strokeColor=#6c8ebf;hachureGap=4;rounded=0;" parent="1" vertex="1">
          <mxGeometry x="189" y="1334.78" width="63.01" height="60" as="geometry" />
        </mxCell>
        <mxCell id="xx7hqxhj-xAlLwmsFqic-145" value="" style="rounded=0;orthogonalLoop=1;jettySize=auto;html=1;fontFamily=Helvetica;fontSize=18;fontColor=default;autosize=1;resizable=0;" parent="1" target="xx7hqxhj-xAlLwmsFqic-146" edge="1">
          <mxGeometry relative="1" as="geometry">
            <mxPoint x="137.76999999999998" y="1244.78" as="sourcePoint" />
          </mxGeometry>
        </mxCell>
        <mxCell id="xx7hqxhj-xAlLwmsFqic-146" value="S" style="ellipse;whiteSpace=wrap;html=1;fontSize=18;fillColor=#dae8fc;strokeColor=#6c8ebf;hachureGap=4;rounded=0;" parent="1" vertex="1">
          <mxGeometry x="291" y="1326.78" width="80" height="80" as="geometry" />
        </mxCell>
        <mxCell id="xx7hqxhj-xAlLwmsFqic-147" value="" style="rounded=0;orthogonalLoop=1;jettySize=auto;html=1;fontFamily=Helvetica;fontSize=18;fontColor=default;autosize=1;resizable=0;" parent="1" target="xx7hqxhj-xAlLwmsFqic-148" edge="1">
          <mxGeometry relative="1" as="geometry">
            <mxPoint x="100.90999999999997" y="1403.78" as="sourcePoint" />
          </mxGeometry>
        </mxCell>
        <mxCell id="xx7hqxhj-xAlLwmsFqic-148" value="Ɛ" style="whiteSpace=wrap;html=1;fontSize=18;fillColor=#dae8fc;strokeColor=#6c8ebf;hachureGap=4;rounded=0;" parent="1" vertex="1">
          <mxGeometry x="76" y="1465.7800000000002" width="50.54" height="60" as="geometry" />
        </mxCell>
        <mxCell id="xx7hqxhj-xAlLwmsFqic-149" value="" style="rounded=0;orthogonalLoop=1;jettySize=auto;html=1;fontFamily=Helvetica;fontSize=18;fontColor=default;autosize=1;resizable=0;" parent="1" target="xx7hqxhj-xAlLwmsFqic-152" edge="1">
          <mxGeometry relative="1" as="geometry">
            <mxPoint x="321.01" y="1400.78" as="sourcePoint" />
          </mxGeometry>
        </mxCell>
        <mxCell id="xx7hqxhj-xAlLwmsFqic-150" value="" style="rounded=0;orthogonalLoop=1;jettySize=auto;html=1;fontFamily=Helvetica;fontSize=18;fontColor=default;autosize=1;resizable=0;" parent="1" target="xx7hqxhj-xAlLwmsFqic-153" edge="1">
          <mxGeometry relative="1" as="geometry">
            <mxPoint x="303.01" y="1388.78" as="sourcePoint" />
          </mxGeometry>
        </mxCell>
        <mxCell id="xx7hqxhj-xAlLwmsFqic-151" value="" style="rounded=0;orthogonalLoop=1;jettySize=auto;html=1;fontFamily=Helvetica;fontSize=18;fontColor=default;autosize=1;resizable=0;" parent="1" target="xx7hqxhj-xAlLwmsFqic-154" edge="1">
          <mxGeometry relative="1" as="geometry">
            <mxPoint x="351.01" y="1399.78" as="sourcePoint" />
          </mxGeometry>
        </mxCell>
        <mxCell id="xx7hqxhj-xAlLwmsFqic-152" value="S" style="ellipse;whiteSpace=wrap;html=1;fontSize=18;fillColor=#dae8fc;strokeColor=#6c8ebf;hachureGap=4;rounded=0;" parent="1" vertex="1">
          <mxGeometry x="285.19000000000005" y="1467.78" width="80" height="80" as="geometry" />
        </mxCell>
        <mxCell id="xx7hqxhj-xAlLwmsFqic-153" value="b" style="whiteSpace=wrap;html=1;fontSize=18;fillColor=#dae8fc;strokeColor=#6c8ebf;hachureGap=4;rounded=0;" parent="1" vertex="1">
          <mxGeometry x="200.47000000000003" y="1480.78" width="57.97" height="60" as="geometry" />
        </mxCell>
        <mxCell id="xx7hqxhj-xAlLwmsFqic-154" value="a" style="whiteSpace=wrap;html=1;fontSize=18;fillColor=#dae8fc;strokeColor=#6c8ebf;hachureGap=4;rounded=0;" parent="1" vertex="1">
          <mxGeometry x="416.24" y="1478.78" width="63.01" height="60" as="geometry" />
        </mxCell>
        <mxCell id="xx7hqxhj-xAlLwmsFqic-155" value="" style="rounded=0;orthogonalLoop=1;jettySize=auto;html=1;fontFamily=Helvetica;fontSize=18;fontColor=default;autosize=1;resizable=0;" parent="1" target="xx7hqxhj-xAlLwmsFqic-156" edge="1">
          <mxGeometry relative="1" as="geometry">
            <mxPoint x="365.01" y="1388.78" as="sourcePoint" />
          </mxGeometry>
        </mxCell>
        <mxCell id="xx7hqxhj-xAlLwmsFqic-156" value="S" style="ellipse;whiteSpace=wrap;html=1;fontSize=18;fillColor=#dae8fc;strokeColor=#6c8ebf;hachureGap=4;rounded=0;" parent="1" vertex="1">
          <mxGeometry x="518.24" y="1470.78" width="80" height="80" as="geometry" />
        </mxCell>
        <mxCell id="xx7hqxhj-xAlLwmsFqic-157" value="" style="rounded=0;orthogonalLoop=1;jettySize=auto;html=1;fontFamily=Helvetica;fontSize=18;fontColor=default;autosize=1;resizable=0;" parent="1" target="xx7hqxhj-xAlLwmsFqic-158" edge="1">
          <mxGeometry relative="1" as="geometry">
            <mxPoint x="324.23" y="1547.78" as="sourcePoint" />
          </mxGeometry>
        </mxCell>
        <mxCell id="xx7hqxhj-xAlLwmsFqic-158" value="Ɛ" style="whiteSpace=wrap;html=1;fontSize=18;fillColor=#dae8fc;strokeColor=#6c8ebf;hachureGap=4;rounded=0;" parent="1" vertex="1">
          <mxGeometry x="299.91999999999996" y="1598.7800000000002" width="50.54" height="60" as="geometry" />
        </mxCell>
        <mxCell id="xx7hqxhj-xAlLwmsFqic-159" value="" style="rounded=0;orthogonalLoop=1;jettySize=auto;html=1;fontFamily=Helvetica;fontSize=18;fontColor=default;autosize=1;resizable=0;" parent="1" target="xx7hqxhj-xAlLwmsFqic-160" edge="1">
          <mxGeometry relative="1" as="geometry">
            <mxPoint x="552.28" y="1550.78" as="sourcePoint" />
          </mxGeometry>
        </mxCell>
        <mxCell id="xx7hqxhj-xAlLwmsFqic-160" value="Ɛ" style="whiteSpace=wrap;html=1;fontSize=18;fillColor=#dae8fc;strokeColor=#6c8ebf;hachureGap=4;rounded=0;" parent="1" vertex="1">
          <mxGeometry x="527.97" y="1601.7800000000002" width="50.54" height="60" as="geometry" />
        </mxCell>
        <mxCell id="xx7hqxhj-xAlLwmsFqic-161" value="" style="rounded=0;orthogonalLoop=1;jettySize=auto;html=1;fontFamily=Helvetica;fontSize=18;fontColor=default;autosize=1;resizable=0;" parent="1" source="xx7hqxhj-xAlLwmsFqic-164" target="xx7hqxhj-xAlLwmsFqic-165" edge="1">
          <mxGeometry relative="1" as="geometry" />
        </mxCell>
        <mxCell id="xx7hqxhj-xAlLwmsFqic-162" value="" style="rounded=0;orthogonalLoop=1;jettySize=auto;html=1;fontFamily=Helvetica;fontSize=18;fontColor=default;autosize=1;resizable=0;" parent="1" source="xx7hqxhj-xAlLwmsFqic-164" target="xx7hqxhj-xAlLwmsFqic-166" edge="1">
          <mxGeometry relative="1" as="geometry" />
        </mxCell>
        <mxCell id="xx7hqxhj-xAlLwmsFqic-163" value="" style="rounded=0;orthogonalLoop=1;jettySize=auto;html=1;fontFamily=Helvetica;fontSize=18;fontColor=default;autosize=1;resizable=0;" parent="1" source="xx7hqxhj-xAlLwmsFqic-164" target="xx7hqxhj-xAlLwmsFqic-167" edge="1">
          <mxGeometry relative="1" as="geometry" />
        </mxCell>
        <mxCell id="xx7hqxhj-xAlLwmsFqic-164" value="S" style="ellipse;whiteSpace=wrap;html=1;fontSize=18;fillColor=#dae8fc;strokeColor=#6c8ebf;hachureGap=4;rounded=0;" parent="1" vertex="1">
          <mxGeometry x="-474" y="1654" width="80" height="80" as="geometry" />
        </mxCell>
        <mxCell id="xx7hqxhj-xAlLwmsFqic-165" value="S" style="ellipse;whiteSpace=wrap;html=1;fontSize=18;fillColor=#dae8fc;strokeColor=#6c8ebf;hachureGap=4;rounded=0;" parent="1" vertex="1">
          <mxGeometry x="-525.05" y="1804" width="80" height="80" as="geometry" />
        </mxCell>
        <mxCell id="xx7hqxhj-xAlLwmsFqic-166" value="a" style="whiteSpace=wrap;html=1;fontSize=18;fillColor=#dae8fc;strokeColor=#6c8ebf;hachureGap=4;rounded=0;" parent="1" vertex="1">
          <mxGeometry x="-642" y="1815" width="57.97" height="60" as="geometry" />
        </mxCell>
        <mxCell id="xx7hqxhj-xAlLwmsFqic-167" value="b" style="whiteSpace=wrap;html=1;fontSize=18;fillColor=#dae8fc;strokeColor=#6c8ebf;hachureGap=4;rounded=0;" parent="1" vertex="1">
          <mxGeometry x="-418" y="1814" width="63.01" height="60" as="geometry" />
        </mxCell>
        <mxCell id="xx7hqxhj-xAlLwmsFqic-168" value="" style="rounded=0;orthogonalLoop=1;jettySize=auto;html=1;fontFamily=Helvetica;fontSize=18;fontColor=default;autosize=1;resizable=0;" parent="1" source="xx7hqxhj-xAlLwmsFqic-164" target="xx7hqxhj-xAlLwmsFqic-169" edge="1">
          <mxGeometry relative="1" as="geometry">
            <mxPoint x="-251.95000000000005" y="1740" as="sourcePoint" />
          </mxGeometry>
        </mxCell>
        <mxCell id="xx7hqxhj-xAlLwmsFqic-169" value="S" style="ellipse;whiteSpace=wrap;html=1;fontSize=18;fillColor=#dae8fc;strokeColor=#6c8ebf;hachureGap=4;rounded=0;" parent="1" vertex="1">
          <mxGeometry x="-292" y="1807" width="80" height="80" as="geometry" />
        </mxCell>
        <mxCell id="xx7hqxhj-xAlLwmsFqic-172" value="" style="rounded=0;orthogonalLoop=1;jettySize=auto;html=1;fontFamily=Helvetica;fontSize=18;fontColor=default;autosize=1;resizable=0;" parent="1" target="xx7hqxhj-xAlLwmsFqic-175" edge="1">
          <mxGeometry relative="1" as="geometry">
            <mxPoint x="-266.23" y="1882.55" as="sourcePoint" />
          </mxGeometry>
        </mxCell>
        <mxCell id="xx7hqxhj-xAlLwmsFqic-173" value="" style="rounded=0;orthogonalLoop=1;jettySize=auto;html=1;fontFamily=Helvetica;fontSize=18;fontColor=default;autosize=1;resizable=0;" parent="1" target="xx7hqxhj-xAlLwmsFqic-176" edge="1">
          <mxGeometry relative="1" as="geometry">
            <mxPoint x="-284.23" y="1870.55" as="sourcePoint" />
          </mxGeometry>
        </mxCell>
        <mxCell id="xx7hqxhj-xAlLwmsFqic-174" value="" style="rounded=0;orthogonalLoop=1;jettySize=auto;html=1;fontFamily=Helvetica;fontSize=18;fontColor=default;autosize=1;resizable=0;" parent="1" target="xx7hqxhj-xAlLwmsFqic-177" edge="1">
          <mxGeometry relative="1" as="geometry">
            <mxPoint x="-236.23000000000002" y="1881.55" as="sourcePoint" />
          </mxGeometry>
        </mxCell>
        <mxCell id="xx7hqxhj-xAlLwmsFqic-175" value="S" style="ellipse;whiteSpace=wrap;html=1;fontSize=18;fillColor=#dae8fc;strokeColor=#6c8ebf;hachureGap=4;rounded=0;" parent="1" vertex="1">
          <mxGeometry x="-302.04999999999995" y="1949.55" width="80" height="80" as="geometry" />
        </mxCell>
        <mxCell id="xx7hqxhj-xAlLwmsFqic-176" value="b" style="whiteSpace=wrap;html=1;fontSize=18;fillColor=#dae8fc;strokeColor=#6c8ebf;hachureGap=4;rounded=0;" parent="1" vertex="1">
          <mxGeometry x="-386.77" y="1962.55" width="57.97" height="60" as="geometry" />
        </mxCell>
        <mxCell id="xx7hqxhj-xAlLwmsFqic-177" value="a" style="whiteSpace=wrap;html=1;fontSize=18;fillColor=#dae8fc;strokeColor=#6c8ebf;hachureGap=4;rounded=0;" parent="1" vertex="1">
          <mxGeometry x="-171" y="1960.55" width="63.01" height="60" as="geometry" />
        </mxCell>
        <mxCell id="xx7hqxhj-xAlLwmsFqic-178" value="" style="rounded=0;orthogonalLoop=1;jettySize=auto;html=1;fontFamily=Helvetica;fontSize=18;fontColor=default;autosize=1;resizable=0;" parent="1" target="xx7hqxhj-xAlLwmsFqic-179" edge="1">
          <mxGeometry relative="1" as="geometry">
            <mxPoint x="-222.23000000000002" y="1870.55" as="sourcePoint" />
          </mxGeometry>
        </mxCell>
        <mxCell id="xx7hqxhj-xAlLwmsFqic-179" value="S" style="ellipse;whiteSpace=wrap;html=1;fontSize=18;fillColor=#dae8fc;strokeColor=#6c8ebf;hachureGap=4;rounded=0;" parent="1" vertex="1">
          <mxGeometry x="-69" y="1952.55" width="80" height="80" as="geometry" />
        </mxCell>
        <mxCell id="xx7hqxhj-xAlLwmsFqic-180" value="" style="rounded=0;orthogonalLoop=1;jettySize=auto;html=1;fontFamily=Helvetica;fontSize=18;fontColor=default;autosize=1;resizable=0;" parent="1" target="xx7hqxhj-xAlLwmsFqic-181" edge="1">
          <mxGeometry relative="1" as="geometry">
            <mxPoint x="-259.09000000000003" y="2029.55" as="sourcePoint" />
          </mxGeometry>
        </mxCell>
        <mxCell id="xx7hqxhj-xAlLwmsFqic-181" value="Ɛ" style="whiteSpace=wrap;html=1;fontSize=18;fillColor=#dae8fc;strokeColor=#6c8ebf;hachureGap=4;rounded=0;" parent="1" vertex="1">
          <mxGeometry x="-284" y="2091.55" width="50.54" height="60" as="geometry" />
        </mxCell>
        <mxCell id="xx7hqxhj-xAlLwmsFqic-194" value="" style="rounded=0;orthogonalLoop=1;jettySize=auto;html=1;fontFamily=Helvetica;fontSize=18;fontColor=default;autosize=1;resizable=0;" parent="1" target="xx7hqxhj-xAlLwmsFqic-197" edge="1">
          <mxGeometry relative="1" as="geometry">
            <mxPoint x="-497.46000000000004" y="1878" as="sourcePoint" />
          </mxGeometry>
        </mxCell>
        <mxCell id="xx7hqxhj-xAlLwmsFqic-195" value="" style="rounded=0;orthogonalLoop=1;jettySize=auto;html=1;fontFamily=Helvetica;fontSize=18;fontColor=default;autosize=1;resizable=0;" parent="1" target="xx7hqxhj-xAlLwmsFqic-198" edge="1">
          <mxGeometry relative="1" as="geometry">
            <mxPoint x="-515.46" y="1866" as="sourcePoint" />
          </mxGeometry>
        </mxCell>
        <mxCell id="xx7hqxhj-xAlLwmsFqic-196" value="" style="rounded=0;orthogonalLoop=1;jettySize=auto;html=1;fontFamily=Helvetica;fontSize=18;fontColor=default;autosize=1;resizable=0;" parent="1" target="xx7hqxhj-xAlLwmsFqic-199" edge="1">
          <mxGeometry relative="1" as="geometry">
            <mxPoint x="-467.46000000000004" y="1877" as="sourcePoint" />
          </mxGeometry>
        </mxCell>
        <mxCell id="xx7hqxhj-xAlLwmsFqic-197" value="S" style="ellipse;whiteSpace=wrap;html=1;fontSize=18;fillColor=#dae8fc;strokeColor=#6c8ebf;hachureGap=4;rounded=0;" parent="1" vertex="1">
          <mxGeometry x="-589" y="2022.5500000000002" width="80" height="80" as="geometry" />
        </mxCell>
        <mxCell id="xx7hqxhj-xAlLwmsFqic-198" value="b" style="whiteSpace=wrap;html=1;fontSize=18;fillColor=#dae8fc;strokeColor=#6c8ebf;hachureGap=4;rounded=0;" parent="1" vertex="1">
          <mxGeometry x="-674" y="2029.1000000000001" width="57.97" height="60" as="geometry" />
        </mxCell>
        <mxCell id="xx7hqxhj-xAlLwmsFqic-199" value="a" style="whiteSpace=wrap;html=1;fontSize=18;fillColor=#dae8fc;strokeColor=#6c8ebf;hachureGap=4;rounded=0;" parent="1" vertex="1">
          <mxGeometry x="-491" y="2029.5500000000002" width="63.01" height="60" as="geometry" />
        </mxCell>
        <mxCell id="xx7hqxhj-xAlLwmsFqic-200" value="" style="rounded=0;orthogonalLoop=1;jettySize=auto;html=1;fontFamily=Helvetica;fontSize=18;fontColor=default;autosize=1;resizable=0;" parent="1" target="xx7hqxhj-xAlLwmsFqic-201" edge="1">
          <mxGeometry relative="1" as="geometry">
            <mxPoint x="-453.46000000000004" y="1866" as="sourcePoint" />
          </mxGeometry>
        </mxCell>
        <mxCell id="xx7hqxhj-xAlLwmsFqic-201" value="S" style="ellipse;whiteSpace=wrap;html=1;fontSize=18;fillColor=#dae8fc;strokeColor=#6c8ebf;hachureGap=4;rounded=0;" parent="1" vertex="1">
          <mxGeometry x="-427.99" y="2093.1000000000004" width="80" height="80" as="geometry" />
        </mxCell>
        <mxCell id="xx7hqxhj-xAlLwmsFqic-202" value="" style="rounded=0;orthogonalLoop=1;jettySize=auto;html=1;fontFamily=Helvetica;fontSize=18;fontColor=default;autosize=1;resizable=0;" parent="1" target="xx7hqxhj-xAlLwmsFqic-203" edge="1">
          <mxGeometry relative="1" as="geometry">
            <mxPoint x="-547.69" y="2099.1000000000004" as="sourcePoint" />
          </mxGeometry>
        </mxCell>
        <mxCell id="xx7hqxhj-xAlLwmsFqic-203" value="Ɛ" style="whiteSpace=wrap;html=1;fontSize=18;fillColor=#dae8fc;strokeColor=#6c8ebf;hachureGap=4;rounded=0;" parent="1" vertex="1">
          <mxGeometry x="-572.0000000000001" y="2150.1000000000004" width="50.54" height="60" as="geometry" />
        </mxCell>
        <mxCell id="xx7hqxhj-xAlLwmsFqic-204" value="" style="rounded=0;orthogonalLoop=1;jettySize=auto;html=1;fontFamily=Helvetica;fontSize=18;fontColor=default;autosize=1;resizable=0;exitX=0.5;exitY=1;exitDx=0;exitDy=0;" parent="1" source="xx7hqxhj-xAlLwmsFqic-201" target="xx7hqxhj-xAlLwmsFqic-205" edge="1">
          <mxGeometry relative="1" as="geometry">
            <mxPoint x="-225.19000000000005" y="2104.55" as="sourcePoint" />
          </mxGeometry>
        </mxCell>
        <mxCell id="xx7hqxhj-xAlLwmsFqic-205" value="Ɛ" style="whiteSpace=wrap;html=1;fontSize=18;fillColor=#dae8fc;strokeColor=#6c8ebf;hachureGap=4;rounded=0;" parent="1" vertex="1">
          <mxGeometry x="-413.26" y="2197.55" width="50.54" height="60" as="geometry" />
        </mxCell>
        <mxCell id="xx7hqxhj-xAlLwmsFqic-206" value="" style="rounded=0;orthogonalLoop=1;jettySize=auto;html=1;fontFamily=Helvetica;fontSize=18;fontColor=default;autosize=1;resizable=0;" parent="1" target="xx7hqxhj-xAlLwmsFqic-207" edge="1">
          <mxGeometry relative="1" as="geometry">
            <mxPoint x="-29.360000000000042" y="2032.55" as="sourcePoint" />
          </mxGeometry>
        </mxCell>
        <mxCell id="xx7hqxhj-xAlLwmsFqic-207" value="Ɛ" style="whiteSpace=wrap;html=1;fontSize=18;fillColor=#dae8fc;strokeColor=#6c8ebf;hachureGap=4;rounded=0;" parent="1" vertex="1">
          <mxGeometry x="-54.27000000000001" y="2094.55" width="50.54" height="60" as="geometry" />
        </mxCell>
        <mxCell id="9RD790JI7l86FVb_q7uH-8" value="" style="edgeStyle=orthogonalEdgeStyle;rounded=0;orthogonalLoop=1;jettySize=auto;html=1;fontFamily=Helvetica;fontSize=18;fontColor=default;autosize=1;resizable=0;" edge="1" parent="1" source="9RD790JI7l86FVb_q7uH-1" target="9RD790JI7l86FVb_q7uH-7">
          <mxGeometry relative="1" as="geometry" />
        </mxCell>
        <mxCell id="9RD790JI7l86FVb_q7uH-1" value="W1" style="ellipse;whiteSpace=wrap;html=1;aspect=fixed;hachureGap=4;fillColor=#dae8fc;strokeColor=#6c8ebf;rounded=0;fontSize=18;" vertex="1" parent="1">
          <mxGeometry x="1884" y="985" width="80" height="80" as="geometry" />
        </mxCell>
        <mxCell id="9RD790JI7l86FVb_q7uH-2" style="edgeStyle=orthogonalEdgeStyle;rounded=0;orthogonalLoop=1;jettySize=auto;html=1;fontSize=18;entryX=0;entryY=0.5;entryDx=0;entryDy=0;" edge="1" parent="1" target="9RD790JI7l86FVb_q7uH-1">
          <mxGeometry relative="1" as="geometry">
            <mxPoint x="1807" y="1025" as="sourcePoint" />
            <mxPoint x="1848" y="656" as="targetPoint" />
          </mxGeometry>
        </mxCell>
        <mxCell id="9RD790JI7l86FVb_q7uH-3" style="edgeStyle=orthogonalEdgeStyle;rounded=0;orthogonalLoop=1;jettySize=auto;html=1;exitX=0;exitY=0;exitDx=0;exitDy=0;entryX=0.5;entryY=0;entryDx=0;entryDy=0;curved=1;" edge="1" parent="1" source="9RD790JI7l86FVb_q7uH-1" target="9RD790JI7l86FVb_q7uH-1">
          <mxGeometry relative="1" as="geometry">
            <Array as="points">
              <mxPoint x="1896" y="944" />
              <mxPoint x="1924" y="944" />
            </Array>
          </mxGeometry>
        </mxCell>
        <mxCell id="9RD790JI7l86FVb_q7uH-5" value="a&amp;nbsp;&lt;span style=&quot;text-wrap: wrap;&quot;&gt;Ɛ/A&lt;/span&gt;" style="text;html=1;align=center;verticalAlign=middle;resizable=0;points=[];autosize=1;strokeColor=none;fillColor=none;fontFamily=Helvetica;fontSize=18;fontColor=default;" vertex="1" parent="1">
          <mxGeometry x="1867.5" y="904" width="61" height="34" as="geometry" />
        </mxCell>
        <mxCell id="9RD790JI7l86FVb_q7uH-6" value="b&amp;nbsp;&lt;span style=&quot;text-wrap: wrap;&quot;&gt;Ɛ/B&lt;/span&gt;" style="text;html=1;align=center;verticalAlign=middle;resizable=0;points=[];autosize=1;strokeColor=none;fillColor=none;fontFamily=Helvetica;fontSize=18;fontColor=default;" vertex="1" parent="1">
          <mxGeometry x="1867.5" y="872" width="61" height="34" as="geometry" />
        </mxCell>
        <mxCell id="9RD790JI7l86FVb_q7uH-12" value="" style="edgeStyle=orthogonalEdgeStyle;rounded=0;orthogonalLoop=1;jettySize=auto;html=1;fontFamily=Helvetica;fontSize=18;fontColor=default;autosize=1;resizable=0;" edge="1" parent="1" source="9RD790JI7l86FVb_q7uH-7" target="9RD790JI7l86FVb_q7uH-11">
          <mxGeometry relative="1" as="geometry" />
        </mxCell>
        <mxCell id="9RD790JI7l86FVb_q7uH-7" value="#" style="ellipse;whiteSpace=wrap;html=1;aspect=fixed;hachureGap=4;fillColor=#dae8fc;strokeColor=#6c8ebf;rounded=0;fontSize=18;" vertex="1" parent="1">
          <mxGeometry x="2083" y="985" width="80" height="80" as="geometry" />
        </mxCell>
        <mxCell id="9RD790JI7l86FVb_q7uH-10" value="&lt;span style=&quot;text-wrap: nowrap;&quot;&gt;#&amp;nbsp;&lt;/span&gt;Ɛ / Ɛ&amp;nbsp;" style="rounded=0;whiteSpace=wrap;html=1;align=center;verticalAlign=middle;fontFamily=Helvetica;fontSize=18;fontColor=default;autosize=1;resizable=0;fillColor=none;gradientColor=none;strokeColor=none;" vertex="1" parent="1">
          <mxGeometry x="1988.5" y="981" width="75" height="34" as="geometry" />
        </mxCell>
        <mxCell id="9RD790JI7l86FVb_q7uH-16" value="" style="edgeStyle=orthogonalEdgeStyle;rounded=0;orthogonalLoop=1;jettySize=auto;html=1;fontFamily=Helvetica;fontSize=18;fontColor=default;autosize=1;resizable=0;" edge="1" parent="1" source="9RD790JI7l86FVb_q7uH-11" target="9RD790JI7l86FVb_q7uH-15">
          <mxGeometry relative="1" as="geometry" />
        </mxCell>
        <mxCell id="9RD790JI7l86FVb_q7uH-11" value="W2" style="ellipse;whiteSpace=wrap;html=1;aspect=fixed;hachureGap=4;fillColor=#dae8fc;strokeColor=#6c8ebf;rounded=0;fontSize=18;" vertex="1" parent="1">
          <mxGeometry x="2243" y="985" width="80" height="80" as="geometry" />
        </mxCell>
        <mxCell id="9RD790JI7l86FVb_q7uH-13" style="edgeStyle=orthogonalEdgeStyle;rounded=0;orthogonalLoop=1;jettySize=auto;html=1;exitX=0;exitY=0;exitDx=0;exitDy=0;entryX=0.5;entryY=0;entryDx=0;entryDy=0;fontFamily=Helvetica;fontSize=18;fontColor=default;autosize=1;resizable=0;curved=1;" edge="1" parent="1" source="9RD790JI7l86FVb_q7uH-11" target="9RD790JI7l86FVb_q7uH-11">
          <mxGeometry relative="1" as="geometry">
            <Array as="points">
              <mxPoint x="2255" y="961" />
              <mxPoint x="2283" y="961" />
            </Array>
          </mxGeometry>
        </mxCell>
        <mxCell id="9RD790JI7l86FVb_q7uH-14" value="&lt;span style=&quot;text-wrap: nowrap;&quot;&gt;a A&lt;/span&gt; / Ɛ&amp;nbsp;&lt;div&gt;b B /&amp;nbsp;&lt;span style=&quot;background-color: initial;&quot;&gt;Ɛ&lt;/span&gt;&lt;span style=&quot;background-color: initial; color: rgba(0, 0, 0, 0); font-family: monospace; font-size: 0px; text-align: start; text-wrap: nowrap;&quot;&gt;%3CmxGraphModel%3E%3Croot%3E%3CmxCell%20id%3D%220%22%2F%3E%3CmxCell%20id%3D%221%22%20parent%3D%220%22%2F%3E%3CmxCell%20id%3D%222%22%20value%3D%22%26lt%3Bspan%20style%3D%26quot%3Btext-wrap%3A%20nowrap%3B%26quot%3B%26gt%3B%23%26amp%3Bnbsp%3B%26lt%3B%2Fspan%26gt%3B%C6%90%20%2F%20%C6%90%26amp%3Bnbsp%3B%22%20style%3D%22rounded%3D0%3BwhiteSpace%3Dwrap%3Bhtml%3D1%3Balign%3Dcenter%3BverticalAlign%3Dmiddle%3BfontFamily%3DHelvetica%3BfontSize%3D18%3BfontColor%3Ddefault%3Bautosize%3D1%3Bresizable%3D0%3BfillColor%3Dnone%3BgradientColor%3Dnone%3BstrokeColor%3Dnone%3B%22%20vertex%3D%221%22%20parent%3D%221%22%3E%3CmxGeometry%20x%3D%221988.5%22%20y%3D%22981%22%20width%3D%2275%22%20height%3D%2234%22%20as%3D%22geometry%22%2F%3E%3C%2FmxCell%3E%3C%2Froot%3E%3C%2FmxGraphModel%3E&lt;/span&gt;&lt;/div&gt;" style="rounded=0;whiteSpace=wrap;html=1;align=center;verticalAlign=middle;fontFamily=Helvetica;fontSize=18;fontColor=default;autosize=1;resizable=0;fillColor=none;gradientColor=none;strokeColor=none;" vertex="1" parent="1">
          <mxGeometry x="2229" y="901" width="74" height="55" as="geometry" />
        </mxCell>
        <mxCell id="9RD790JI7l86FVb_q7uH-15" value="F" style="ellipse;whiteSpace=wrap;html=1;aspect=fixed;hachureGap=4;fillColor=#dae8fc;strokeColor=#6c8ebf;rounded=0;fontSize=18;" vertex="1" parent="1">
          <mxGeometry x="2440" y="985" width="80" height="80" as="geometry" />
        </mxCell>
        <mxCell id="9RD790JI7l86FVb_q7uH-17" value="" style="ellipse;whiteSpace=wrap;html=1;aspect=fixed;align=center;verticalAlign=middle;fontFamily=Helvetica;fontSize=18;fontColor=default;fillColor=none;gradientColor=none;strokeColor=#000000;" vertex="1" parent="1">
          <mxGeometry x="2446.5" y="991.5" width="67" height="67" as="geometry" />
        </mxCell>
        <mxCell id="9RD790JI7l86FVb_q7uH-18" style="edgeStyle=orthogonalEdgeStyle;rounded=0;orthogonalLoop=1;jettySize=auto;html=1;exitX=0;exitY=0;exitDx=0;exitDy=0;entryX=0.5;entryY=0;entryDx=0;entryDy=0;fontFamily=Helvetica;fontSize=18;fontColor=default;autosize=1;resizable=0;curved=1;" edge="1" parent="1" source="9RD790JI7l86FVb_q7uH-15" target="9RD790JI7l86FVb_q7uH-15">
          <mxGeometry relative="1" as="geometry">
            <Array as="points">
              <mxPoint x="2452" y="960" />
              <mxPoint x="2480" y="960" />
            </Array>
          </mxGeometry>
        </mxCell>
        <mxCell id="9RD790JI7l86FVb_q7uH-19" value="&lt;span style=&quot;text-wrap: nowrap;&quot;&gt;a&amp;nbsp;&lt;/span&gt;Ɛ&amp;nbsp;/ Ɛ&amp;nbsp;&lt;div&gt;b&amp;nbsp;&lt;span style=&quot;background-color: initial;&quot;&gt;Ɛ&lt;/span&gt;&lt;span style=&quot;background-color: initial;&quot;&gt;&amp;nbsp;/&amp;nbsp;&lt;/span&gt;&lt;span style=&quot;background-color: initial;&quot;&gt;Ɛ&lt;/span&gt;&lt;span style=&quot;background-color: initial; text-wrap: nowrap; color: rgba(0, 0, 0, 0); font-family: monospace; font-size: 0px; text-align: start;&quot;&gt;%3CmxGraphModel%3E%3Croot%3E%3CmxCell%20id%3D%220%22%2F%3E%3CmxCell%20id%3D%221%22%20parent%3D%220%22%2F%3E%3CmxCell%20id%3D%222%22%20value%3D%22%26lt%3Bspan%20style%3D%26quot%3Btext-wrap%3A%20nowrap%3B%26quot%3B%26gt%3B%23%26amp%3Bnbsp%3B%26lt%3B%2Fspan%26gt%3B%C6%90%20%2F%20%C6%90%26amp%3Bnbsp%3B%22%20style%3D%22rounded%3D0%3BwhiteSpace%3Dwrap%3Bhtml%3D1%3Balign%3Dcenter%3BverticalAlign%3Dmiddle%3BfontFamily%3DHelvetica%3BfontSize%3D18%3BfontColor%3Ddefault%3Bautosize%3D1%3Bresizable%3D0%3BfillColor%3Dnone%3BgradientColor%3Dnone%3BstrokeColor%3Dnone%3B%22%20vertex%3D%221%22%20parent%3D%221%22%3E%3CmxGeometry%20x%3D%221988.5%22%20y%3D%22981%22%20width%3D%2275%22%20height%3D%2234%22%20as%3D%22geometry%22%2F%3E%3C%2FmxCell%3E%3C%2Froot%3E%3C%2FmxGraphModel%3E&lt;/span&gt;&lt;/div&gt;" style="rounded=0;whiteSpace=wrap;html=1;align=center;verticalAlign=middle;fontFamily=Helvetica;fontSize=18;fontColor=default;autosize=1;resizable=0;fillColor=none;gradientColor=none;strokeColor=none;" vertex="1" parent="1">
          <mxGeometry x="2440" y="901" width="75" height="55" as="geometry" />
        </mxCell>
        <mxCell id="9RD790JI7l86FVb_q7uH-20" value="&lt;span style=&quot;text-wrap: nowrap;&quot;&gt;a B /&amp;nbsp;&lt;/span&gt;Ɛ&lt;br&gt;b A / Ɛ&lt;br&gt;a Z / Z&lt;br&gt;b Z / Z" style="rounded=0;whiteSpace=wrap;html=1;align=center;verticalAlign=middle;fontFamily=Helvetica;fontSize=18;fontColor=default;autosize=1;resizable=0;fillColor=none;gradientColor=none;strokeColor=none;" vertex="1" parent="1">
          <mxGeometry x="2342.5" y="920" width="71" height="98" as="geometry" />
        </mxCell>
        <mxCell id="9RD790JI7l86FVb_q7uH-29" value="" style="edgeStyle=orthogonalEdgeStyle;rounded=0;orthogonalLoop=1;jettySize=auto;html=1;fontFamily=Helvetica;fontSize=18;fontColor=default;autosize=1;resizable=0;" edge="1" parent="1" source="9RD790JI7l86FVb_q7uH-23" target="9RD790JI7l86FVb_q7uH-28">
          <mxGeometry relative="1" as="geometry" />
        </mxCell>
        <mxCell id="9RD790JI7l86FVb_q7uH-33" value="" style="edgeStyle=orthogonalEdgeStyle;rounded=0;orthogonalLoop=1;jettySize=auto;html=1;fontFamily=Helvetica;fontSize=18;fontColor=default;autosize=1;resizable=0;" edge="1" parent="1" source="9RD790JI7l86FVb_q7uH-23" target="9RD790JI7l86FVb_q7uH-32">
          <mxGeometry relative="1" as="geometry" />
        </mxCell>
        <mxCell id="9RD790JI7l86FVb_q7uH-23" value="VR(ab)*" style="ellipse;whiteSpace=wrap;html=1;aspect=fixed;hachureGap=4;fillColor=#dae8fc;strokeColor=#6c8ebf;rounded=0;fontSize=18;" vertex="1" parent="1">
          <mxGeometry x="1873.5" y="1272" width="80" height="80" as="geometry" />
        </mxCell>
        <mxCell id="9RD790JI7l86FVb_q7uH-24" style="edgeStyle=orthogonalEdgeStyle;rounded=0;orthogonalLoop=1;jettySize=auto;html=1;fontSize=18;entryX=0;entryY=0.5;entryDx=0;entryDy=0;" edge="1" parent="1" target="9RD790JI7l86FVb_q7uH-23">
          <mxGeometry relative="1" as="geometry">
            <mxPoint x="1796.5" y="1312" as="sourcePoint" />
            <mxPoint x="1837.5" y="943" as="targetPoint" />
          </mxGeometry>
        </mxCell>
        <mxCell id="9RD790JI7l86FVb_q7uH-26" value="a&amp;nbsp;&lt;span style=&quot;text-wrap: wrap;&quot;&gt;Ɛ/A&lt;/span&gt;" style="text;html=1;align=center;verticalAlign=middle;resizable=0;points=[];autosize=1;strokeColor=none;fillColor=none;fontFamily=Helvetica;fontSize=18;fontColor=default;" vertex="1" parent="1">
          <mxGeometry x="1957" y="1272" width="61" height="34" as="geometry" />
        </mxCell>
        <mxCell id="9RD790JI7l86FVb_q7uH-30" style="edgeStyle=orthogonalEdgeStyle;rounded=0;orthogonalLoop=1;jettySize=auto;html=1;entryX=0.5;entryY=0;entryDx=0;entryDy=0;fontFamily=Helvetica;fontSize=18;fontColor=default;autosize=1;resizable=0;" edge="1" parent="1" source="9RD790JI7l86FVb_q7uH-28" target="9RD790JI7l86FVb_q7uH-23">
          <mxGeometry relative="1" as="geometry">
            <Array as="points">
              <mxPoint x="2074" y="1225" />
              <mxPoint x="1914" y="1225" />
            </Array>
          </mxGeometry>
        </mxCell>
        <mxCell id="9RD790JI7l86FVb_q7uH-28" value="VR(a)" style="ellipse;whiteSpace=wrap;html=1;aspect=fixed;hachureGap=4;fillColor=#dae8fc;strokeColor=#6c8ebf;rounded=0;fontSize=18;" vertex="1" parent="1">
          <mxGeometry x="2033.5" y="1272" width="80" height="80" as="geometry" />
        </mxCell>
        <mxCell id="9RD790JI7l86FVb_q7uH-31" value="b A&amp;nbsp;&lt;span style=&quot;text-wrap: wrap;&quot;&gt;/BA&lt;/span&gt;" style="text;html=1;align=center;verticalAlign=middle;resizable=0;points=[];autosize=1;strokeColor=none;fillColor=none;fontFamily=Helvetica;fontSize=18;fontColor=default;perimeterSpacing=0;" vertex="1" parent="1">
          <mxGeometry x="1953.5" y="1181.23" width="78" height="34" as="geometry" />
        </mxCell>
        <mxCell id="9RD790JI7l86FVb_q7uH-35" value="" style="edgeStyle=orthogonalEdgeStyle;rounded=0;orthogonalLoop=1;jettySize=auto;html=1;fontFamily=Helvetica;fontSize=18;fontColor=default;autosize=1;resizable=0;" edge="1" parent="1" source="9RD790JI7l86FVb_q7uH-32" target="9RD790JI7l86FVb_q7uH-34">
          <mxGeometry relative="1" as="geometry" />
        </mxCell>
        <mxCell id="9RD790JI7l86FVb_q7uH-41" value="" style="edgeStyle=orthogonalEdgeStyle;rounded=0;orthogonalLoop=1;jettySize=auto;html=1;fontFamily=Helvetica;fontSize=18;fontColor=default;autosize=1;resizable=0;" edge="1" parent="1" source="9RD790JI7l86FVb_q7uH-32" target="9RD790JI7l86FVb_q7uH-40">
          <mxGeometry relative="1" as="geometry" />
        </mxCell>
        <mxCell id="9RD790JI7l86FVb_q7uH-32" value="x(ba)*" style="ellipse;whiteSpace=wrap;html=1;aspect=fixed;hachureGap=4;fillColor=#dae8fc;strokeColor=#6c8ebf;rounded=0;fontSize=18;" vertex="1" parent="1">
          <mxGeometry x="1873.5" y="1445.78" width="80" height="80" as="geometry" />
        </mxCell>
        <mxCell id="9RD790JI7l86FVb_q7uH-37" style="edgeStyle=orthogonalEdgeStyle;rounded=0;orthogonalLoop=1;jettySize=auto;html=1;entryX=0.5;entryY=1;entryDx=0;entryDy=0;fontFamily=Helvetica;fontSize=18;fontColor=default;autosize=1;resizable=0;" edge="1" parent="1" source="9RD790JI7l86FVb_q7uH-34" target="9RD790JI7l86FVb_q7uH-32">
          <mxGeometry relative="1" as="geometry">
            <Array as="points">
              <mxPoint x="2071" y="1572" />
              <mxPoint x="1914" y="1572" />
            </Array>
          </mxGeometry>
        </mxCell>
        <mxCell id="9RD790JI7l86FVb_q7uH-34" value="x(b)" style="ellipse;whiteSpace=wrap;html=1;aspect=fixed;hachureGap=4;fillColor=#dae8fc;strokeColor=#6c8ebf;rounded=0;fontSize=18;" vertex="1" parent="1">
          <mxGeometry x="2033.5" y="1445.78" width="80" height="80" as="geometry" />
        </mxCell>
        <mxCell id="9RD790JI7l86FVb_q7uH-36" value="b B&amp;nbsp;&lt;span style=&quot;text-wrap: wrap;&quot;&gt;/&amp;nbsp;&lt;/span&gt;&lt;span style=&quot;text-wrap: wrap;&quot;&gt;Ɛ&lt;/span&gt;" style="text;html=1;align=center;verticalAlign=middle;resizable=0;points=[];autosize=1;strokeColor=none;fillColor=none;fontFamily=Helvetica;fontSize=18;fontColor=default;" vertex="1" parent="1">
          <mxGeometry x="1959" y="1444.78" width="71" height="34" as="geometry" />
        </mxCell>
        <mxCell id="9RD790JI7l86FVb_q7uH-38" value="a A /&amp;nbsp;&lt;span style=&quot;text-wrap: wrap;&quot;&gt;Ɛ&lt;/span&gt;" style="text;html=1;align=center;verticalAlign=middle;resizable=0;points=[];autosize=1;strokeColor=none;fillColor=none;fontFamily=Helvetica;fontSize=18;fontColor=default;" vertex="1" parent="1">
          <mxGeometry x="1960" y="1581" width="69" height="34" as="geometry" />
        </mxCell>
        <mxCell id="9RD790JI7l86FVb_q7uH-39" value="&lt;span style=&quot;text-wrap: wrap;&quot;&gt;Ɛ&lt;/span&gt;&amp;nbsp;&lt;span style=&quot;text-wrap: wrap;&quot;&gt;Ɛ&lt;/span&gt;&amp;nbsp;/&amp;nbsp;&lt;span style=&quot;text-wrap: wrap;&quot;&gt;Ɛ&lt;/span&gt;" style="text;html=1;align=center;verticalAlign=middle;resizable=0;points=[];autosize=1;strokeColor=none;fillColor=none;fontFamily=Helvetica;fontSize=18;fontColor=default;" vertex="1" parent="1">
          <mxGeometry x="1921" y="1381" width="71" height="34" as="geometry" />
        </mxCell>
        <mxCell id="9RD790JI7l86FVb_q7uH-40" value="F" style="ellipse;whiteSpace=wrap;html=1;aspect=fixed;hachureGap=4;fillColor=#dae8fc;strokeColor=#6c8ebf;rounded=0;fontSize=18;" vertex="1" parent="1">
          <mxGeometry x="1713.5" y="1445.78" width="80" height="80" as="geometry" />
        </mxCell>
        <mxCell id="9RD790JI7l86FVb_q7uH-42" value="&lt;span style=&quot;text-wrap: wrap;&quot;&gt;Ɛ&lt;/span&gt;&amp;nbsp;Z / &lt;span style=&quot;text-wrap: wrap;&quot;&gt;Z&lt;/span&gt;" style="text;html=1;align=center;verticalAlign=middle;resizable=0;points=[];autosize=1;strokeColor=none;fillColor=none;fontFamily=Helvetica;fontSize=18;fontColor=default;" vertex="1" parent="1">
          <mxGeometry x="1800" y="1442" width="71" height="34" as="geometry" />
        </mxCell>
        <mxCell id="9RD790JI7l86FVb_q7uH-43" value="" style="ellipse;whiteSpace=wrap;html=1;aspect=fixed;align=center;verticalAlign=middle;fontFamily=Helvetica;fontSize=18;fontColor=default;fillColor=none;gradientColor=none;strokeColor=#000000;" vertex="1" parent="1">
          <mxGeometry x="1720" y="1452.28" width="67" height="67" as="geometry" />
        </mxCell>
        <mxCell id="9RD790JI7l86FVb_q7uH-50" value="" style="edgeStyle=orthogonalEdgeStyle;rounded=0;orthogonalLoop=1;jettySize=auto;html=1;fontFamily=Helvetica;fontSize=18;fontColor=default;autosize=1;resizable=0;" edge="1" parent="1" source="9RD790JI7l86FVb_q7uH-44" target="9RD790JI7l86FVb_q7uH-49">
          <mxGeometry relative="1" as="geometry" />
        </mxCell>
        <mxCell id="9RD790JI7l86FVb_q7uH-44" value="a" style="ellipse;whiteSpace=wrap;html=1;aspect=fixed;hachureGap=4;fillColor=#dae8fc;strokeColor=#6c8ebf;rounded=0;fontSize=18;" vertex="1" parent="1">
          <mxGeometry x="1818" y="1767" width="80" height="80" as="geometry" />
        </mxCell>
        <mxCell id="9RD790JI7l86FVb_q7uH-45" style="edgeStyle=orthogonalEdgeStyle;rounded=0;orthogonalLoop=1;jettySize=auto;html=1;fontSize=18;entryX=0;entryY=0.5;entryDx=0;entryDy=0;" edge="1" parent="1" target="9RD790JI7l86FVb_q7uH-44">
          <mxGeometry relative="1" as="geometry">
            <mxPoint x="1741" y="1807" as="sourcePoint" />
            <mxPoint x="1782" y="1438" as="targetPoint" />
          </mxGeometry>
        </mxCell>
        <mxCell id="9RD790JI7l86FVb_q7uH-46" style="edgeStyle=orthogonalEdgeStyle;rounded=0;orthogonalLoop=1;jettySize=auto;html=1;exitX=0;exitY=0;exitDx=0;exitDy=0;entryX=0.5;entryY=0;entryDx=0;entryDy=0;curved=1;" edge="1" parent="1" source="9RD790JI7l86FVb_q7uH-44" target="9RD790JI7l86FVb_q7uH-44">
          <mxGeometry relative="1" as="geometry">
            <Array as="points">
              <mxPoint x="1830" y="1726" />
              <mxPoint x="1858" y="1726" />
            </Array>
          </mxGeometry>
        </mxCell>
        <mxCell id="9RD790JI7l86FVb_q7uH-47" value="a&amp;nbsp;&lt;span style=&quot;text-wrap: wrap;&quot;&gt;Ɛ/A&lt;/span&gt;" style="text;html=1;align=center;verticalAlign=middle;resizable=0;points=[];autosize=1;strokeColor=none;fillColor=none;fontFamily=Helvetica;fontSize=18;fontColor=default;" vertex="1" parent="1">
          <mxGeometry x="1801.5" y="1686" width="61" height="34" as="geometry" />
        </mxCell>
        <mxCell id="9RD790JI7l86FVb_q7uH-55" value="" style="edgeStyle=orthogonalEdgeStyle;rounded=0;orthogonalLoop=1;jettySize=auto;html=1;fontFamily=Helvetica;fontSize=18;fontColor=default;autosize=1;resizable=0;" edge="1" parent="1" source="9RD790JI7l86FVb_q7uH-49" target="9RD790JI7l86FVb_q7uH-54">
          <mxGeometry relative="1" as="geometry" />
        </mxCell>
        <mxCell id="9RD790JI7l86FVb_q7uH-49" value="b" style="ellipse;whiteSpace=wrap;html=1;aspect=fixed;hachureGap=4;fillColor=#dae8fc;strokeColor=#6c8ebf;rounded=0;fontSize=18;" vertex="1" parent="1">
          <mxGeometry x="1978" y="1767" width="80" height="80" as="geometry" />
        </mxCell>
        <mxCell id="9RD790JI7l86FVb_q7uH-51" value="&lt;span style=&quot;text-wrap: wrap;&quot;&gt;Ɛ&lt;/span&gt;&amp;nbsp;&lt;span style=&quot;text-wrap: wrap;&quot;&gt;Ɛ&lt;/span&gt;&amp;nbsp;/&amp;nbsp;&lt;span style=&quot;text-wrap: wrap;&quot;&gt;Ɛ&lt;/span&gt;" style="text;html=1;align=center;verticalAlign=middle;resizable=0;points=[];autosize=1;strokeColor=none;fillColor=none;fontFamily=Helvetica;fontSize=18;fontColor=default;" vertex="1" parent="1">
          <mxGeometry x="1902.5" y="1765" width="71" height="34" as="geometry" />
        </mxCell>
        <mxCell id="9RD790JI7l86FVb_q7uH-52" style="edgeStyle=orthogonalEdgeStyle;rounded=0;orthogonalLoop=1;jettySize=auto;html=1;exitX=1;exitY=0;exitDx=0;exitDy=0;entryX=0.5;entryY=0;entryDx=0;entryDy=0;fontFamily=Helvetica;fontSize=18;fontColor=default;autosize=1;resizable=0;curved=1;" edge="1" parent="1" source="9RD790JI7l86FVb_q7uH-49" target="9RD790JI7l86FVb_q7uH-49">
          <mxGeometry relative="1" as="geometry">
            <Array as="points">
              <mxPoint x="2046" y="1736" />
              <mxPoint x="2018" y="1736" />
            </Array>
          </mxGeometry>
        </mxCell>
        <mxCell id="9RD790JI7l86FVb_q7uH-53" value="&lt;span style=&quot;text-wrap: wrap;&quot;&gt;b&lt;/span&gt;&amp;nbsp;&lt;span style=&quot;text-wrap: wrap;&quot;&gt;A&lt;/span&gt;&amp;nbsp;/&amp;nbsp;&lt;span style=&quot;text-wrap: wrap;&quot;&gt;Ɛ&lt;/span&gt;&lt;div&gt;&lt;span style=&quot;text-wrap: wrap;&quot;&gt;b Z /B&lt;br&gt;b B /B&lt;/span&gt;&lt;/div&gt;" style="text;html=1;align=center;verticalAlign=middle;resizable=0;points=[];autosize=1;strokeColor=none;fillColor=none;fontFamily=Helvetica;fontSize=18;fontColor=default;" vertex="1" parent="1">
          <mxGeometry x="1996" y="1658.78" width="71" height="77" as="geometry" />
        </mxCell>
        <mxCell id="9RD790JI7l86FVb_q7uH-60" value="" style="edgeStyle=orthogonalEdgeStyle;rounded=0;orthogonalLoop=1;jettySize=auto;html=1;fontFamily=Helvetica;fontSize=18;fontColor=default;autosize=1;resizable=0;" edge="1" parent="1" source="9RD790JI7l86FVb_q7uH-54" target="9RD790JI7l86FVb_q7uH-59">
          <mxGeometry relative="1" as="geometry" />
        </mxCell>
        <mxCell id="9RD790JI7l86FVb_q7uH-54" value="c" style="ellipse;whiteSpace=wrap;html=1;aspect=fixed;hachureGap=4;fillColor=#dae8fc;strokeColor=#6c8ebf;rounded=0;fontSize=18;" vertex="1" parent="1">
          <mxGeometry x="2182.5" y="1767" width="80" height="80" as="geometry" />
        </mxCell>
        <mxCell id="9RD790JI7l86FVb_q7uH-56" value="&lt;span style=&quot;text-wrap: wrap;&quot;&gt;c&lt;/span&gt;&amp;nbsp;&lt;span style=&quot;text-wrap: wrap;&quot;&gt;B&lt;/span&gt;&amp;nbsp;/&amp;nbsp;&lt;span style=&quot;text-wrap: wrap;&quot;&gt;Ɛ&lt;/span&gt;" style="text;html=1;align=center;verticalAlign=middle;resizable=0;points=[];autosize=1;strokeColor=none;fillColor=none;fontFamily=Helvetica;fontSize=18;fontColor=default;" vertex="1" parent="1">
          <mxGeometry x="2086" y="1765" width="70" height="34" as="geometry" />
        </mxCell>
        <mxCell id="9RD790JI7l86FVb_q7uH-57" style="edgeStyle=orthogonalEdgeStyle;rounded=0;orthogonalLoop=1;jettySize=auto;html=1;exitX=0;exitY=0;exitDx=0;exitDy=0;entryX=0.5;entryY=0;entryDx=0;entryDy=0;fontFamily=Helvetica;fontSize=18;fontColor=default;autosize=1;resizable=0;curved=1;" edge="1" parent="1" source="9RD790JI7l86FVb_q7uH-54" target="9RD790JI7l86FVb_q7uH-54">
          <mxGeometry relative="1" as="geometry">
            <Array as="points">
              <mxPoint x="2194" y="1738" />
              <mxPoint x="2222" y="1738" />
            </Array>
          </mxGeometry>
        </mxCell>
        <mxCell id="9RD790JI7l86FVb_q7uH-58" value="&lt;span style=&quot;text-wrap: wrap;&quot;&gt;c&lt;/span&gt;&amp;nbsp;&lt;span style=&quot;text-wrap: wrap;&quot;&gt;B&lt;/span&gt;&amp;nbsp;/&amp;nbsp;&lt;span style=&quot;text-wrap: wrap;&quot;&gt;Ɛ&lt;/span&gt;" style="text;html=1;align=center;verticalAlign=middle;resizable=0;points=[];autosize=1;strokeColor=none;fillColor=none;fontFamily=Helvetica;fontSize=18;fontColor=default;" vertex="1" parent="1">
          <mxGeometry x="2176" y="1697" width="70" height="34" as="geometry" />
        </mxCell>
        <mxCell id="9RD790JI7l86FVb_q7uH-59" value="F" style="ellipse;whiteSpace=wrap;html=1;aspect=fixed;hachureGap=4;fillColor=#dae8fc;strokeColor=#6c8ebf;rounded=0;fontSize=18;" vertex="1" parent="1">
          <mxGeometry x="2182.5" y="1927" width="80" height="80" as="geometry" />
        </mxCell>
        <mxCell id="9RD790JI7l86FVb_q7uH-61" value="&lt;span style=&quot;text-wrap: wrap;&quot;&gt;ƐZ/Z&lt;/span&gt;" style="text;html=1;align=center;verticalAlign=middle;resizable=0;points=[];autosize=1;strokeColor=none;fillColor=none;fontFamily=Helvetica;fontSize=18;fontColor=default;" vertex="1" parent="1">
          <mxGeometry x="2156" y="1870" width="56" height="34" as="geometry" />
        </mxCell>
        <mxCell id="9RD790JI7l86FVb_q7uH-62" value="" style="ellipse;whiteSpace=wrap;html=1;aspect=fixed;align=center;verticalAlign=middle;fontFamily=Helvetica;fontSize=18;fontColor=default;fillColor=none;gradientColor=none;strokeColor=#000000;" vertex="1" parent="1">
          <mxGeometry x="2188.5" y="1933.5" width="67" height="67" as="geometry" />
        </mxCell>
        <mxCell id="9RD790JI7l86FVb_q7uH-68" value="" style="edgeStyle=orthogonalEdgeStyle;rounded=0;orthogonalLoop=1;jettySize=auto;html=1;fontFamily=Helvetica;fontSize=18;fontColor=default;autosize=1;resizable=0;" edge="1" parent="1" source="9RD790JI7l86FVb_q7uH-63" target="9RD790JI7l86FVb_q7uH-67">
          <mxGeometry relative="1" as="geometry" />
        </mxCell>
        <mxCell id="9RD790JI7l86FVb_q7uH-63" value="" style="ellipse;whiteSpace=wrap;html=1;aspect=fixed;hachureGap=4;fillColor=#dae8fc;strokeColor=#6c8ebf;rounded=0;fontSize=18;" vertex="1" parent="1">
          <mxGeometry x="1822.5" y="2167" width="80" height="80" as="geometry" />
        </mxCell>
        <mxCell id="9RD790JI7l86FVb_q7uH-64" style="edgeStyle=orthogonalEdgeStyle;rounded=0;orthogonalLoop=1;jettySize=auto;html=1;fontSize=18;entryX=0;entryY=0.5;entryDx=0;entryDy=0;" edge="1" parent="1" target="9RD790JI7l86FVb_q7uH-63">
          <mxGeometry relative="1" as="geometry">
            <mxPoint x="1745.5" y="2207" as="sourcePoint" />
            <mxPoint x="1786.5" y="1838" as="targetPoint" />
          </mxGeometry>
        </mxCell>
        <mxCell id="9RD790JI7l86FVb_q7uH-65" style="edgeStyle=orthogonalEdgeStyle;rounded=0;orthogonalLoop=1;jettySize=auto;html=1;exitX=0;exitY=0;exitDx=0;exitDy=0;entryX=0.5;entryY=0;entryDx=0;entryDy=0;curved=1;" edge="1" parent="1" source="9RD790JI7l86FVb_q7uH-63" target="9RD790JI7l86FVb_q7uH-63">
          <mxGeometry relative="1" as="geometry">
            <Array as="points">
              <mxPoint x="1834.5" y="2126" />
              <mxPoint x="1862.5" y="2126" />
            </Array>
          </mxGeometry>
        </mxCell>
        <mxCell id="9RD790JI7l86FVb_q7uH-66" value="1&amp;nbsp;&lt;span style=&quot;text-wrap: wrap;&quot;&gt;Ɛ/A&lt;br&gt;&lt;/span&gt;0&amp;nbsp;&lt;span style=&quot;text-wrap: wrap;&quot;&gt;Ɛ/B&lt;/span&gt;&lt;span style=&quot;text-wrap: wrap;&quot;&gt;&lt;br&gt;&lt;/span&gt;" style="text;html=1;align=center;verticalAlign=middle;resizable=0;points=[];autosize=1;strokeColor=none;fillColor=none;fontFamily=Helvetica;fontSize=18;fontColor=default;" vertex="1" parent="1">
          <mxGeometry x="1806" y="2076" width="61" height="55" as="geometry" />
        </mxCell>
        <mxCell id="9RD790JI7l86FVb_q7uH-83" style="edgeStyle=orthogonalEdgeStyle;rounded=0;orthogonalLoop=1;jettySize=auto;html=1;entryX=0;entryY=0.5;entryDx=0;entryDy=0;fontFamily=Helvetica;fontSize=18;fontColor=default;autosize=1;resizable=0;" edge="1" parent="1" source="9RD790JI7l86FVb_q7uH-67" target="9RD790JI7l86FVb_q7uH-80">
          <mxGeometry relative="1" as="geometry" />
        </mxCell>
        <mxCell id="9RD790JI7l86FVb_q7uH-67" value="" style="ellipse;whiteSpace=wrap;html=1;aspect=fixed;hachureGap=4;fillColor=#dae8fc;strokeColor=#6c8ebf;rounded=0;fontSize=18;" vertex="1" parent="1">
          <mxGeometry x="1991.5" y="2167" width="80" height="80" as="geometry" />
        </mxCell>
        <mxCell id="9RD790JI7l86FVb_q7uH-69" value="&lt;span style=&quot;text-wrap: wrap;&quot;&gt;1&lt;/span&gt;&amp;nbsp;&lt;span style=&quot;text-wrap: wrap;&quot;&gt;Ɛ&lt;/span&gt;&amp;nbsp;/&amp;nbsp;&lt;span style=&quot;text-wrap: wrap;&quot;&gt;Ɛ&lt;br&gt;0&lt;/span&gt;&amp;nbsp;&lt;span style=&quot;text-wrap: wrap;&quot;&gt;Ɛ&lt;/span&gt;&amp;nbsp;/&amp;nbsp;&lt;span style=&quot;text-wrap: wrap;&quot;&gt;Ɛ&lt;/span&gt;&lt;span style=&quot;text-wrap: wrap;&quot;&gt;&lt;br&gt;&lt;/span&gt;" style="text;html=1;align=center;verticalAlign=middle;resizable=0;points=[];autosize=1;strokeColor=none;fillColor=none;fontFamily=Helvetica;fontSize=18;fontColor=default;" vertex="1" parent="1">
          <mxGeometry x="1911.5" y="2153.55" width="70" height="55" as="geometry" />
        </mxCell>
        <mxCell id="9RD790JI7l86FVb_q7uH-70" style="edgeStyle=orthogonalEdgeStyle;rounded=0;orthogonalLoop=1;jettySize=auto;html=1;exitX=1;exitY=0;exitDx=0;exitDy=0;entryX=0.5;entryY=0;entryDx=0;entryDy=0;fontFamily=Helvetica;fontSize=18;fontColor=default;autosize=1;resizable=0;curved=1;" edge="1" parent="1" source="9RD790JI7l86FVb_q7uH-67" target="9RD790JI7l86FVb_q7uH-67">
          <mxGeometry relative="1" as="geometry">
            <Array as="points">
              <mxPoint x="2060" y="2126" />
              <mxPoint x="2032" y="2126" />
            </Array>
          </mxGeometry>
        </mxCell>
        <mxCell id="9RD790JI7l86FVb_q7uH-77" value="&lt;span style=&quot;text-wrap: nowrap;&quot;&gt;1 A&amp;nbsp;&lt;/span&gt;/ Ɛ&lt;br&gt;&lt;span style=&quot;text-wrap: nowrap;&quot;&gt;0&amp;nbsp;&lt;/span&gt;B / Ɛ" style="rounded=0;whiteSpace=wrap;html=1;align=center;verticalAlign=middle;fontFamily=Helvetica;fontSize=18;fontColor=default;autosize=1;resizable=0;fillColor=none;gradientColor=none;strokeColor=none;" vertex="1" parent="1">
          <mxGeometry x="2018" y="2065" width="71" height="55" as="geometry" />
        </mxCell>
        <mxCell id="9RD790JI7l86FVb_q7uH-80" value="F" style="ellipse;whiteSpace=wrap;html=1;aspect=fixed;hachureGap=4;fillColor=#dae8fc;strokeColor=#6c8ebf;rounded=0;fontSize=18;" vertex="1" parent="1">
          <mxGeometry x="2176" y="2167" width="80" height="80" as="geometry" />
        </mxCell>
        <mxCell id="9RD790JI7l86FVb_q7uH-81" value="&lt;span style=&quot;text-wrap: wrap;&quot;&gt;ƐZ/Z&lt;/span&gt;" style="text;html=1;align=center;verticalAlign=middle;resizable=0;points=[];autosize=1;strokeColor=none;fillColor=none;fontFamily=Helvetica;fontSize=18;fontColor=default;" vertex="1" parent="1">
          <mxGeometry x="2100" y="2164.05" width="56" height="34" as="geometry" />
        </mxCell>
        <mxCell id="9RD790JI7l86FVb_q7uH-82" value="" style="ellipse;whiteSpace=wrap;html=1;aspect=fixed;align=center;verticalAlign=middle;fontFamily=Helvetica;fontSize=18;fontColor=default;fillColor=none;gradientColor=none;strokeColor=#000000;" vertex="1" parent="1">
          <mxGeometry x="2182" y="2173.5" width="67" height="67" as="geometry" />
        </mxCell>
        <mxCell id="9RD790JI7l86FVb_q7uH-89" value="" style="edgeStyle=orthogonalEdgeStyle;rounded=0;orthogonalLoop=1;jettySize=auto;html=1;fontFamily=Helvetica;fontSize=18;fontColor=default;autosize=1;resizable=0;" edge="1" parent="1" source="9RD790JI7l86FVb_q7uH-84" target="9RD790JI7l86FVb_q7uH-88">
          <mxGeometry relative="1" as="geometry" />
        </mxCell>
        <mxCell id="9RD790JI7l86FVb_q7uH-99" value="" style="edgeStyle=orthogonalEdgeStyle;rounded=0;orthogonalLoop=1;jettySize=auto;html=1;fontFamily=Helvetica;fontSize=18;fontColor=default;autosize=1;resizable=0;" edge="1" parent="1" source="9RD790JI7l86FVb_q7uH-84" target="9RD790JI7l86FVb_q7uH-98">
          <mxGeometry relative="1" as="geometry" />
        </mxCell>
        <mxCell id="9RD790JI7l86FVb_q7uH-84" value="" style="ellipse;whiteSpace=wrap;html=1;aspect=fixed;hachureGap=4;fillColor=#dae8fc;strokeColor=#6c8ebf;rounded=0;fontSize=18;" vertex="1" parent="1">
          <mxGeometry x="1827.5" y="2411" width="80" height="80" as="geometry" />
        </mxCell>
        <mxCell id="9RD790JI7l86FVb_q7uH-85" style="edgeStyle=orthogonalEdgeStyle;rounded=0;orthogonalLoop=1;jettySize=auto;html=1;fontSize=18;entryX=0;entryY=0.5;entryDx=0;entryDy=0;" edge="1" parent="1" target="9RD790JI7l86FVb_q7uH-84">
          <mxGeometry relative="1" as="geometry">
            <mxPoint x="1750.5" y="2451" as="sourcePoint" />
            <mxPoint x="1791.5" y="2082" as="targetPoint" />
          </mxGeometry>
        </mxCell>
        <mxCell id="9RD790JI7l86FVb_q7uH-94" value="" style="edgeStyle=orthogonalEdgeStyle;rounded=0;orthogonalLoop=1;jettySize=auto;html=1;fontFamily=Helvetica;fontSize=18;fontColor=default;autosize=1;resizable=0;" edge="1" parent="1" source="9RD790JI7l86FVb_q7uH-88" target="9RD790JI7l86FVb_q7uH-93">
          <mxGeometry relative="1" as="geometry" />
        </mxCell>
        <mxCell id="9RD790JI7l86FVb_q7uH-88" value="Si" style="ellipse;whiteSpace=wrap;html=1;aspect=fixed;hachureGap=4;fillColor=#dae8fc;strokeColor=#6c8ebf;rounded=0;fontSize=18;" vertex="1" parent="1">
          <mxGeometry x="1987.5" y="2411" width="80" height="80" as="geometry" />
        </mxCell>
        <mxCell id="9RD790JI7l86FVb_q7uH-90" value="&lt;span style=&quot;text-wrap: wrap;&quot;&gt;#&lt;/span&gt;&amp;nbsp;&lt;span style=&quot;text-wrap: wrap;&quot;&gt;Ɛ&lt;/span&gt;&amp;nbsp;/&amp;nbsp;&lt;span style=&quot;text-wrap: wrap;&quot;&gt;Ɛ&lt;/span&gt;&lt;span style=&quot;text-wrap: wrap;&quot;&gt;&lt;br&gt;&lt;/span&gt;" style="text;html=1;align=center;verticalAlign=middle;resizable=0;points=[];autosize=1;strokeColor=none;fillColor=none;fontFamily=Helvetica;fontSize=18;fontColor=default;" vertex="1" parent="1">
          <mxGeometry x="1907.5" y="2408" width="70" height="34" as="geometry" />
        </mxCell>
        <mxCell id="9RD790JI7l86FVb_q7uH-91" style="edgeStyle=orthogonalEdgeStyle;rounded=0;orthogonalLoop=1;jettySize=auto;html=1;exitX=0;exitY=0;exitDx=0;exitDy=0;entryX=0.5;entryY=0;entryDx=0;entryDy=0;fontFamily=Helvetica;fontSize=18;fontColor=default;autosize=1;resizable=0;curved=1;" edge="1" parent="1" source="9RD790JI7l86FVb_q7uH-88" target="9RD790JI7l86FVb_q7uH-88">
          <mxGeometry relative="1" as="geometry">
            <Array as="points">
              <mxPoint x="1999" y="2381" />
              <mxPoint x="2028" y="2381" />
            </Array>
          </mxGeometry>
        </mxCell>
        <mxCell id="9RD790JI7l86FVb_q7uH-92" value="1&amp;nbsp;&lt;span style=&quot;text-wrap: wrap;&quot;&gt;Ɛ/A&lt;br&gt;&lt;/span&gt;0&amp;nbsp;&lt;span style=&quot;text-wrap: wrap;&quot;&gt;Ɛ/B&lt;/span&gt;&lt;span style=&quot;text-wrap: wrap;&quot;&gt;&lt;br&gt;&lt;/span&gt;" style="text;html=1;align=center;verticalAlign=middle;resizable=0;points=[];autosize=1;strokeColor=none;fillColor=none;fontFamily=Helvetica;fontSize=18;fontColor=default;" vertex="1" parent="1">
          <mxGeometry x="1988.5" y="2322" width="61" height="55" as="geometry" />
        </mxCell>
        <mxCell id="9RD790JI7l86FVb_q7uH-93" value="Sj" style="ellipse;whiteSpace=wrap;html=1;aspect=fixed;hachureGap=4;fillColor=#dae8fc;strokeColor=#6c8ebf;rounded=0;fontSize=18;" vertex="1" parent="1">
          <mxGeometry x="1987.5" y="2571" width="80" height="80" as="geometry" />
        </mxCell>
        <mxCell id="9RD790JI7l86FVb_q7uH-95" value="&lt;span style=&quot;text-wrap: wrap;&quot;&gt;#&lt;/span&gt;&amp;nbsp;&lt;span style=&quot;text-wrap: wrap;&quot;&gt;Ɛ&lt;/span&gt;&amp;nbsp;/&amp;nbsp;&lt;span style=&quot;text-wrap: wrap;&quot;&gt;Ɛ&lt;/span&gt;&lt;span style=&quot;text-wrap: wrap;&quot;&gt;&lt;br&gt;&lt;/span&gt;" style="text;html=1;align=center;verticalAlign=middle;resizable=0;points=[];autosize=1;strokeColor=none;fillColor=none;fontFamily=Helvetica;fontSize=18;fontColor=default;" vertex="1" parent="1">
          <mxGeometry x="2033.5" y="2515" width="70" height="34" as="geometry" />
        </mxCell>
        <mxCell id="9RD790JI7l86FVb_q7uH-96" style="edgeStyle=orthogonalEdgeStyle;rounded=0;orthogonalLoop=1;jettySize=auto;html=1;exitX=1;exitY=1;exitDx=0;exitDy=0;entryX=0.5;entryY=1;entryDx=0;entryDy=0;fontFamily=Helvetica;fontSize=18;fontColor=default;autosize=1;resizable=0;curved=1;" edge="1" parent="1" source="9RD790JI7l86FVb_q7uH-93" target="9RD790JI7l86FVb_q7uH-93">
          <mxGeometry relative="1" as="geometry">
            <Array as="points">
              <mxPoint x="2056" y="2684" />
              <mxPoint x="2028" y="2684" />
            </Array>
          </mxGeometry>
        </mxCell>
        <mxCell id="9RD790JI7l86FVb_q7uH-97" value="1 A /&amp;nbsp;&lt;span style=&quot;text-wrap: wrap;&quot;&gt;Ɛ&lt;br&gt;&lt;/span&gt;0&amp;nbsp;&lt;span style=&quot;text-wrap: wrap;&quot;&gt;B /&lt;/span&gt;&lt;span style=&quot;text-wrap: wrap;&quot;&gt;Ɛ&lt;/span&gt;&lt;span style=&quot;text-wrap: wrap;&quot;&gt;&lt;br&gt;&lt;/span&gt;" style="text;html=1;align=center;verticalAlign=middle;resizable=0;points=[];autosize=1;strokeColor=none;fillColor=none;fontFamily=Helvetica;fontSize=18;fontColor=default;" vertex="1" parent="1">
          <mxGeometry x="2025" y="2685" width="69" height="55" as="geometry" />
        </mxCell>
        <mxCell id="9RD790JI7l86FVb_q7uH-98" value="Strash" style="ellipse;whiteSpace=wrap;html=1;aspect=fixed;hachureGap=4;fillColor=#dae8fc;strokeColor=#6c8ebf;rounded=0;fontSize=18;" vertex="1" parent="1">
          <mxGeometry x="1827.5" y="2571" width="80" height="80" as="geometry" />
        </mxCell>
        <mxCell id="9RD790JI7l86FVb_q7uH-100" value="&lt;span style=&quot;text-wrap: wrap;&quot;&gt;#&lt;/span&gt;&amp;nbsp;&lt;span style=&quot;text-wrap: wrap;&quot;&gt;Ɛ&lt;/span&gt;&amp;nbsp;/&amp;nbsp;&lt;span style=&quot;text-wrap: wrap;&quot;&gt;Ɛ&lt;/span&gt;&lt;span style=&quot;text-wrap: wrap;&quot;&gt;&lt;br&gt;&lt;/span&gt;" style="text;html=1;align=center;verticalAlign=middle;resizable=0;points=[];autosize=1;strokeColor=none;fillColor=none;fontFamily=Helvetica;fontSize=18;fontColor=default;" vertex="1" parent="1">
          <mxGeometry x="1789.5" y="2515" width="70" height="34" as="geometry" />
        </mxCell>
        <mxCell id="9RD790JI7l86FVb_q7uH-101" style="edgeStyle=orthogonalEdgeStyle;rounded=0;orthogonalLoop=1;jettySize=auto;html=1;exitX=0;exitY=1;exitDx=0;exitDy=0;entryX=0.5;entryY=1;entryDx=0;entryDy=0;fontFamily=Helvetica;fontSize=18;fontColor=default;autosize=1;resizable=0;curved=1;" edge="1" parent="1" source="9RD790JI7l86FVb_q7uH-98" target="9RD790JI7l86FVb_q7uH-98">
          <mxGeometry relative="1" as="geometry">
            <Array as="points">
              <mxPoint x="1839" y="2680" />
              <mxPoint x="1868" y="2680" />
            </Array>
          </mxGeometry>
        </mxCell>
        <mxCell id="9RD790JI7l86FVb_q7uH-103" value="&lt;span style=&quot;text-wrap: nowrap;&quot;&gt;1&amp;nbsp;&lt;/span&gt;Ɛ / Ɛ&lt;br&gt;&lt;span style=&quot;text-wrap: nowrap;&quot;&gt;0&amp;nbsp;&lt;/span&gt;Ɛ / Ɛ" style="rounded=0;whiteSpace=wrap;html=1;align=center;verticalAlign=middle;fontFamily=Helvetica;fontSize=18;fontColor=default;autosize=1;resizable=0;fillColor=none;gradientColor=none;strokeColor=none;" vertex="1" parent="1">
          <mxGeometry x="1806" y="2680" width="70" height="55" as="geometry" />
        </mxCell>
      </root>
    </mxGraphModel>
  </diagram>
</mxfile>
